<svg xmlns="http://www.w3.org/2000/svg" xmlns:xlink="http://www.w3.org/1999/xlink" width="50" height="37.5" viewBox="0 0 50 37.5">
  <defs>
    <linearGradient id="linear-gradient" x1="0.5" x2="0.5" y2="1" gradientUnits="objectBoundingBox">
      <stop offset="0" stop-color="#ff61df"/>
      <stop offset="1" stop-color="#545454"/>
    </linearGradient>
  </defs>
  <path id="ad-regular" d="M9.9,92.125h1.654a1.565,1.565,0,0,0,1.477-1.05L13.756,89H20.62l.721,2.075a1.562,1.562,0,0,0,1.477,1.05h1.654a1.563,1.563,0,0,0,1.477-2.075L20.7,74.95a2.344,2.344,0,0,0-2.214-1.575h-2.6a2.343,2.343,0,0,0-2.214,1.574L8.429,90.05A1.562,1.562,0,0,0,9.9,92.125Zm7.283-13.01,1.8,5.2H15.383Zm17.188,13.01a6.985,6.985,0,0,0,2.736-.555,1.539,1.539,0,0,0,1.17.555h1.563a1.562,1.562,0,0,0,1.563-1.562V74.938a1.562,1.562,0,0,0-1.562-1.562H38.281a1.562,1.562,0,0,0-1.562,1.563v3.557a6.944,6.944,0,0,0-2.344-.432,7.031,7.031,0,0,0,0,14.063Zm0-9.375a2.344,2.344,0,1,1-2.344,2.344A2.347,2.347,0,0,1,34.375,82.75ZM45.313,64H4.688A4.689,4.689,0,0,0,0,68.688V96.813A4.689,4.689,0,0,0,4.688,101.5H45.313A4.689,4.689,0,0,0,50,96.813V68.688A4.689,4.689,0,0,0,45.313,64Zm0,32.813H4.688V68.688H45.313Z" transform="translate(0 -64)" fill="url(#linear-gradient)"/>
</svg>
