<svg xmlns="http://www.w3.org/2000/svg" viewBox="0 0 640 384.14"><defs><style>.cls-1{fill:#ef7818;}</style></defs><g id="Layer_2" data-name="Layer 2"><g id="Layer_1-2" data-name="Layer 1"><path class="cls-1" d="M483.9,274.7,334.6,153.5l-30,27.5c-40.6,37.1-86.8,11.9-101.7-4.4a72,72,0,0,1,4.4-101.7L289.1,0H205.3a31.94,31.94,0,0,0-22.6,9.4L128,64H16A16,16,0,0,0,0,80V271.9a16,16,0,0,0,16,16H146.3l90.5,81.9a64,64,0,0,0,90-9.3l.2-.2,17.9,15.5a37.16,37.16,0,0,0,52.3-5.4l31.4-38.6,5.4,4.4a32,32,0,0,0,45-4.7l9.5-11.7a32.06,32.06,0,0,0-4.6-45.1ZM624,64H512L457.4,9.4A31.94,31.94,0,0,0,434.8,0H348.9a32,32,0,0,0-21.6,8.4L229,98.4c-.1.1-.2.3-.3.4a39.69,39.69,0,0,0-2.1,56c9.6,10.5,35,21.6,56.1,2.7.1-.1.3-.1.4-.2l53-48.5,27-24.7a16,16,0,0,1,21.6,23.6l-26.1,23.9L504.2,249.8a63.36,63.36,0,0,1,22.2,37.9H624a16,16,0,0,0,16-16V79.9A16,16,0,0,0,624,64Z"/></g></g></svg>