<svg xmlns="http://www.w3.org/2000/svg" viewBox="0 0 640 384.14"><defs><style>.cls-1,.cls-2{fill:#fc7900;}.cls-1{opacity:0.4;isolation:isolate;}</style></defs><g id="Layer_2" data-name="Layer 2"><g id="Layer_1-2" data-name="Layer 1"><path class="cls-1" d="M0,320H64a32,32,0,0,0,32-32V64.2H0Zm48-63.9a16,16,0,1,1-16,16A16,16,0,0,1,48,256.1ZM457.3,9.4A31.76,31.76,0,0,0,434.7,0H348.8a32,32,0,0,0-21.6,8.4l-98.3,90c-.1.1-.2.3-.3.4a39.78,39.78,0,0,0-2.1,56c12.7,13.9,39.4,17.6,56.1,2.7.1-.1.3-.1.4-.2l79.9-73.2a16,16,0,0,1,21.6,23.6l-26.1,23.9L504,249.8a71.82,71.82,0,0,1,7.9,7.7V64Z"/><path class="cls-2" d="M544,64.2V288.1a32,32,0,0,0,32,32h64V64.2Zm48,223.9a16,16,0,1,1,16-16A16,16,0,0,1,592,288.1ZM483.9,274.7,334.6,153.5l-30,27.5A72,72,0,0,1,207.3,74.9L289.1,0H205.3a32,32,0,0,0-22.6,9.4L128,64V287.9h18.3l90.5,81.9a64,64,0,0,0,90-9.3l.2-.2,17.9,15.5a37.17,37.17,0,0,0,52.28-5.37l0,0,31.4-38.6,5.4,4.4a32,32,0,0,0,45-4.7l9.5-11.7a32.06,32.06,0,0,0-4.6-45.1Z"/></g></g></svg>