<svg xmlns="http://www.w3.org/2000/svg" xmlns:xlink="http://www.w3.org/1999/xlink" width="37.5" height="30" viewBox="0 0 37.5 30">
  <defs>
    <linearGradient id="linear-gradient" x1="0.5" x2="0.5" y2="1" gradientUnits="objectBoundingBox">
      <stop offset="0" stop-color="#ff61df"/>
      <stop offset="1" stop-color="#00f0ff"/>
    </linearGradient>
  </defs>
  <g id="Group_4576" data-name="Group 4576" transform="translate(-1315.5 -1267)">
    <path id="Path_317" data-name="Path 317" d="M140.66,123.306l5.269-2.186,2.853,4.755a3.2,3.2,0,0,1,.335,2.341,3.82,3.82,0,0,1-5.658,2.36,3.2,3.2,0,0,1-1.425-1.885Zm-15.81,4.91a3.82,3.82,0,0,0,5.657,2.36,3.2,3.2,0,0,0,1.425-1.885l1.376-5.381-5.27-2.186-2.851,4.755a3.2,3.2,0,0,0-.338,2.337Z" transform="translate(1197.266 1152.88)" fill="url(#linear-gradient)"/>
    <path id="Path_318" data-name="Path 318" d="M37.45,25.405a2.334,2.334,0,0,0-3.059-1.266l-1.294.539L30.83,18.709a6.861,6.861,0,0,0,2.021-8.952L27.777.94a1.881,1.881,0,0,0-2.344-.8l-6.7,2.777L12.04.144A1.858,1.858,0,0,0,11.322,0,1.878,1.878,0,0,0,9.7.94L4.623,9.757A6.857,6.857,0,0,0,6.644,18.7L4.377,24.673l-1.295-.539A2.334,2.334,0,0,0,.023,25.4a.469.469,0,0,0,.252.616l9.509,3.949A.476.476,0,0,0,9.966,30a.462.462,0,0,0,.428-.288,2.348,2.348,0,0,0-1.266-3.064l-1.294-.539,2.309-6.07a6.945,6.945,0,0,0,.768.076,6.815,6.815,0,0,0,6.644-5L18.737,10.7l1.184,4.416a6.815,6.815,0,0,0,6.644,5,6.945,6.945,0,0,0,.768-.076l2.3,6.071-1.295.539a2.344,2.344,0,0,0-1.266,3.064A.469.469,0,0,0,27.5,30a.458.458,0,0,0,.179-.036L37.2,26.015A.469.469,0,0,0,37.45,25.405ZM14.013,14.186a3,3,0,0,1-1.335,1.765,3.577,3.577,0,0,1-5.3-2.21,3,3,0,0,1,.315-2.19L12.09,4.227l4.04,1.685Zm16.09-.445a3.577,3.577,0,0,1-5.3,2.21,3,3,0,0,1-1.334-1.765L21.359,5.914,25.4,4.229l4.392,7.324A3,3,0,0,1,30.1,13.742Z" transform="translate(1315.514 1267)" fill="#636d76"/>
  </g>
</svg>
