<svg xmlns="http://www.w3.org/2000/svg" width="30" height="34.286" viewBox="0 0 30 34.286"><defs><style>.a{fill:#fc7900;opacity:0.4;}.b{fill:#636d76;}</style></defs><g transform="translate(-440 -1246.857)"><path class="a" d="M0,12.857V31.071a3.214,3.214,0,0,0,3.214,3.214H26.786A3.214,3.214,0,0,0,30,31.071V12.857ZM8.571,29.2a.8.8,0,0,1-.8.8H5.089a.8.8,0,0,1-.8-.8V26.518a.8.8,0,0,1,.8-.8H7.768a.8.8,0,0,1,.8.8Zm0-8.571a.8.8,0,0,1-.8.8H5.089a.8.8,0,0,1-.8-.8V17.946a.8.8,0,0,1,.8-.8H7.768a.8.8,0,0,1,.8.8ZM17.143,29.2a.8.8,0,0,1-.8.8H13.661a.8.8,0,0,1-.8-.8V26.518a.8.8,0,0,1,.8-.8h2.679a.8.8,0,0,1,.8.8Zm0-8.571a.8.8,0,0,1-.8.8H13.661a.8.8,0,0,1-.8-.8V17.946a.8.8,0,0,1,.8-.8h2.679a.8.8,0,0,1,.8.8ZM25.714,29.2a.8.8,0,0,1-.8.8H22.232a.8.8,0,0,1-.8-.8V26.518a.8.8,0,0,1,.8-.8h2.679a.8.8,0,0,1,.8.8Zm0-8.571a.8.8,0,0,1-.8.8H22.232a.8.8,0,0,1-.8-.8V17.946a.8.8,0,0,1,.8-.8h2.679a.8.8,0,0,1,.8.8ZM20.357,8.571H22.5A1.071,1.071,0,0,0,23.571,7.5V1.071A1.071,1.071,0,0,0,22.5,0H20.357a1.071,1.071,0,0,0-1.071,1.071V7.5A1.071,1.071,0,0,0,20.357,8.571ZM7.5,8.571H9.643A1.071,1.071,0,0,0,10.714,7.5V1.071A1.071,1.071,0,0,0,9.643,0H7.5A1.071,1.071,0,0,0,6.429,1.071V7.5A1.071,1.071,0,0,0,7.5,8.571Z" transform="translate(440 1246.857)"/><path class="b" d="M30,67.214v5.357H0V67.214A3.214,3.214,0,0,1,3.214,64H6.429v3.214A1.071,1.071,0,0,0,7.5,68.286H9.643a1.071,1.071,0,0,0,1.071-1.071V64h8.571v3.214a1.071,1.071,0,0,0,1.071,1.071H22.5a1.071,1.071,0,0,0,1.071-1.071V64h3.214A3.214,3.214,0,0,1,30,67.214Z" transform="translate(440 1186.857)"/></g></svg>