<svg xmlns="http://www.w3.org/2000/svg" xmlns:xlink="http://www.w3.org/1999/xlink" width="37.01" height="36.365" viewBox="0 0 37.01 36.365">
  <defs>
    <linearGradient id="linear-gradient" x1="0.5" x2="0.5" y2="1" gradientUnits="objectBoundingBox">
      <stop offset="0" stop-color="#ff61df"/>
      <stop offset="1" stop-color="#00f0ff"/>
    </linearGradient>
  </defs>
  <g id="Group_4572" data-name="Group 4572" transform="translate(-568.495 -1034.27)">
    <path id="Path_307" data-name="Path 307" d="M160.262,16.322c2.813-2.781,4.024-5.724,6.33-8.034A8.611,8.611,0,0,0,168.4,4.1c.316-1.314.977-4.1,2.41-4.1,1.7,0,5.114.568,5.114,5.785,0,3.013-1.846,4.7-2.364,6.715h7.225a4.244,4.244,0,0,1,4.229,4.127,5.141,5.141,0,0,1-1.381,3.494l-.008.009a5.93,5.93,0,0,1-.661,5.644,5.618,5.618,0,0,1-1.163,5.31,3.77,3.77,0,0,1-.437,3.17c-1.45,2.083-5.042,2.112-8.08,2.112h-.2a20.37,20.37,0,0,1-8.492-2.254,11.21,11.21,0,0,0-3.739-1.148.852.852,0,0,1-.837-.852V16.927a.852.852,0,0,1,.252-.605Z" transform="translate(420.495 1034.27)" fill="url(#linear-gradient)"/>
    <path id="Path_308" data-name="Path 308" d="M8.306,224H1.917A1.917,1.917,0,0,0,0,225.917v19.167A1.917,1.917,0,0,0,1.917,247H8.306a1.917,1.917,0,0,0,1.917-1.917V225.917A1.917,1.917,0,0,0,8.306,224ZM5.111,243.806a1.917,1.917,0,1,1,1.917-1.917A1.917,1.917,0,0,1,5.111,243.806Z" transform="translate(568.495 823.635)" fill="#636d76"/>
  </g>
</svg>
