<svg xmlns="http://www.w3.org/2000/svg" xmlns:xlink="http://www.w3.org/1999/xlink" width="30" height="44.296" viewBox="0 0 30 44.296">
  <defs>
    <linearGradient id="linear-gradient" x1="0.5" x2="0.5" y2="1" gradientUnits="objectBoundingBox">
      <stop offset="0" stop-color="#ff61df"/>
      <stop offset="1" stop-color="#00f0ff"/>
    </linearGradient>
  </defs>
  <g id="Group_4574" data-name="Group 4574" transform="translate(-934.792 -999.143)">
    <path id="Path_311" data-name="Path 311" d="M14.953,0A14.991,14.991,0,0,0,3.712,24.866a24.482,24.482,0,0,1,4.45,7.794.446.446,0,0,0,.009.066H21.828a.462.462,0,0,1,.009-.066,24.492,24.492,0,0,1,4.45-7.794A14.991,14.991,0,0,0,14.953,0Zm1.41,21.807V23.18a.682.682,0,0,1-.682.682H14.318a.682.682,0,0,1-.682-.682V21.792a4.88,4.88,0,0,1-2.674-.967.682.682,0,0,1-.049-1.035l1-.956a.7.7,0,0,1,.863-.062,2.052,2.052,0,0,0,1.093.318h2.4a1.072,1.072,0,0,0,1.006-1.124,1.112,1.112,0,0,0-.747-1.085L12.69,15.73A3.857,3.857,0,0,1,10,12.032a3.8,3.8,0,0,1,3.637-3.841V6.817a.682.682,0,0,1,.682-.682H15.68a.682.682,0,0,1,.682.682V8.205a4.873,4.873,0,0,1,2.674.967.682.682,0,0,1,.049,1.035l-1,.956a.7.7,0,0,1-.863.062,2.045,2.045,0,0,0-1.093-.318h-2.4a1.072,1.072,0,0,0-1.006,1.124,1.112,1.112,0,0,0,.747,1.085l3.835,1.151A3.857,3.857,0,0,1,20,17.965a3.8,3.8,0,0,1-3.637,3.841Z" transform="translate(934.792 999.144)" fill="url(#linear-gradient)"/>
    <path id="Path_312" data-name="Path 312" d="M96,102.1v3.356A2.8,2.8,0,0,0,96.474,107l1.5,2.248A2.8,2.8,0,0,0,100.3,110.5h5.4a2.8,2.8,0,0,0,2.331-1.249l1.5-2.251a2.8,2.8,0,0,0,.473-1.544V102.1Zm4.629-20.249,3.938,1.181a1.142,1.142,0,0,1,.767,1.114A1.1,1.1,0,0,1,104.3,85.3h-2.46a2.107,2.107,0,0,1-1.122-.326.718.718,0,0,0-.886.064l-1.028.981a.7.7,0,0,0,.05,1.062,5.01,5.01,0,0,0,2.745.993V89.5a.7.7,0,0,0,.7.7h1.4a.7.7,0,0,0,.7-.7V88.09a3.9,3.9,0,0,0,3.734-3.944,3.959,3.959,0,0,0-2.763-3.8l-3.937-1.181a1.142,1.142,0,0,1-.767-1.114A1.1,1.1,0,0,1,101.7,76.9h2.46a2.1,2.1,0,0,1,1.122.325.718.718,0,0,0,.886-.064l1.028-.981a.7.7,0,0,0-.05-1.062,5,5,0,0,0-2.744-.993V72.7a.7.7,0,0,0-.7-.7h-1.4a.7.7,0,0,0-.7.7v1.41a3.9,3.9,0,0,0-3.734,3.944A3.958,3.958,0,0,0,100.629,81.851Z" transform="translate(846.792 932.938)" fill="#636d76"/>
  </g>
</svg>
