<svg xmlns="http://www.w3.org/2000/svg" width="42.857" height="45" viewBox="0 0 42.857 45"><defs><style>.a{fill:#fc7900;opacity:0.4;}.b{fill:#636d76;}</style></defs><g transform="translate(-1338 -1045)"><path class="a" d="M40.714,64a2.143,2.143,0,0,0-2.143,2.143V76.08L32.558,83.3a1.075,1.075,0,0,1-1.58.074l-.857-.857a1.071,1.071,0,0,1-.1-1.4l2.551-3.4a2.143,2.143,0,1,0-3.429-2.571l-3.857,5.143a8.585,8.585,0,0,0-1.714,5.143v7.5A1.071,1.071,0,0,0,24.643,94h8.819a1.055,1.055,0,0,0,1.025-.777,4,4,0,0,1,.7-1.453l6.971-8.993a3.218,3.218,0,0,0,.7-2.009V66.143A2.143,2.143,0,0,0,40.714,64Zm-27,11.143a2.143,2.143,0,1,0-3.429,2.571l2.551,3.4a1.071,1.071,0,0,1-.1,1.4l-.857.857A1.065,1.065,0,0,1,10.3,83.3L4.286,76.08V66.143a2.143,2.143,0,0,0-4.286,0V80.768a3.218,3.218,0,0,0,.7,2.009L7.674,91.77a4,4,0,0,1,.7,1.453A1.049,1.049,0,0,0,9.4,94h8.819a1.071,1.071,0,0,0,1.071-1.071v-7.5a8.585,8.585,0,0,0-1.714-5.143Z" transform="translate(1338 996)"/><path class="b" d="M246.276,9.821a5.713,5.713,0,0,1,5.012-6.405V1.627A1.627,1.627,0,0,1,252.914,0h1.627a1.627,1.627,0,0,1,1.627,1.627v1.8A7.476,7.476,0,0,1,259.4,4.6a1.219,1.219,0,0,1,.152,1.871l-1.779,1.779a1.26,1.26,0,0,1-1.434.2,2.616,2.616,0,0,0-1.047-.224h-3.335a.855.855,0,0,0-.234,1.678l5.094,1.454a5.965,5.965,0,0,1,4.362,4.85,5.708,5.708,0,0,1-5.012,6.405V24.4a1.627,1.627,0,0,1-1.627,1.627h-1.627a1.627,1.627,0,0,1-1.627-1.627V22.6a7.476,7.476,0,0,1-3.233-1.169,1.219,1.219,0,0,1-.153-1.871l1.779-1.779a1.26,1.26,0,0,1,1.434-.2,2.616,2.616,0,0,0,1.047.224H255.5a.855.855,0,0,0,.234-1.678l-5.094-1.454a5.965,5.965,0,0,1-4.362-4.85Z" transform="translate(1105.701 1045)"/></g></svg>