<svg xmlns="http://www.w3.org/2000/svg" xmlns:xlink="http://www.w3.org/1999/xlink" width="50" height="50" viewBox="0 0 50 50">
  <defs>
    <linearGradient id="linear-gradient" x1="0.5" x2="0.5" y2="1" gradientUnits="objectBoundingBox">
      <stop offset="0" stop-color="#ff61df"/>
      <stop offset="1" stop-color="#545454"/>
    </linearGradient>
  </defs>
  <path id="microchip-ai-solid" d="M48.438,26.563a1.563,1.563,0,0,0,0-3.125H43.75v-6.25h4.688a1.563,1.563,0,0,0,0-3.125H43.75V12.5A6.25,6.25,0,0,0,37.5,6.25H35.938V1.563a1.563,1.563,0,0,0-3.125,0V6.25h-6.25V1.563a1.563,1.563,0,0,0-3.125,0V6.25h-6.25V1.563a1.563,1.563,0,0,0-3.125,0V6.25H12.5A6.25,6.25,0,0,0,6.25,12.5v1.563H1.563a1.563,1.563,0,0,0,0,3.125H6.25v6.25H1.563a1.563,1.563,0,0,0,0,3.125H6.25v6.25H1.563a1.563,1.563,0,0,0,0,3.125H6.25V37.5a6.25,6.25,0,0,0,6.25,6.25h1.563v4.688a1.563,1.563,0,0,0,3.125,0V43.75h6.25v4.688a1.563,1.563,0,0,0,3.125,0V43.75h6.25v4.688a1.563,1.563,0,0,0,3.125,0V43.75H37.5a6.25,6.25,0,0,0,6.25-6.25V35.938h4.688a1.563,1.563,0,0,0,0-3.125H43.75v-6.25ZM26.406,32.686a1.572,1.572,0,0,1-2.057-.81l-.961-2.188H17.236l-.958,2.188a1.566,1.566,0,0,1-2.871-1.251l5.469-12.5a1.626,1.626,0,0,1,2.862,0l5.469,12.5A1.562,1.562,0,0,1,26.406,32.686Zm7.969-1.436a1.563,1.563,0,0,1-3.125,0V18.75a1.563,1.563,0,0,1,3.125,0ZM18.6,26.563h3.425l-1.716-3.916Z" fill="url(#linear-gradient)"/>
</svg>
