<svg xmlns="http://www.w3.org/2000/svg" xmlns:xlink="http://www.w3.org/1999/xlink" width="50" height="42.105" viewBox="0 0 50 42.105">
  <defs>
    <linearGradient id="linear-gradient" x1="0.5" x2="0.5" y2="1" gradientUnits="objectBoundingBox">
      <stop offset="0" stop-color="#ff61df"/>
      <stop offset="1" stop-color="#545454"/>
    </linearGradient>
  </defs>
  <path id="analytics-regular" d="M34.211,26.316H28.947a2.632,2.632,0,0,0-2.632,2.632V39.474a2.632,2.632,0,0,0,2.632,2.632h5.263a2.632,2.632,0,0,0,2.632-2.632V28.947A2.632,2.632,0,0,0,34.211,26.316ZM32.895,38.158H30.263V30.263h2.632ZM47.368,15.789H42.105a2.632,2.632,0,0,0-2.632,2.632V39.474a2.632,2.632,0,0,0,2.632,2.632h5.263A2.632,2.632,0,0,0,50,39.474V18.421A2.632,2.632,0,0,0,47.368,15.789ZM46.053,38.158H43.421V19.737h2.632Zm-25-22.368H15.789a2.632,2.632,0,0,0-2.632,2.632V39.474a2.632,2.632,0,0,0,2.632,2.632h5.263a2.632,2.632,0,0,0,2.632-2.632V18.421A2.632,2.632,0,0,0,21.053,15.789ZM19.737,38.158H17.105V19.737h2.632ZM7.895,28.947H2.632A2.632,2.632,0,0,0,0,31.579v7.895a2.632,2.632,0,0,0,2.632,2.632H7.895a2.632,2.632,0,0,0,2.632-2.632V31.579A2.632,2.632,0,0,0,7.895,28.947ZM6.579,38.158H3.947V32.895H6.579ZM5.263,21.053a3.9,3.9,0,0,0,3.8-4.957l8.347-8.347a3.71,3.71,0,0,0,2.439-.131l7.84,6.272a3.9,3.9,0,0,0-.058.584,3.947,3.947,0,1,0,7.895,0,4,4,0,0,0-.058-.583l7.84-6.272a3.942,3.942,0,1,0-2.52-3.671,4,4,0,0,0,.058.583L33.007,10.8a3.824,3.824,0,0,0-2.859,0L22.31,4.531a3.9,3.9,0,0,0,.058-.584,3.947,3.947,0,0,0-7.895,0,3.937,3.937,0,0,0,.146,1.01L6.273,13.3a3.936,3.936,0,0,0-1.01-.146,3.947,3.947,0,0,0,0,7.895Z" fill="url(#linear-gradient)"/>
</svg>
