<svg xmlns="http://www.w3.org/2000/svg" xmlns:xlink="http://www.w3.org/1999/xlink" width="50" height="37.5" viewBox="0 0 50 37.5">
  <defs>
    <linearGradient id="linear-gradient" x1="0.5" x2="0.5" y2="1" gradientUnits="objectBoundingBox">
      <stop offset="0" stop-color="#ff61df"/>
      <stop offset="1" stop-color="#545454"/>
    </linearGradient>
  </defs>
  <path id="chart-bar-light" d="M41.406,92.125h1.563a.784.784,0,0,0,.781-.781V67.906a.784.784,0,0,0-.781-.781H41.406a.784.784,0,0,0-.781.781V91.344A.784.784,0,0,0,41.406,92.125Zm-9.375,0h1.563a.784.784,0,0,0,.781-.781V77.281a.784.784,0,0,0-.781-.781H32.031a.784.784,0,0,0-.781.781V91.344A.784.784,0,0,0,32.031,92.125Zm-18.75,0h1.563a.784.784,0,0,0,.781-.781V83.531a.784.784,0,0,0-.781-.781H13.281a.784.784,0,0,0-.781.781v7.813A.784.784,0,0,0,13.281,92.125Zm9.375,0h1.563A.784.784,0,0,0,25,91.344V71.031a.784.784,0,0,0-.781-.781H22.656a.784.784,0,0,0-.781.781V91.344A.784.784,0,0,0,22.656,92.125Zm26.563,6.25H3.125V64.781A.781.781,0,0,0,2.344,64H.781A.781.781,0,0,0,0,64.781V99.938A1.562,1.562,0,0,0,1.563,101.5H49.219a.781.781,0,0,0,.781-.781V99.156A.781.781,0,0,0,49.219,98.375Z" transform="translate(0 -64)" fill="url(#linear-gradient)"/>
</svg>
