<svg xmlns="http://www.w3.org/2000/svg" width="20" height="22.857" viewBox="0 0 20 22.857"><path d="M15.65,5.759A4.374,4.374,0,0,1,18.5,7.634a8.367,8.367,0,0,1,1.337,3.482,11.1,11.1,0,0,1-.045,3.839,12.063,12.063,0,0,1-2.14,5.312,5.783,5.783,0,0,1-4.816,2.589,3.385,3.385,0,0,1-1.561-.446,2.52,2.52,0,0,0-2.587,0,3.385,3.385,0,0,1-1.561.446,5.783,5.783,0,0,1-4.816-2.589,12.063,12.063,0,0,1-2.14-5.312,11.1,11.1,0,0,1-.045-3.839A8.367,8.367,0,0,1,1.47,7.634,4.374,4.374,0,0,1,4.323,5.759a7.449,7.449,0,0,1,2.943.312,12.361,12.361,0,0,1,2.72,1.071,12.361,12.361,0,0,1,2.72-1.071A7.454,7.454,0,0,1,15.65,5.759ZM13.2,3.929a3.775,3.775,0,0,1-1.65.848A5.209,5.209,0,0,1,9.987,5l-.669-.045a5.728,5.728,0,0,1,0-1.429,3.982,3.982,0,0,1,1.025-2.455,3.775,3.775,0,0,1,1.65-.848A5.209,5.209,0,0,1,13.554,0l.669.045.045.67a5.236,5.236,0,0,1-.223,1.562A3.774,3.774,0,0,1,13.2,3.929Z" transform="translate(0.013)"/></svg>