<svg xmlns="http://www.w3.org/2000/svg" viewBox="0 0 511.93 512"><defs><style>.cls-1,.cls-2{fill:#fc7900;}.cls-1{opacity:0.4;isolation:isolate;}</style></defs><g id="Layer_2" data-name="Layer 2"><g id="Layer_1-2" data-name="Layer 1"><path class="cls-1" d="M511.9,303C503.4,139.85,372.2,8.65,209,0A16.08,16.08,0,0,0,192,15.2c0,.28,0,.55,0,.83v31.6a15.85,15.85,0,0,0,15,15.9c129.4,7,233.4,112,240.9,241.5a16,16,0,0,0,15.9,15h32.1a16.12,16.12,0,0,0,16-16.18C511.92,303.58,511.92,303.3,511.9,303ZM209.3,96A16.13,16.13,0,0,0,192,110.94c0,.4,0,.79,0,1.19v32.1a15.94,15.94,0,0,0,14.8,15.9c76.8,6.3,138,68.2,144.9,145.2A16.08,16.08,0,0,0,367.6,320h32.2a16.19,16.19,0,0,0,16.14-16.25c0-.35,0-.7,0-1C407.5,192.65,319.4,104.55,209.3,96Z"/><path class="cls-2" d="M172.2,226.85c75.5,15,129.9,89.3,112.5,172.2-11.4,54.3-55.3,98.3-109.7,109.7C82.1,528.25,0,457.55,0,368V120A23.94,23.94,0,0,1,23.88,96H72a23.93,23.93,0,0,1,24,23.88V368a48,48,0,1,0,64.7-45c-9.6-3.6-16.7-11.8-16.7-22v-50.4c0-14.9,13.6-26.7,28.2-23.8Z"/></g></g></svg>