<svg xmlns="http://www.w3.org/2000/svg" viewBox="0 0 511.92 511.98"><defs><style>.cls-1{fill:#fc7900;}</style></defs><g id="Layer_2" data-name="Layer 2"><g id="Layer_1-2" data-name="Layer 1"><path class="cls-1" d="M172.2,226.82c-14.6-2.9-28.2,8.9-28.2,23.8V301c0,10.2,7.1,18.4,16.7,22A48,48,0,1,1,96,368V120A23.94,23.94,0,0,0,72,96H24A23.94,23.94,0,0,0,0,120V368c0,89.5,82.1,160.2,175,140.7,54.4-11.4,98.3-55.4,109.7-109.7,17.4-82.9-37-157.2-112.5-172.2ZM209,0a16.1,16.1,0,0,0-17,16v31.6a15.84,15.84,0,0,0,15,15.9c129.4,7,233.4,112,240.9,241.5a16,16,0,0,0,15.9,15h32.1a16.1,16.1,0,0,0,16-17C503.4,139.82,372.2,8.62,209,0Zm.3,96a16.13,16.13,0,0,0-17.3,16.1v32.1a15.94,15.94,0,0,0,14.8,15.9c76.8,6.3,138,68.2,144.9,145.2A16.07,16.07,0,0,0,367.6,320h32.2a16.19,16.19,0,0,0,16.1-17.3c-8.4-110.1-96.5-198.2-206.6-206.7Z"/></g></g></svg>