<svg xmlns="http://www.w3.org/2000/svg" xmlns:xlink="http://www.w3.org/1999/xlink" width="34.374" height="50" viewBox="0 0 34.374 50">
  <defs>
    <linearGradient id="linear-gradient" x1="0.5" x2="0.5" y2="1" gradientUnits="objectBoundingBox">
      <stop offset="0" stop-color="#ff61df"/>
      <stop offset="1" stop-color="#545454"/>
    </linearGradient>
  </defs>
  <path id="lightbulb-solid" d="M9.381,44.368A3.126,3.126,0,0,0,9.9,46.1L11.573,48.6A3.124,3.124,0,0,0,14.175,50H20.2A3.124,3.124,0,0,0,22.8,48.6L24.471,46.1a3.124,3.124,0,0,0,.523-1.728l0-3.745H9.376l0,3.745ZM0,17.186A17.091,17.091,0,0,0,4.254,28.493a28.064,28.064,0,0,1,5.1,8.93c0,.025.007.051.011.076H25.011c0-.025.007-.05.011-.076a28.064,28.064,0,0,1,5.1-8.93A17.184,17.184,0,1,0,0,17.186ZM17.187,9.374a7.821,7.821,0,0,0-7.812,7.812,1.562,1.562,0,0,1-3.125,0A10.949,10.949,0,0,1,17.187,6.249a1.562,1.562,0,0,1,0,3.125Z" transform="translate(0 0.001)" fill="url(#linear-gradient)"/>
</svg>
