<svg xmlns="http://www.w3.org/2000/svg" xmlns:xlink="http://www.w3.org/1999/xlink" width="50" height="40" viewBox="0 0 50 40">
  <defs>
    <linearGradient id="linear-gradient" x1="0.5" x2="0.5" y2="1" gradientUnits="objectBoundingBox">
      <stop offset="0" stop-color="#ff61df"/>
      <stop offset="1" stop-color="#545454"/>
    </linearGradient>
  </defs>
  <path id="lightbulb-on-regular_1_" data-name="lightbulb-on-regular (1)" d="M8.75,15a1.875,1.875,0,0,0-1.875-1.875h-5a1.875,1.875,0,0,0,0,3.75h5A1.875,1.875,0,0,0,8.75,15Zm-.384,7.439-4.33,2.5a1.875,1.875,0,1,0,1.875,3.247l4.33-2.5a1.875,1.875,0,1,0-1.875-3.247ZM10.241,4.314l-4.33-2.5A1.875,1.875,0,1,0,4.036,5.061l4.33,2.5a1.875,1.875,0,1,0,1.875-3.247ZM40.7,7.812a1.859,1.859,0,0,0,.938-.252l4.33-2.5A1.875,1.875,0,1,0,44.09,1.814l-4.33,2.5a1.875,1.875,0,0,0,.938,3.5Zm7.427,5.312h-5a1.875,1.875,0,0,0,0,3.75h5a1.875,1.875,0,0,0,0-3.75ZM45.964,24.94l-4.33-2.5a1.875,1.875,0,1,0-1.875,3.247l4.33,2.5a1.875,1.875,0,1,0,1.875-3.247ZM25,0A13.742,13.742,0,0,0,14.653,22.8,22.35,22.35,0,0,1,18.748,30v0H22.5v-.009a3.724,3.724,0,0,0-.166-1.1,24.659,24.659,0,0,0-4.858-8.567,10,10,0,1,1,15.053,0,24.724,24.724,0,0,0-4.851,8.552,4.436,4.436,0,0,0-.176,1.118V30h3.75a22.356,22.356,0,0,1,4.095-7.2A13.745,13.745,0,0,0,25,0Zm0,6.25a7.509,7.509,0,0,0-7.5,7.5,1.25,1.25,0,1,0,2.5,0,5.006,5.006,0,0,1,5-5,1.25,1.25,0,0,0,0-2.5ZM18.755,35.874a1.25,1.25,0,0,0,.21.691l1.914,2.877a1.25,1.25,0,0,0,1.04.558h6.16a1.25,1.25,0,0,0,1.042-.558l1.914-2.88a1.266,1.266,0,0,0,.21-.691l0-3.372H18.75Z" fill="url(#linear-gradient)"/>
</svg>
