<svg id="business-time-duotone" xmlns="http://www.w3.org/2000/svg" width="640" height="512" viewBox="0 0 640 512">
  <path id="Path_750" data-name="Path 750" d="M496,224a143.92,143.92,0,1,0,101.847,42.153A144,144,0,0,0,496,224Zm64,150.29a9.74,9.74,0,0,1-9.71,9.71H489.72a9.74,9.74,0,0,1-9.71-9.71V297.72a9.74,9.74,0,0,1,9.71-9.71h12.57a9.74,9.74,0,0,1,9.71,9.71V352h38.29a9.74,9.74,0,0,1,9.71,9.71Z" fill="#fc7900" opacity="0.4"/>
  <path id="Path_751" data-name="Path 751" d="M326.82,320H208a16,16,0,0,1-16-16V256H0V400c0,25.6,22.4,48,48,48H339.43a173.64,173.64,0,0,1-12.61-128ZM512,192.81V144c0-25.6-22.4-48-48-48H384V48c0-25.6-22.4-48-48-48H176c-25.6,0-48,22.4-48,48V96H48C22.4,96,0,118.4,0,144v80H395.12A174.92,174.92,0,0,1,496,192C501.4,192,506.72,192.33,512,192.81ZM320,96H192V64H320ZM550.29,352H512V297.72a9.74,9.74,0,0,0-9.71-9.71H489.72a9.74,9.74,0,0,0-9.71,9.71v76.57a9.74,9.74,0,0,0,9.71,9.71h60.57a9.74,9.74,0,0,0,9.71-9.71V361.71a9.74,9.74,0,0,0-9.71-9.71Z" fill="#fc7900"/>
</svg>
