<svg xmlns="http://www.w3.org/2000/svg" xmlns:xlink="http://www.w3.org/1999/xlink" width="50" height="40" viewBox="0 0 50 40">
  <defs>
    <linearGradient id="linear-gradient" x1="0.5" x2="0.5" y2="1" gradientUnits="objectBoundingBox">
      <stop offset="0" stop-color="#ff61df"/>
      <stop offset="1" stop-color="#545454"/>
    </linearGradient>
  </defs>
  <path id="business-time-regular" d="M38.75,17.5A11.25,11.25,0,1,0,50,28.75,11.244,11.244,0,0,0,38.75,17.5Zm5,11.741a.761.761,0,0,1-.759.759H38.259a.761.761,0,0,1-.759-.759V23.259a.761.761,0,0,1,.759-.759h.982a.761.761,0,0,1,.759.759V27.5h2.991a.761.761,0,0,1,.759.759ZM16.875,25h6.25A1.875,1.875,0,0,0,25,23.125V21.25h2.241A13.85,13.85,0,0,1,30.87,17.5H3.75V11.719a.469.469,0,0,1,.469-.469H35.781a.469.469,0,0,1,.469.469v3.52A13.732,13.732,0,0,1,38.75,15c.422,0,.838.026,1.25.063V11.25A3.75,3.75,0,0,0,36.25,7.5H30V3.75A3.75,3.75,0,0,0,26.25,0H13.75A3.75,3.75,0,0,0,10,3.75V7.5H3.75A3.75,3.75,0,0,0,0,11.25v20A3.75,3.75,0,0,0,3.75,35H26.518a13.639,13.639,0,0,1-1.279-3.75H4.219a.469.469,0,0,1-.469-.469V21.25H15v1.875A1.875,1.875,0,0,0,16.875,25ZM13.75,3.75h12.5V7.5H13.75Z" fill="url(#linear-gradient)"/>
</svg>
