<svg xmlns="http://www.w3.org/2000/svg" xmlns:xlink="http://www.w3.org/1999/xlink" width="37.5" height="50" viewBox="0 0 37.5 50">
  <defs>
    <linearGradient id="linear-gradient" x1="0.5" x2="0.5" y2="1" gradientUnits="objectBoundingBox">
      <stop offset="0" stop-color="#ff61df"/>
      <stop offset="1" stop-color="#545454"/>
    </linearGradient>
  </defs>
  <path id="calculator-solid" d="M32.813,0H4.688A4.8,4.8,0,0,0,0,4.688V45.313A4.8,4.8,0,0,0,4.688,50H32.813A4.8,4.8,0,0,0,37.5,45.313V4.688A4.8,4.8,0,0,0,32.813,0ZM6.25,20.313A1.567,1.567,0,0,1,7.812,18.75h3.125A1.567,1.567,0,0,1,12.5,20.313v3.125A1.567,1.567,0,0,1,10.938,25H7.812A1.567,1.567,0,0,1,6.25,23.437Zm0,9.375a1.567,1.567,0,0,1,1.562-1.562h3.125A1.567,1.567,0,0,1,12.5,29.688v3.125a1.567,1.567,0,0,1-1.562,1.563H7.812A1.567,1.567,0,0,1,6.25,32.813Zm15.625,12.5a1.567,1.567,0,0,1-1.562,1.563H7.812A1.567,1.567,0,0,1,6.25,42.187V39.063A1.567,1.567,0,0,1,7.812,37.5h12.5a1.567,1.567,0,0,1,1.563,1.563Zm0-9.375a1.567,1.567,0,0,1-1.562,1.563H17.188a1.567,1.567,0,0,1-1.563-1.562V29.688a1.567,1.567,0,0,1,1.563-1.562h3.125a1.567,1.567,0,0,1,1.563,1.563Zm0-9.375A1.567,1.567,0,0,1,20.313,25H17.188a1.567,1.567,0,0,1-1.563-1.563V20.313a1.567,1.567,0,0,1,1.563-1.562h3.125a1.567,1.567,0,0,1,1.563,1.563Zm9.375,18.75a1.567,1.567,0,0,1-1.562,1.563H26.562A1.567,1.567,0,0,1,25,42.187V39.063A1.567,1.567,0,0,1,26.562,37.5h3.125a1.567,1.567,0,0,1,1.562,1.563Zm0-9.375a1.567,1.567,0,0,1-1.562,1.563H26.562A1.567,1.567,0,0,1,25,32.813V29.688a1.567,1.567,0,0,1,1.562-1.562h3.125a1.567,1.567,0,0,1,1.562,1.563Zm0-9.375A1.567,1.567,0,0,1,29.688,25H26.562A1.567,1.567,0,0,1,25,23.437V20.313a1.567,1.567,0,0,1,1.562-1.562h3.125a1.567,1.567,0,0,1,1.562,1.563Zm0-9.375a1.567,1.567,0,0,1-1.562,1.562H7.812A1.567,1.567,0,0,1,6.25,14.063V7.812A1.567,1.567,0,0,1,7.812,6.25H29.688A1.567,1.567,0,0,1,31.25,7.812Z" fill="url(#linear-gradient)"/>
</svg>
