<svg xmlns="http://www.w3.org/2000/svg" xmlns:xlink="http://www.w3.org/1999/xlink" width="50" height="49.998" viewBox="0 0 50 49.998">
  <defs>
    <linearGradient id="linear-gradient" x1="0.5" x2="0.5" y2="1" gradientUnits="objectBoundingBox">
      <stop offset="0" stop-color="#ff61df"/>
      <stop offset="1" stop-color="#545454"/>
    </linearGradient>
  </defs>
  <path id="file-certificate-regular" d="M48.6,9.568,40.4,1.377A4.687,4.687,0,0,0,37.1,0H17.168a4.7,4.7,0,0,0-4.686,4.7v7.8h4.686V4.7H32.79V14.85a2.337,2.337,0,0,0,2.344,2.343h10.16V45.312H21.856V50h23.43a4.694,4.694,0,0,0,4.694-4.686V12.887A4.716,4.716,0,0,0,48.6,9.568ZM37.476,12.506V5.077l7.43,7.429ZM24.143,33.034a2.945,2.945,0,0,0,.74-2.811c-.53-2.017-.531-1.732,0-3.752a2.945,2.945,0,0,0-.74-2.811c-1.451-1.477-1.311-1.231-1.843-3.249a2.883,2.883,0,0,0-2.022-2.058c-1.98-.54-1.742-.4-3.192-1.876a2.825,2.825,0,0,0-2.763-.753c-1.984.541-1.705.54-3.686,0a2.826,2.826,0,0,0-2.762.753c-1.456,1.482-1.221,1.338-3.192,1.876A2.886,2.886,0,0,0,2.661,20.41c-.533,2.025-.391,1.77-1.843,3.249a2.945,2.945,0,0,0-.74,2.811c.532,2.022.529,1.737,0,3.752a2.945,2.945,0,0,0,.74,2.811c1.45,1.476,1.311,1.231,1.843,3.249A2.883,2.883,0,0,0,4.683,38.34a5.849,5.849,0,0,1,1.547.488V50l6.25-3.125L18.73,50V38.829a5.859,5.859,0,0,1,1.547-.488A2.886,2.886,0,0,0,22.3,36.283c.535-2.026.393-1.771,1.845-3.249Zm-11.662,1.34a6.25,6.25,0,1,1,6.25-6.25A6.25,6.25,0,0,1,12.482,34.374Z" transform="translate(0.02)" fill="url(#linear-gradient)"/>
</svg>
