<svg xmlns="http://www.w3.org/2000/svg" xmlns:xlink="http://www.w3.org/1999/xlink" width="50" height="47.059" viewBox="0 0 50 47.059">
  <defs>
    <linearGradient id="linear-gradient" x1="0.5" x2="0.5" y2="1" gradientUnits="objectBoundingBox">
      <stop offset="0" stop-color="#ff61df"/>
      <stop offset="1" stop-color="#545454"/>
    </linearGradient>
  </defs>
  <path id="chart-pie-regular" d="M47.053,20.515A22.111,22.111,0,0,0,26.542,0c-.032,0-.064,0-.1,0A1.484,1.484,0,0,0,25,1.492V22.059H45.565a1.478,1.478,0,0,0,1.488-1.544ZM29.41,17.647V4.918A17.8,17.8,0,0,1,42.139,17.647Zm-8.823,8.823V4.662a1.484,1.484,0,0,0-1.447-1.49,1.386,1.386,0,0,0-.194.014A22.041,22.041,0,0,0,.011,25.769,22.338,22.338,0,0,0,22.068,47.059l.267,0A21.887,21.887,0,0,0,34.767,43.01a1.46,1.46,0,0,0,.144-2.213Zm1.695,16.175h-.212A18.012,18.012,0,0,1,4.421,25.619,17.6,17.6,0,0,1,16.174,8.377V28.3l1.292,1.292,11.6,11.6A17.5,17.5,0,0,1,22.281,42.646ZM48.508,26.471H26.7L41.223,41a1.514,1.514,0,0,0,1.068.442,1.408,1.408,0,0,0,.972-.38,22.012,22.012,0,0,0,6.721-12.947,1.473,1.473,0,0,0-1.476-1.641Z" transform="translate(0.002)" fill="url(#linear-gradient)"/>
</svg>
