<svg xmlns="http://www.w3.org/2000/svg" xmlns:xlink="http://www.w3.org/1999/xlink" width="50" height="40" viewBox="0 0 50 40">
  <defs>
    <linearGradient id="linear-gradient" x1="0.5" x2="0.5" y2="1" gradientUnits="objectBoundingBox">
      <stop offset="0" stop-color="#ff61df"/>
      <stop offset="1" stop-color="#545454"/>
    </linearGradient>
  </defs>
  <path id="chart-user-solid" d="M25.633,13.047a1.878,1.878,0,0,0-2.655,0L21.9,14.2a9.828,9.828,0,0,1,.6,3.3,10.325,10.325,0,0,1-.156,1.563l2.031-2.031,4.3,4.3a1.878,1.878,0,0,0,2.655,0L36.953,15.7,38.848,17.6a1.407,1.407,0,0,0,2.4-1V9.688a.938.938,0,0,0-.937-.937H33.4a1.406,1.406,0,0,0-1,2.4L34.3,13.047l-4.3,4.3ZM12.5,25a7.5,7.5,0,0,0,0-15,7.5,7.5,0,0,0,0,15ZM46.25,0h-30A3.817,3.817,0,0,0,12.5,3.877V7.5a9.887,9.887,0,0,1,5,1.391V5H45V27.5H22.445a12.525,12.525,0,0,1,3.966,5H46.247A3.815,3.815,0,0,0,50,28.625V3.877A3.817,3.817,0,0,0,46.25,0ZM15,27.5H10a10,10,0,0,0-10,10A2.5,2.5,0,0,0,2.5,40h20A2.5,2.5,0,0,0,25,37.5,10,10,0,0,0,15,27.5Z" fill="url(#linear-gradient)"/>
</svg>
