<svg xmlns="http://www.w3.org/2000/svg" width="640.007" height="511.426" viewBox="0 0 640.007 511.426">
  <g id="chart-network-duotone" transform="translate(0 -0.314)">
    <path id="Path_756" data-name="Path 756" d="M64,240a64,64,0,1,0,64,64A64,64,0,0,0,64,240Zm88,80h48V288H152ZM446.4,213.2l19.2,25.6,48-36-19.2-25.6ZM576,64a64,64,0,1,0,64,64A64,64,0,0,0,576,64Z" fill="#fc7900" opacity="0.4"/>
    <path id="Path_757" data-name="Path 757" d="M576,384a63.84,63.84,0,0,0-38.3,13l-96-57.6a109.91,109.91,0,0,0,6.3-35.5,111.94,111.94,0,0,0-112-112,108.64,108.64,0,0,0-24.4,2.9l-40.8-87.4A63.84,63.84,0,1,0,224,128c1.1,0,2.1-.3,3.2-.3l41,87.8C241.5,235.9,224,267.8,224,304a111.71,111.71,0,0,0,193.2,76.7L513,438.2A63.87,63.87,0,1,0,576,384ZM336,352a48,48,0,1,1,48-48A48,48,0,0,1,336,352Z" fill="#fc7900"/>
  </g>
</svg>
