<svg xmlns="http://www.w3.org/2000/svg" xmlns:xlink="http://www.w3.org/1999/xlink" width="50" height="39.992" viewBox="0 0 50 39.992">
  <defs>
    <linearGradient id="linear-gradient" x1="0.5" x2="0.5" y2="1" gradientUnits="objectBoundingBox">
      <stop offset="0" stop-color="#ff61df"/>
      <stop offset="1" stop-color="#545454"/>
    </linearGradient>
  </defs>
  <path id="chart-network-regular" d="M44.375,28.842a5.6,5.6,0,0,0-3.844,1.539l-6.109-3.492a8.681,8.681,0,0,0-8.172-11.8,8.487,8.487,0,0,0-1.906.227L21.828,9.928a5.6,5.6,0,1,0-3.7,1.422,1.935,1.935,0,0,0,.211-.023l2.617,5.6A8.728,8.728,0,1,0,32.406,30.053l6.422,3.672a5.826,5.826,0,0,0-.078.742,5.625,5.625,0,1,0,5.625-5.625ZM18.125,7.592A1.875,1.875,0,1,1,20,5.717,1.881,1.881,0,0,1,18.125,7.592Zm8.125,21.25a5,5,0,1,1,5-5A5,5,0,0,1,26.25,28.842Zm18.125,7.5a1.875,1.875,0,1,1,1.875-1.875A1.881,1.881,0,0,1,44.375,36.342Zm-4.25-20.406-1.5-2-3.75,2.812,1.5,2ZM45,15.092a5,5,0,1,0-5-5A5,5,0,0,0,45,15.092Zm-33.125,10h3.75v-2.5h-3.75ZM5,18.842a5,5,0,1,0,5,5A5,5,0,0,0,5,18.842Z" transform="translate(0 -0.1)" fill="url(#linear-gradient)"/>
</svg>
