<svg xmlns="http://www.w3.org/2000/svg" width="15" height="15" viewBox="0 0 15 15"><defs><style>.a{fill:#00f0ff;}</style></defs><path class="a" d="M13.393,47H1.607A1.607,1.607,0,0,1,0,45.393V33.607A1.607,1.607,0,0,1,1.607,32H13.393A1.607,1.607,0,0,1,15,33.607V45.393A1.607,1.607,0,0,1,13.393,47ZM6.54,43.717,12.7,37.556a.536.536,0,0,0,0-.758l-.758-.758a.536.536,0,0,0-.758,0L6.161,41.065,3.815,38.719a.536.536,0,0,0-.758,0l-.758.758a.536.536,0,0,0,0,.758l3.482,3.482a.536.536,0,0,0,.758,0Z" transform="translate(0 -32)"/></svg>