<svg xmlns="http://www.w3.org/2000/svg" xmlns:xlink="http://www.w3.org/1999/xlink" width="25" height="25" viewBox="0 0 25 25">
  <defs>
    <clipPath id="clip-path">
      <circle id="Ellipse_292" data-name="Ellipse 292" cx="12.5" cy="12.5" r="12.5"/>
    </clipPath>
    <linearGradient id="linear-gradient" x1="0.045" y1="0.621" x2="0.369" y2="0.337" gradientUnits="objectBoundingBox">
      <stop offset="0" stop-color="#a52714" stop-opacity="0.6"/>
      <stop offset="0.66" stop-color="#a52714" stop-opacity="0"/>
    </linearGradient>
    <linearGradient id="linear-gradient-2" x1="0.839" y1="0.878" x2="0.363" y2="0.663" gradientUnits="objectBoundingBox">
      <stop offset="0" stop-color="#055524" stop-opacity="0.4"/>
      <stop offset="0.33" stop-color="#055524" stop-opacity="0"/>
    </linearGradient>
    <clipPath id="clip-path-2">
      <path id="Path_1660" data-name="Path 1660" d="M8,47.139H19.9l5.523-5.523V37.48H15.578L8,24.48Z" transform="translate(-8 -24.48)"/>
    </clipPath>
    <linearGradient id="linear-gradient-3" x1="0.327" y1="-0.048" x2="0.486" y2="0.454" gradientUnits="objectBoundingBox">
      <stop offset="0" stop-color="#ea6100" stop-opacity="0.302"/>
      <stop offset="0.66" stop-color="#ea6100" stop-opacity="0"/>
    </linearGradient>
    <clipPath id="clip-path-3">
      <path id="Path_1665" data-name="Path 1665" d="M92.371,56l4.922,8.523L91.77,74.182h13.1V56Z" transform="translate(-91.77 -56)"/>
    </clipPath>
    <radialGradient id="radial-gradient" cx="-0.048" cy="-0.002" r="4.013" gradientUnits="objectBoundingBox">
      <stop offset="0" stop-color="#3e2723" stop-opacity="0.2"/>
      <stop offset="1" stop-color="#3e2723" stop-opacity="0"/>
    </radialGradient>
    <clipPath id="clip-path-6">
      <path id="Path_1669" data-name="Path 1669" d="M21.97,8v5.73l5.6,9.611,4.92-8.523h12.5V8Z" transform="translate(-21.97 -8)"/>
    </clipPath>
    <radialGradient id="radial-gradient-2" cx="-0.001" cy="0.001" r="1.155" xlink:href="#radial-gradient"/>
    <radialGradient id="radial-gradient-3" cx="0.102" cy="-0.122" r="1.124" gradientUnits="objectBoundingBox">
      <stop offset="0" stop-color="#263238" stop-opacity="0.2"/>
      <stop offset="1" stop-color="#263238" stop-opacity="0"/>
    </radialGradient>
  </defs>
  <g id="Google_Chrome_icon__September_2014_" data-name="Google_Chrome_icon_(September_2014)" transform="translate(-1 -1)">
    <g id="Group_5250" data-name="Group 5250" transform="translate(1 1)" clip-path="url(#clip-path)">
      <path id="Path_1652" data-name="Path 1652" d="M21.97,8V23.341h5.6l4.919-8.523h12.5V8Z" transform="translate(-19.986 -8)" fill="#db4437"/>
      <path id="Path_1653" data-name="Path 1653" d="M21.97,8V23.341h5.6l4.919-8.523h12.5V8Z" transform="translate(-19.986 -8)" fill="url(#linear-gradient)"/>
      <path id="Path_1654" data-name="Path 1654" d="M27.639,57l-5.656-9.7-.082.142,5.616,9.631Z" transform="translate(-19.926 -41.718)" fill="rgba(62,39,35,0.15)"/>
      <path id="Path_1655" data-name="Path 1655" d="M8,47.139H19.9l5.523-5.523V37.48H15.578L8,24.48Z" transform="translate(-8 -22.139)" fill="#0f9d58"/>
      <path id="Path_1656" data-name="Path 1656" d="M8,47.139H19.9l5.523-5.523V37.48H15.578L8,24.48Z" transform="translate(-8 -22.139)" fill="url(#linear-gradient-2)"/>
      <path id="Path_1657" data-name="Path 1657" d="M96.142,116.888l-.118-.068-5.455,9.538h.163l5.412-9.466Z" transform="translate(-78.841 -101.363)" fill="rgba(38,50,56,0.15)"/>
      <g id="Group_5248" data-name="Group 5248" transform="translate(0 2.341)" clip-path="url(#clip-path-2)">
        <path id="Path_1658" data-name="Path 1658" d="M92.371,56l4.922,8.523L91.77,74.182h13.1V56Z" transform="translate(-79.871 -51.523)" fill="#ffcd40"/>
        <path id="Path_1659" data-name="Path 1659" d="M92.371,56l4.922,8.523L91.77,74.182h13.1V56Z" transform="translate(-79.871 -51.523)" fill="url(#linear-gradient-3)"/>
      </g>
      <path id="Path_1661" data-name="Path 1661" d="M92.371,56l4.922,8.523L91.77,74.182h13.1V56Z" transform="translate(-79.871 -49.182)" fill="#ffcd40"/>
      <path id="Path_1662" data-name="Path 1662" d="M92.371,56l4.922,8.523L91.77,74.182h13.1V56Z" transform="translate(-79.871 -49.182)" fill="url(#linear-gradient-3)"/>
      <g id="Group_5249" data-name="Group 5249" transform="translate(11.899 6.818)" clip-path="url(#clip-path-3)">
        <path id="Path_1663" data-name="Path 1663" d="M21.97,8V23.341h5.6l4.919-8.523h12.5V8Z" transform="translate(-31.885 -14.818)" fill="#db4437"/>
        <path id="Path_1664" data-name="Path 1664" d="M21.97,8V23.341h5.6l4.919-8.523h12.5V8Z" transform="translate(-31.885 -14.818)" fill="url(#linear-gradient)"/>
      </g>
    </g>
    <g id="Group_5254" data-name="Group 5254" transform="translate(1 1)">
      <g id="Group_5251" data-name="Group 5251" clip-path="url(#clip-path)">
        <path id="Path_1666" data-name="Path 1666" d="M96,56v2.976L107.136,56Z" transform="translate(-83.5 -49.182)" fill="url(#radial-gradient)"/>
      </g>
      <g id="Group_5253" data-name="Group 5253" clip-path="url(#clip-path)">
        <g id="Group_5252" data-name="Group 5252" transform="translate(1.984)" clip-path="url(#clip-path-6)">
          <path id="Path_1667" data-name="Path 1667" d="M8,47.139H19.9l5.523-5.523V37.48H15.578L8,24.48Z" transform="translate(-9.984 -22.139)" fill="#0f9d58"/>
          <path id="Path_1668" data-name="Path 1668" d="M8,47.139H19.9l5.523-5.523V37.48H15.578L8,24.48Z" transform="translate(-9.984 -22.139)" fill="url(#linear-gradient-2)"/>
        </g>
      </g>
    </g>
    <g id="Group_5255" data-name="Group 5255" transform="translate(1 1)" clip-path="url(#clip-path)">
      <path id="Path_1670" data-name="Path 1670" d="M21.97,48.45,30.1,56.581l-2.537,1.464Z" transform="translate(-19.986 -42.704)" fill="url(#radial-gradient-2)"/>
    </g>
    <g id="Group_5258" data-name="Group 5258" transform="translate(1 1)">
      <g id="Group_5256" data-name="Group 5256" clip-path="url(#clip-path)">
        <path id="Path_1671" data-name="Path 1671" d="M91.83,116.808,94.807,105.7l2.537,1.463Z" transform="translate(-79.922 -91.822)" fill="url(#radial-gradient-3)"/>
      </g>
      <g id="Group_5257" data-name="Group 5257" clip-path="url(#clip-path)">
        <circle id="Ellipse_297" data-name="Ellipse 297" cx="5.682" cy="5.682" r="5.682" transform="translate(6.818 6.818)" fill="#f1f1f1"/>
        <circle id="Ellipse_298" data-name="Ellipse 298" cx="4.545" cy="4.545" r="4.545" transform="translate(7.955 7.955)" fill="#4285f4"/>
        <path id="Path_1672" data-name="Path 1672" d="M61.682,55A5.68,5.68,0,0,0,56,60.682v.142a5.68,5.68,0,0,1,5.682-5.682h12.5V55Z" transform="translate(-49.182 -48.324)" fill="rgba(62,39,35,0.2)"/>
        <path id="Path_1673" data-name="Path 1673" d="M25.415,37.48a5.672,5.672,0,0,1-9.83,0H15.58L8,24.48v.142l7.585,13a5.672,5.672,0,0,0,9.83,0h.007V37.48h-.009Z" transform="translate(-8 -22.139)" fill="rgba(255,255,255,0.1)"/>
        <path id="Path_1674" data-name="Path 1674" d="M96.571,56c-.024,0-.047,0-.071,0a5.678,5.678,0,0,1,0,11.355c.024,0,.047,0,.071,0a5.682,5.682,0,0,0,0-11.364Z" transform="translate(-83.929 -49.182)" fill="#3e2723" opacity="0.1"/>
        <path id="Path_1675" data-name="Path 1675" d="M97.342,89.8a5.663,5.663,0,0,0,.5-4.553,5.619,5.619,0,0,1-.55,4.359l0,.006L91.77,99.274h.165Z" transform="translate(-79.871 -74.277)" fill="rgba(255,255,255,0.2)"/>
        <path id="Path_1676" data-name="Path 1676" d="M20.5,8.142A12.5,12.5,0,0,1,33,20.571c0-.024,0-.047,0-.071a12.5,12.5,0,0,0-25,0c0,.024,0,.047,0,.071A12.5,12.5,0,0,1,20.5,8.142Z" transform="translate(-8 -8)" fill="rgba(255,255,255,0.2)"/>
        <path id="Path_1677" data-name="Path 1677" d="M20.5,107.929A12.5,12.5,0,0,0,33,95.5c0,.024,0,.047,0,.071a12.5,12.5,0,0,1-25,0c0-.024,0-.047,0-.071a12.5,12.5,0,0,0,12.5,12.429Z" transform="translate(-8 -83.071)" fill="rgba(62,39,35,0.15)"/>
      </g>
    </g>
  </g>
</svg>
