<svg xmlns="http://www.w3.org/2000/svg" xmlns:xlink="http://www.w3.org/1999/xlink" width="50" height="38.889" viewBox="0 0 50 38.889">
  <defs>
    <linearGradient id="linear-gradient" x1="0.5" x2="0.5" y2="1" gradientUnits="objectBoundingBox">
      <stop offset="0" stop-color="#ff61df"/>
      <stop offset="1" stop-color="#545454"/>
    </linearGradient>
  </defs>
  <path id="comments-dollar-regular" d="M46.179,62.744A11.969,11.969,0,0,0,50,54.222c0-6.946-6.636-12.685-15.293-13.71C31.972,35.512,25.546,32,18.053,32,8.081,32,0,38.219,0,45.889A11.969,11.969,0,0,0,3.816,54.41,22.633,22.633,0,0,1,.544,59.175,2,2,0,0,0,2,62.555a19.977,19.977,0,0,0,10.865-3.366,23.17,23.17,0,0,0,2.463.424c2.735,4.989,9.132,8.5,16.615,8.5a23.075,23.075,0,0,0,5.188-.589A19.977,19.977,0,0,0,48,70.889a2,2,0,0,0,1.455-3.381A22.665,22.665,0,0,1,46.179,62.744ZM13.8,55.129l-1.725-.4-1.484.965a17.4,17.4,0,0,1-3.741,1.858q.368-.633.694-1.288l1.345-2.7-2.148-2.12a7.951,7.951,0,0,1-2.579-5.557c0-5.27,6.36-9.722,13.889-9.722s13.889,4.452,13.889,9.722-6.36,9.722-13.889,9.722a18.974,18.974,0,0,1-4.252-.482Zm29.45,4.649L41.1,61.9l1.345,2.7c.222.447.457.878.694,1.288A17.4,17.4,0,0,1,39.4,64.03l-1.484-.965-1.725.4a18.973,18.973,0,0,1-4.252.482,16.14,16.14,0,0,1-11.4-4.314c8.79-.935,15.564-6.722,15.564-13.741,0-.293-.034-.578-.056-.865,5.586,1.255,9.779,4.932,9.779,9.2A7.947,7.947,0,0,1,43.252,59.779Zm-23-14.733-3.662-.993a.784.784,0,0,1-.615-.72.821.821,0,0,1,.873-.755H19.13a2.162,2.162,0,0,1,1.022.256.658.658,0,0,0,.8-.1L22,41.625a.644.644,0,0,0-.1-.971,4.895,4.895,0,0,0-2.461-.826v-.883a.694.694,0,0,0-.694-.694H17.359a.694.694,0,0,0-.694.694v.89a3.5,3.5,0,0,0-.806,6.9l3.662.993a.784.784,0,0,1,.615.72.821.821,0,0,1-.873.755H16.977a2.162,2.162,0,0,1-1.022-.256.657.657,0,0,0-.8.1l-1.048,1.105a.644.644,0,0,0,.1.971,4.895,4.895,0,0,0,2.461.826v.883a.694.694,0,0,0,.694.694h1.389a.694.694,0,0,0,.694-.694v-.89a3.5,3.5,0,0,0,.806-6.9Z" transform="translate(0.002 -32)" fill="url(#linear-gradient)"/>
</svg>
