<svg xmlns="http://www.w3.org/2000/svg" xmlns:xlink="http://www.w3.org/1999/xlink" width="50" height="43.75" viewBox="0 0 50 43.75">
  <defs>
    <linearGradient id="linear-gradient" x1="0.5" x2="0.5" y2="1" gradientUnits="objectBoundingBox">
      <stop offset="0" stop-color="#ff61df"/>
      <stop offset="1" stop-color="#545454"/>
    </linearGradient>
  </defs>
  <path id="list-ol-regular_1_" data-name="list-ol-regular (1)" d="M6.032,68.035l1.709-1.968a1.945,1.945,0,0,0,.5-1.386v-.323A.99.99,0,0,0,7.129,63.25H1.563a.781.781,0,0,0-.781.781v1.563a.781.781,0,0,0,.781.781h2.23a15.121,15.121,0,0,0-1.074,1.2l-.548.684A1.3,1.3,0,0,0,1.9,69.714L2,69.9a1.189,1.189,0,0,0,1.2.77h.462c1.009,0,1.557.238,1.557.888,0,.461-.41.8-1.4.8a4.057,4.057,0,0,1-1.511-.3c-.634-.379-1.146-.342-1.523.3l-.546.909a1.051,1.051,0,0,0,.256,1.557A7.015,7.015,0,0,0,4.1,75.75c3.336,0,4.736-2.222,4.736-4.309A3.531,3.531,0,0,0,6.032,68.035Zm42.405-.879H17.188a1.562,1.562,0,0,0-1.562,1.563v1.563a1.563,1.563,0,0,0,1.563,1.563h31.25A1.562,1.562,0,0,0,50,70.281V68.719A1.562,1.562,0,0,0,48.438,67.156Zm0-31.25H17.188a1.562,1.562,0,0,0-1.562,1.563v1.563a1.563,1.563,0,0,0,1.563,1.563h31.25A1.562,1.562,0,0,0,50,39.031V37.469A1.562,1.562,0,0,0,48.438,35.906Zm0,15.625H17.188a1.562,1.562,0,0,0-1.562,1.563v1.563a1.563,1.563,0,0,0,1.563,1.563h31.25A1.562,1.562,0,0,0,50,54.656V53.094A1.562,1.562,0,0,0,48.438,51.531ZM1.563,44.5h6.25a.781.781,0,0,0,.781-.781V42.156a.781.781,0,0,0-.781-.781H6.25V32.781A.781.781,0,0,0,5.469,32H3.125a.781.781,0,0,0-.7.432l-.781,1.563a.781.781,0,0,0,.7,1.131h.781v6.25H1.563a.781.781,0,0,0-.781.781v1.563A.781.781,0,0,0,1.563,44.5ZM1.182,60.125H7.813a.781.781,0,0,0,.781-.781V57.781A.781.781,0,0,0,7.813,57H4.036c.32-1,4.72-1.824,4.72-5.512,0-2.838-2.441-3.863-4.343-3.863a4.732,4.732,0,0,0-3.95,1.831.965.965,0,0,0,.272,1.5l.838.672c.548.445,1.074.241,1.575-.238a1.309,1.309,0,0,1,.923-.375.832.832,0,0,1,.906.854C4.98,53.112,0,54,0,58.62v.391A1.069,1.069,0,0,0,1.182,60.125Z" transform="translate(0 -32)" fill="url(#linear-gradient)"/>
</svg>
