<svg xmlns="http://www.w3.org/2000/svg" xmlns:xlink="http://www.w3.org/1999/xlink" width="50" height="50" viewBox="0 0 50 50">
  <defs>
    <linearGradient id="linear-gradient" x1="0.5" x2="0.5" y2="1" gradientUnits="objectBoundingBox">
      <stop offset="0" stop-color="#ff61df"/>
      <stop offset="1" stop-color="#545454"/>
    </linearGradient>
  </defs>
  <path id="crosshairs-regular" d="M48.828,22.656H45.963a21.1,21.1,0,0,0-18.62-18.62V1.172A1.172,1.172,0,0,0,26.172,0H23.828a1.172,1.172,0,0,0-1.172,1.172V4.037a21.1,21.1,0,0,0-18.62,18.62H1.172A1.172,1.172,0,0,0,0,23.828v2.344a1.172,1.172,0,0,0,1.172,1.172H4.037a21.1,21.1,0,0,0,18.62,18.62v2.865A1.172,1.172,0,0,0,23.828,50h2.344a1.172,1.172,0,0,0,1.172-1.172V45.963a21.1,21.1,0,0,0,18.62-18.62h2.865A1.172,1.172,0,0,0,50,26.172V23.828A1.172,1.172,0,0,0,48.828,22.656ZM27.344,41.24V37.109a1.172,1.172,0,0,0-1.172-1.172H23.828a1.172,1.172,0,0,0-1.172,1.172V41.24a16.409,16.409,0,0,1-13.9-13.9h4.131a1.172,1.172,0,0,0,1.172-1.172V23.828a1.172,1.172,0,0,0-1.172-1.172H8.76a16.409,16.409,0,0,1,13.9-13.9v4.131a1.172,1.172,0,0,0,1.172,1.172h2.344a1.172,1.172,0,0,0,1.172-1.172V8.76a16.409,16.409,0,0,1,13.9,13.9H37.109a1.172,1.172,0,0,0-1.172,1.172v2.344a1.172,1.172,0,0,0,1.172,1.172H41.24A16.409,16.409,0,0,1,27.344,41.24ZM28.125,25A3.125,3.125,0,1,1,25,21.875,3.125,3.125,0,0,1,28.125,25Z" fill="url(#linear-gradient)"/>
</svg>
