<svg xmlns="http://www.w3.org/2000/svg" xmlns:xlink="http://www.w3.org/1999/xlink" width="50" height="43.755" viewBox="0 0 50 43.755">
  <defs>
    <linearGradient id="linear-gradient" x1="0.5" x2="0.5" y2="1" gradientUnits="objectBoundingBox">
      <stop offset="0" stop-color="#ff61df"/>
      <stop offset="1" stop-color="#545454"/>
    </linearGradient>
  </defs>
  <path id="cubes-regular" d="M37.5,49.858v-11a3.515,3.515,0,0,0-2.285-3.291L26.23,32.2a3.474,3.474,0,0,0-2.471,0l-8.984,3.369a3.515,3.515,0,0,0-2.285,3.291v11L2.285,53.7A3.505,3.505,0,0,0,0,56.987V67.4a3.519,3.519,0,0,0,1.943,3.145l9.629,4.814a3.5,3.5,0,0,0,3.145,0L25,70.22l10.283,5.137a3.5,3.5,0,0,0,3.145,0l9.629-4.814A3.519,3.519,0,0,0,50,67.4V56.987A3.515,3.515,0,0,0,47.715,53.7Zm-11.328,3.4V43.7l8.984-3.1v9.531ZM14.844,38.052,25,34.243l10.156,3.809v.02L25,41.645,14.844,38.061Zm0,2.549,8.984,3.1v9.561l-8.984-3.125Zm-2.93,32.168L2.461,68.042V58.931l9.453,3.838ZM2.461,56.274v-.02l10.684-4L23.7,56.206v.117L13.145,60.61,2.461,56.274Zm11.914,6.494L23.7,58.979V68.11l-9.326,4.668Zm21.25,10L26.3,68.11V58.989l9.326,3.789Zm11.914-4.727-9.453,4.727v-10l9.453-3.838Zm0-11.768L36.855,60.61,26.3,56.323v-.117l10.557-3.955,10.684,4Z" transform="translate(0 -31.975)" fill="url(#linear-gradient)"/>
</svg>
