<svg xmlns="http://www.w3.org/2000/svg" xmlns:xlink="http://www.w3.org/1999/xlink" width="35" height="40" viewBox="0 0 35 40">
  <defs>
    <linearGradient id="linear-gradient" x1="0.5" x2="0.5" y2="1" gradientUnits="objectBoundingBox">
      <stop offset="0" stop-color="#ff61df"/>
      <stop offset="1" stop-color="#00f0ff"/>
    </linearGradient>
  </defs>
  <path id="user-tie-solid_1_" data-name="user-tie-solid (1)" d="M17.5,20a10,10,0,1,1,10-10A10,10,0,0,1,17.5,20Zm-1.164,8.063-1.453-2.422a1.248,1.248,0,0,1,1.07-1.891h3.086a1.249,1.249,0,0,1,1.07,1.891l-1.453,2.422,2.609,9.68,2.812-11.477a1.156,1.156,0,0,1,1.4-.883A12.6,12.6,0,0,1,35,37.6,2.4,2.4,0,0,1,32.6,40H22.3a1.231,1.231,0,0,1-.453-.086l.023.086h-8.75l.023-.086A1.262,1.262,0,0,1,12.7,40H2.4A2.4,2.4,0,0,1,0,37.6,12.6,12.6,0,0,1,9.523,25.383a1.168,1.168,0,0,1,1.4.883l2.812,11.477,2.609-9.68Z" fill="url(#linear-gradient)"/>
</svg>
