<svg xmlns="http://www.w3.org/2000/svg" xmlns:xlink="http://www.w3.org/1999/xlink" width="50" height="32.5" viewBox="0 0 50 32.5">
  <defs>
    <linearGradient id="linear-gradient" x1="0.5" x2="0.5" y2="1" gradientUnits="objectBoundingBox">
      <stop offset="0" stop-color="#ff61df"/>
      <stop offset="1" stop-color="#00f0ff"/>
    </linearGradient>
  </defs>
  <path id="envelope-circle-check-solid" d="M3.75,64A3.75,3.75,0,0,0,1.5,70.75l17,12.75a2.508,2.508,0,0,0,3,0l4.484-3.359a13.764,13.764,0,0,1,11.43-8.578L38.5,70.75A3.75,3.75,0,0,0,36.25,64ZM23,85.5a4.992,4.992,0,0,1-6,0L0,72.75V89a5,5,0,0,0,5,5H28.141A13.708,13.708,0,0,1,25,85.25c0-.437.023-.867.063-1.3Zm27-.25A11.25,11.25,0,1,0,38.75,96.5,11.25,11.25,0,0,0,50,85.25Zm-5.992-3.383a1.254,1.254,0,0,1,0,1.766l-5.625,5.625a1.254,1.254,0,0,1-1.766,0l-3.125-3.125a1.248,1.248,0,0,1,1.766-1.766L37.5,86.609l4.742-4.742A1.254,1.254,0,0,1,44.008,81.867Z" transform="translate(0 -64)" fill="url(#linear-gradient)"/>
</svg>
