<svg xmlns="http://www.w3.org/2000/svg" width="30" height="26.667" viewBox="0 0 30 26.667">
  <path id="exclamation-triangle-solid_1_" data-name="exclamation-triangle-solid (1)" d="M29.662,22.917A2.5,2.5,0,0,1,27.5,26.667H2.5A2.5,2.5,0,0,1,.337,22.917l12.5-21.668a2.5,2.5,0,0,1,4.331,0l12.5,21.668ZM15,18.437a2.4,2.4,0,1,0,2.4,2.4A2.4,2.4,0,0,0,15,18.437ZM12.725,9.826l.386,7.083a.625.625,0,0,0,.624.591h2.528a.625.625,0,0,0,.624-.591l.386-7.083a.625.625,0,0,0-.624-.659h-3.3a.625.625,0,0,0-.624.659Z" transform="translate(0)" fill="#e34850"/>
</svg>
