<svg xmlns="http://www.w3.org/2000/svg" width="12" height="10.667" viewBox="0 0 12 10.667"><defs><style>.a{fill:#fff;}</style></defs><path class="a" d="M12,.5V3.166a.5.5,0,0,1-.854.354L10.4,2.776,5.329,7.849a.5.5,0,0,1-.707,0l-.471-.471a.5.5,0,0,1,0-.707L9.224,1.6,8.48.854A.5.5,0,0,1,8.834,0H11.5A.5.5,0,0,1,12,.5ZM8.48,5.642l-.333.333A.5.5,0,0,0,8,6.328v3H1.333V2.667h5.5a.5.5,0,0,0,.354-.146l.333-.333a.5.5,0,0,0-.354-.854H1a1,1,0,0,0-1,1V9.667a1,1,0,0,0,1,1H8.333a1,1,0,0,0,1-1V6A.5.5,0,0,0,8.48,5.642Z"/></svg>