<svg xmlns="http://www.w3.org/2000/svg" xmlns:xlink="http://www.w3.org/1999/xlink" width="50" height="33.333" viewBox="0 0 50 33.333">
  <defs>
    <linearGradient id="linear-gradient" x1="0.5" x2="0.5" y2="1" gradientUnits="objectBoundingBox">
      <stop offset="0" stop-color="#ff61df"/>
      <stop offset="1" stop-color="#545454"/>
    </linearGradient>
  </defs>
  <path id="eye-solid" d="M49.7,79.4A27.842,27.842,0,0,0,25,64,27.846,27.846,0,0,0,.3,79.4a2.808,2.808,0,0,0,0,2.534A27.842,27.842,0,0,0,25,97.333a27.846,27.846,0,0,0,24.7-15.4,2.808,2.808,0,0,0,0-2.534ZM25,93.167a12.5,12.5,0,1,1,12.5-12.5A12.5,12.5,0,0,1,25,93.167Zm0-20.833a8.273,8.273,0,0,0-2.2.329A4.154,4.154,0,0,1,17,78.47a8.314,8.314,0,1,0,8-6.136Z" transform="translate(-0.001 -64)" fill="url(#linear-gradient)"/>
</svg>
