<svg xmlns="http://www.w3.org/2000/svg" xmlns:xlink="http://www.w3.org/1999/xlink" width="50" height="38.889" viewBox="0 0 50 38.889">
  <defs>
    <linearGradient id="linear-gradient" x1="0.5" x2="0.5" y2="1" gradientUnits="objectBoundingBox">
      <stop offset="0" stop-color="#ff61df"/>
      <stop offset="1" stop-color="#545454"/>
    </linearGradient>
  </defs>
  <path id="tachometer-alt-fastest-regular" d="M34.722,50.056a2.778,2.778,0,1,0-2.778-2.778A2.778,2.778,0,0,0,34.722,50.056ZM11.111,54.222A2.778,2.778,0,1,0,13.889,57,2.778,2.778,0,0,0,11.111,54.222ZM25,45.889a2.778,2.778,0,1,0-2.778-2.778A2.778,2.778,0,0,0,25,45.889Zm13.479,9.069-8.843,1.769a5.54,5.54,0,0,0-9.421,5.829h9.57a5.684,5.684,0,0,0,.623-1.735l8.89-1.778a2.083,2.083,0,0,0-.819-4.085ZM15.278,44.5a2.778,2.778,0,1,0,2.778,2.778A2.778,2.778,0,0,0,15.278,44.5ZM25,32A25,25,0,0,0,3.391,69.569a2.747,2.747,0,0,0,2.382,1.319H44.227a2.747,2.747,0,0,0,2.382-1.319A25,25,0,0,0,25,32ZM43.426,66.722H6.574a20.833,20.833,0,1,1,36.852,0Z" transform="translate(0 -32)" fill="url(#linear-gradient)"/>
</svg>
