<svg xmlns="http://www.w3.org/2000/svg" width="25" height="21.094" viewBox="0 0 25 21.094">
  <path id="list-check-solid" d="M7.427,32.3a1.173,1.173,0,0,1,.083,1.655L4,37.861a1,1,0,0,1-.84.342.916.916,0,0,1-.859-.342L.343,35.908a1.121,1.121,0,0,1,0-1.615,1.172,1.172,0,0,1,1.657,0l1.08,1.078,2.691-2.986A1.172,1.172,0,0,1,7.427,32.3Zm0,7.814a1.173,1.173,0,0,1,.083,1.655L4,45.674a1,1,0,0,1-.84.342.916.916,0,0,1-.859-.342L.343,43.72a1.123,1.123,0,0,1,0-1.616A1.178,1.178,0,0,1,2,42.1l1.08,1.079L5.771,40.2a1.173,1.173,0,0,1,1.655-.083Zm3.511-4.99A1.562,1.562,0,0,1,12.5,33.559H23.438a1.563,1.563,0,0,1,0,3.125H12.5a1.561,1.561,0,0,1-1.562-1.562Zm0,7.813A1.561,1.561,0,0,1,12.5,41.372H23.438a1.563,1.563,0,0,1,0,3.125H12.5A1.561,1.561,0,0,1,10.938,42.934ZM7.813,50.747a1.561,1.561,0,0,1,1.563-1.562H23.438a1.563,1.563,0,0,1,0,3.125H9.375A1.561,1.561,0,0,1,7.813,50.747ZM0,50.747a2.344,2.344,0,1,1,2.344,2.344A2.344,2.344,0,0,1,0,50.747Z" transform="translate(0 -31.997)" fill="#00f0ff"/>
</svg>
