<svg xmlns="http://www.w3.org/2000/svg" width="24.216" height="25" viewBox="0 0 24.216 25">
  <path id="amazon-brands_1_" data-name="amazon-brands (1)" d="M20.989,39.294c-2.718.1-9.459.865-9.459,6.557,0,6.11,7.718,6.362,10.24,2.411A25.735,25.735,0,0,0,24.3,50.873l3.17-3.125s-1.8-1.412-1.8-2.946V36.593C25.666,35.181,24.3,32,19.4,32s-7.517,3.069-7.517,5.82l4.1.379c.91-2.762,3.025-2.762,3.025-2.762C21.28,35.432,20.989,37.1,20.989,39.294Zm0,4.844c0,4.464-4.7,3.795-4.7.96,0-2.634,2.818-3.164,4.7-3.225Zm7.589,9.124A13.553,13.553,0,0,1,18.841,57c-5.831,0-10.3-3.99-11.663-5.636-.379-.43.056-.631.307-.463,4.09,2.483,10.48,6.574,20.787,1.691C28.69,52.385,29.014,52.7,28.579,53.261Zm2.221.123a4.651,4.651,0,0,1-1.183,1.73c-.307.251-.53.151-.363-.212s1.077-2.595.709-3.069-2.065-.24-2.679-.179-.725.112-.781-.017c-.128-.318,1.211-.865,2.093-.977s2.288-.045,2.567.318a4.087,4.087,0,0,1-.363,2.405Z" transform="translate(-7.029 -32)" fill="#00f0ff"/>
</svg>
