<svg xmlns="http://www.w3.org/2000/svg" width="25" height="25" viewBox="0 0 25 25">
  <path id="square-phone-solid" d="M21.429,32H3.571A3.571,3.571,0,0,0,0,35.571V53.429A3.571,3.571,0,0,0,3.571,57H21.429A3.571,3.571,0,0,0,25,53.429V35.571A3.573,3.573,0,0,0,21.429,32ZM19.621,48.155l-.648,2.812a.868.868,0,0,1-.85.676A12.778,12.778,0,0,1,5.359,38.875a.867.867,0,0,1,.676-.849l2.811-.649a.878.878,0,0,1,1,.506l1.3,3.029a.873.873,0,0,1-.251,1.017l-1.5,1.233a9.756,9.756,0,0,0,4.451,4.45l1.229-1.5a.868.868,0,0,1,1.018-.25l3.027,1.3A.876.876,0,0,1,19.621,48.155Z" transform="translate(0 -32)" fill="#00f0ff"/>
</svg>
