<svg xmlns="http://www.w3.org/2000/svg" width="25" height="25" viewBox="0 0 25 25">
  <path id="earth-americas-solid" d="M25,12.5A12.5,12.5,0,1,1,12.5,0,12.5,12.5,0,0,1,25,12.5ZM2.818,9.38l.457.845A3.127,3.127,0,0,0,5.132,11.68l2.783.806a1.94,1.94,0,0,1,1.46,1.88v1.948a1.3,1.3,0,0,0,.781,1.221,1.532,1.532,0,0,1,.781,1.309v1.9a1.143,1.143,0,0,0,1.46,1.1,2.363,2.363,0,0,0,1.6-1.646l.137-.547A3.139,3.139,0,0,1,15.61,17.7l.4-.225a2.335,2.335,0,0,0,1.182-2.036v-.4a2.347,2.347,0,0,0-.688-1.66l-.186-.186a2.4,2.4,0,0,0-1.66-.732H12.5A3.061,3.061,0,0,1,11,12.09l-1.685-.967a.959.959,0,0,1-.444-.542.994.994,0,0,1,.493-1.2l.293-.142a1.255,1.255,0,0,1,1-.073l1.177.376a.934.934,0,0,0,1.011-1.484l-.664-.791a1.559,1.559,0,0,1,.015-2.017l.767-.9a1.563,1.563,0,0,0,.171-1.792l-.117-.2c-.21-.008-.337-.013-.508-.013A10.177,10.177,0,0,0,2.818,9.38ZM21.367,7.544l-1.25.5a1.565,1.565,0,0,0-.9,1.943l.825,2.476a1.575,1.575,0,0,0,1.1,1.025l1.426.352a10.2,10.2,0,0,0-1.2-6.3Z" fill="#00f0ff"/>
</svg>
