<svg xmlns="http://www.w3.org/2000/svg" width="30" height="24" viewBox="0 0 30 24">
  <path id="user-tag-solid" d="M29.561,17.106l-4.233-4.228A3,3,0,0,0,23.2,12H19.487a1.5,1.5,0,0,0-1.5,1.5v3.713a2.99,2.99,0,0,0,.877,2.119L23.1,23.561a1.5,1.5,0,0,0,2.124,0l4.336-4.336A1.493,1.493,0,0,0,29.561,17.106Zm-8.569-.984A1.125,1.125,0,1,1,22.117,15,1.122,1.122,0,0,1,20.992,16.121ZM10.5,12a6,6,0,1,0-6-6,6,6,0,0,0,6,6Zm5.991,5.213V13.782a6.307,6.307,0,0,0-1.791-.291h-.783a8.16,8.16,0,0,1-6.835,0H6.3A6.309,6.309,0,0,0,0,19.8v1.95A2.251,2.251,0,0,0,2.25,24h16.5a2.24,2.24,0,0,0,1.777-.886l-2.719-2.719a4.471,4.471,0,0,1-1.317-3.183Z" fill="#00f0ff"/>
</svg>
