<svg xmlns="http://www.w3.org/2000/svg" xmlns:xlink="http://www.w3.org/1999/xlink" width="50" height="43.75" viewBox="0 0 50 43.75">
  <defs>
    <linearGradient id="linear-gradient" x1="0.5" x2="0.5" y2="1" gradientUnits="objectBoundingBox">
      <stop offset="0" stop-color="#ff61df"/>
      <stop offset="1" stop-color="#545454"/>
    </linearGradient>
  </defs>
  <path id="chart-gantt-solid" d="M3.125,32A3.125,3.125,0,0,1,6.25,35.125V67.938A1.565,1.565,0,0,0,7.813,69.5H46.875a3.125,3.125,0,0,1,0,6.25H7.813A7.812,7.812,0,0,1,0,67.938V35.125A3.125,3.125,0,0,1,3.125,32ZM12.5,41.375a3.122,3.122,0,0,1,3.125-3.125H25a3.125,3.125,0,0,1,0,6.25H15.625A3.122,3.122,0,0,1,12.5,41.375Zm21.875,6.25a3.125,3.125,0,0,1,0,6.25h-12.5a3.125,3.125,0,0,1,0-6.25ZM43.75,57a3.125,3.125,0,0,1,0,6.25H37.5a3.125,3.125,0,0,1,0-6.25Z" transform="translate(0 -32)" fill="url(#linear-gradient)"/>
</svg>
