<svg xmlns="http://www.w3.org/2000/svg" xmlns:xlink="http://www.w3.org/1999/xlink" width="100" height="80.008" viewBox="0 0 100 80.008">
  <defs>
    <linearGradient id="linear-gradient" x1="0.5" x2="0.5" y2="1" gradientUnits="objectBoundingBox">
      <stop offset="0" stop-color="#b318f1"/>
      <stop offset="1" stop-color="#ff61df"/>
    </linearGradient>
  </defs>
  <path id="glass-cheers-regular" d="M91.769,64.7l-4.656,1.828L80.785,50.437a18.324,18.324,0,0,0,6.281-24.109L73.925,2.578a5.009,5.009,0,0,0-6.2-2.234L49.957,7.328,32.191.344a5.009,5.009,0,0,0-6.2,2.234L12.848,26.328a18.324,18.324,0,0,0,6.281,24.109L12.8,66.531,8.144,64.7A6.248,6.248,0,0,0,.035,68.234a1.257,1.257,0,0,0,.7,1.625L26.332,79.922a1.257,1.257,0,0,0,1.625-.7,6.248,6.248,0,0,0-3.531-8.109l-4.656-1.828,6.3-16a19.038,19.038,0,0,0,3.719.391A18.224,18.224,0,0,0,47.629,40.015L49.941,30.7l2.312,9.312A18.2,18.2,0,0,0,70.1,53.672a18.791,18.791,0,0,0,3.719-.391L80.1,69.265l-4.656,1.828A6.248,6.248,0,0,0,71.91,79.2a1.257,1.257,0,0,0,1.625.7L99.16,69.844a1.257,1.257,0,0,0,.7-1.625A6.237,6.237,0,0,0,91.769,64.7ZM40.363,38.2A10.742,10.742,0,0,1,29.8,46.172a12.039,12.039,0,0,1-4.344-.828,11.57,11.57,0,0,1-6.687-6.8,10.251,10.251,0,0,1,.641-8.562l3.922-7.078,18.984,7.469Zm3.781-15.187-17.156-6.75,4.5-8.141,14.906,5.859Zm11.625,0L53.519,14,68.425,8.125l4.5,8.141ZM74.457,45.328a11.915,11.915,0,0,1-4.344.828A10.742,10.742,0,0,1,59.55,38.187L57.6,30.328l18.984-7.469L80.5,29.937a10.251,10.251,0,0,1,.641,8.562A11.537,11.537,0,0,1,74.457,45.328Z" transform="translate(0.051)" fill="url(#linear-gradient)"/>
</svg>
