<svg xmlns="http://www.w3.org/2000/svg" xmlns:xlink="http://www.w3.org/1999/xlink" width="43.75" height="50" viewBox="0 0 43.75 50">
  <defs>
    <linearGradient id="linear-gradient" x1="0.5" x2="0.5" y2="1" gradientUnits="objectBoundingBox">
      <stop offset="0" stop-color="#ff61df"/>
      <stop offset="1" stop-color="#545454"/>
    </linearGradient>
  </defs>
  <path id="hand-point-up-light" d="M11.25,6.875V18.769a10.587,10.587,0,0,0-4.375-.956A6.9,6.9,0,0,0,0,25c0,4.741,5.259,5.645,7.453,7,1.734,1.08,5.573,4.186,6.557,5.949a3.123,3.123,0,0,0-1.51,2.676v6.25A3.125,3.125,0,0,0,15.625,50H37.5a3.125,3.125,0,0,0,3.125-3.125v-6.25a3.115,3.115,0,0,0-.98-2.272c.758-3.384,4.105-6.933,4.105-12.217V23.867c0-5.821-3.524-8.814-8.386-8.655a7.834,7.834,0,0,0-6.4-1.625A7.983,7.983,0,0,0,25.1,12.427l-.1,0V6.875A6.935,6.935,0,0,0,18.125,0,7,7,0,0,0,11.25,6.875Zm4.375,40v-6.25H37.5v6.25Zm6.25-40v9.7a4.806,4.806,0,0,1,6.5.527,4.421,4.421,0,0,1,5.713,1.377c4.168-.695,6.533,1.074,6.533,5.391v2.269c0,4.33-3.053,7.489-3.99,11.364h-19.4c-1.046-2.914-5.842-6.729-8.131-8.154C6.61,27.8,3.125,27.344,3.125,25a3.784,3.784,0,0,1,3.75-4.063c3.75,0,5.654,2.813,7.5,2.813V6.875a3.877,3.877,0,0,1,3.75-3.75,3.815,3.815,0,0,1,3.75,3.75ZM34.375,41.8a1.953,1.953,0,1,1-1.953,1.953A1.953,1.953,0,0,1,34.375,41.8Z" fill="url(#linear-gradient)"/>
</svg>
