<svg xmlns="http://www.w3.org/2000/svg" xmlns:xlink="http://www.w3.org/1999/xlink" width="75" height="45.017" viewBox="0 0 75 45.017">
  <defs>
    <linearGradient id="linear-gradient" y1="0.408" x2="1" y2="0.4" gradientUnits="objectBoundingBox">
      <stop offset="0" stop-color="#fc7900"/>
      <stop offset="1" stop-color="#b318f1"/>
    </linearGradient>
  </defs>
  <path id="handshake-alt-solid" d="M56.707,96.191l-17.5-14.2L35.7,85.211c-4.758,4.348-10.172,1.395-11.918-.516a8.442,8.442,0,0,1,.516-11.918L33.879,64h-9.82a3.743,3.743,0,0,0-2.648,1.1L15,71.5H1.875A1.881,1.881,0,0,0,0,73.375V95.863a1.881,1.881,0,0,0,1.875,1.875h15.27l10.605,9.6a7.5,7.5,0,0,0,10.547-1.09l.023-.023,2.1,1.816a4.355,4.355,0,0,0,6.129-.633l3.68-4.523.633.516a3.744,3.744,0,0,0,5.273-.551l1.113-1.371a3.757,3.757,0,0,0-.539-5.285ZM73.125,71.5H60l-6.4-6.4A3.743,3.743,0,0,0,50.953,64H40.887a3.749,3.749,0,0,0-2.531.984L26.836,75.531c-.012.012-.023.035-.035.047a4.651,4.651,0,0,0-.246,6.563,4.722,4.722,0,0,0,6.574.316c.012-.012.035-.012.047-.023l6.211-5.684,3.164-2.895a1.875,1.875,0,1,1,2.531,2.766l-3.059,2.8L59.086,93.273a7.425,7.425,0,0,1,2.6,4.441H73.125A1.881,1.881,0,0,0,75,95.84V73.363A1.871,1.871,0,0,0,73.125,71.5Z" transform="translate(0 -64)" fill="url(#linear-gradient)"/>
</svg>
