<svg xmlns="http://www.w3.org/2000/svg" width="25" height="21.875" viewBox="0 0 25 21.875">
  <path id="hand-point-left-light" d="M0,41.063A3.467,3.467,0,0,0,3.438,44.5H6.212c0,.017,0,.034,0,.051a3.99,3.99,0,0,0,.58,1.933,3.917,3.917,0,0,0,.812,3.2c-.079,2.431,1.417,4.193,4.328,4.193h1.135c2.642,0,4.417-1.674,6.108-2.053a1.558,1.558,0,0,0,1.136.49h3.125A1.563,1.563,0,0,0,25,50.75V39.813a1.563,1.563,0,0,0-1.562-1.562H20.313A1.561,1.561,0,0,0,18.975,39,13.031,13.031,0,0,1,16,35.726C15.322,34.63,14.87,32,12.5,32a3.449,3.449,0,0,0-3.594,3.438,5.294,5.294,0,0,0,.478,2.188H3.438A3.5,3.5,0,0,0,0,41.063ZM23.438,50.75H20.313V39.813h3.125ZM1.563,41.063a1.938,1.938,0,0,1,1.875-1.875h8.438c0-.923-1.406-1.875-1.406-3.75A1.892,1.892,0,0,1,12.5,33.563c1.172,0,1.4,1.742,2.173,2.988.713,1.145,2.62,3.543,4.077,4.066v9.7c-1.937.468-3.517,2-5.682,2H11.934c-2.159,0-3.043-1.182-2.7-3.267a2.211,2.211,0,0,1-.688-2.856,2.4,2.4,0,0,1-.264-3.252H3.438A1.908,1.908,0,0,1,1.563,41.063Zm20.313,7.148a.977.977,0,1,1-.977.977A.977.977,0,0,1,21.875,48.211Z" transform="translate(0 -32)"/>
</svg>
