<svg xmlns="http://www.w3.org/2000/svg" xmlns:xlink="http://www.w3.org/1999/xlink" width="50" height="44.444" viewBox="0 0 50 44.444">
  <defs>
    <linearGradient id="linear-gradient" x1="0.5" x2="0.5" y2="1" gradientUnits="objectBoundingBox">
      <stop offset="0" stop-color="#ff61df"/>
      <stop offset="1" stop-color="#545454"/>
    </linearGradient>
  </defs>
  <path id="signal-solid" d="M47.222,0a2.763,2.763,0,0,0-2.778,2.7V41.667A2.778,2.778,0,0,0,50,41.745V2.7A2.761,2.761,0,0,0,47.222,0ZM13.889,25a2.759,2.759,0,0,0-2.778,2.7V41.589a2.793,2.793,0,0,0,2.778,2.856,2.761,2.761,0,0,0,2.778-2.7V27.7A2.759,2.759,0,0,0,13.889,25ZM2.778,33.333A2.761,2.761,0,0,0,0,36.033v5.556a2.78,2.78,0,0,0,2.7,2.856,2.9,2.9,0,0,0,2.856-2.778V36.033A2.761,2.761,0,0,0,2.778,33.333Zm33.333-25a2.763,2.763,0,0,0-2.778,2.7V41.667a2.778,2.778,0,0,0,5.556.078V11.033A2.759,2.759,0,0,0,36.111,8.333ZM25,16.667a2.759,2.759,0,0,0-2.778,2.7V41.589A2.793,2.793,0,0,0,25,44.444a2.761,2.761,0,0,0,2.778-2.7V19.366A2.759,2.759,0,0,0,25,16.667Z" fill="url(#linear-gradient)"/>
</svg>
