<svg id="Group_5397" data-name="Group 5397" xmlns="http://www.w3.org/2000/svg" xmlns:xlink="http://www.w3.org/1999/xlink" width="30" height="30" viewBox="0 0 30 30">
  <defs>
    <linearGradient id="linear-gradient" y1="0.5" x2="1" y2="0.5" gradientUnits="objectBoundingBox">
      <stop offset="0" stop-color="#fc7900"/>
      <stop offset="1" stop-color="#b318f1"/>
    </linearGradient>
  </defs>
  <circle id="Ellipse_285" data-name="Ellipse 285" cx="15" cy="15" r="15" fill="url(#linear-gradient)"/>
  <path id="download-solid_1_" data-name="download-solid (1)" d="M10.125,1.125a1.125,1.125,0,0,0-2.25,0V9.657l-2.58-2.58A1.126,1.126,0,1,0,3.7,8.67l4.5,4.5a1.127,1.127,0,0,0,1.593,0l4.5-4.5A1.126,1.126,0,1,0,12.7,7.077l-2.577,2.58ZM2.25,12.375A2.252,2.252,0,0,0,0,14.625V15.75A2.252,2.252,0,0,0,2.25,18h13.5A2.252,2.252,0,0,0,18,15.75V14.625a2.252,2.252,0,0,0-2.25-2.25H12.182l-1.593,1.593a2.249,2.249,0,0,1-3.182,0L5.818,12.375Zm12.938,3.656a.844.844,0,1,1,.844-.844A.842.842,0,0,1,15.188,16.031Z" transform="translate(6 6)" fill="#fff"/>
</svg>
