<svg xmlns="http://www.w3.org/2000/svg" xmlns:xlink="http://www.w3.org/1999/xlink" width="40" height="35.002" viewBox="0 0 40 35.002">
  <defs>
    <linearGradient id="linear-gradient" y1="1" x2="1.249" y2="1" gradientUnits="objectBoundingBox">
      <stop offset="0" stop-color="#b318f1"/>
      <stop offset="1" stop-color="#fc7900"/>
    </linearGradient>
  </defs>
  <path id="react" d="M32.672,43.355q-.633-.211-1.266-.4c.07-.289.133-.578.2-.867.961-4.656.328-8.4-1.8-9.633-2.055-1.18-5.406.047-8.8,3-.336.289-.664.594-.977.9-.211-.2-.43-.406-.648-.6-3.555-3.156-7.117-4.484-9.25-3.242-2.047,1.188-2.656,4.711-1.8,9.117.086.438.18.867.289,1.3-.5.141-.992.3-1.453.461C2.992,44.84,0,47.121,0,49.48c0,2.438,3.188,4.883,7.523,6.367.352.117.7.234,1.063.336-.117.469-.219.93-.312,1.406-.82,4.336-.18,7.773,1.867,8.953,2.109,1.219,5.656-.031,9.109-3.055.273-.242.547-.492.82-.758.344.336.7.656,1.063.969,3.344,2.875,6.648,4.039,8.688,2.859,2.109-1.219,2.8-4.914,1.906-9.414q-.105-.516-.234-1.055c.25-.07.492-.148.734-.227C36.734,54.371,40,51.957,40,49.48c0-2.367-3.078-4.664-7.328-6.125ZM22.1,36.722c2.906-2.531,5.617-3.523,6.852-2.812,1.32.758,1.828,3.82,1,7.844-.055.266-.109.523-.18.781a39.994,39.994,0,0,0-5.258-.828,39.472,39.472,0,0,0-3.328-4.148C21.492,37.269,21.789,37,22.1,36.722ZM13.063,53.535c.4.68.8,1.359,1.234,2.023a35.378,35.378,0,0,1-3.625-.586A36.495,36.495,0,0,1,11.945,51.5c.359.687.727,1.367,1.117,2.039Zm-2.367-9.4c1.125-.25,2.32-.453,3.563-.609-.414.648-.82,1.313-1.2,1.984s-.758,1.344-1.109,2.031c-.492-1.164-.906-2.3-1.25-3.406Zm2.141,5.383c.516-1.078,1.078-2.133,1.672-3.172s1.234-2.047,1.906-3.039c1.172-.086,2.367-.133,3.586-.133s2.422.047,3.586.133q1,1.477,1.9,3.023t1.7,3.156q-.785,1.617-1.687,3.188c-.594,1.039-1.227,2.047-1.891,3.047-1.164.086-2.375.125-3.6.125s-2.414-.039-3.563-.109q-1.02-1.488-1.922-3.047c-.6-1.039-1.156-2.094-1.68-3.172Zm14.109,4c.4-.687.773-1.383,1.141-2.086a36.266,36.266,0,0,1,1.32,3.461,34.315,34.315,0,0,1-3.672.625C26.156,54.863,26.555,54.191,26.945,53.519Zm1.125-5.977c-.367-.687-.742-1.375-1.133-2.047s-.781-1.32-1.2-1.969a35.951,35.951,0,0,1,3.586.625A34.575,34.575,0,0,1,28.07,47.543Zm-8.055-8.789a34.307,34.307,0,0,1,2.313,2.8c-1.547-.07-3.1-.07-4.648,0C18.445,40.543,19.234,39.605,20.016,38.754Zm-9.062-4.789c1.313-.766,4.227.328,7.3,3.047.2.172.391.359.594.547a39.691,39.691,0,0,0-3.352,4.148,41.182,41.182,0,0,0-5.25.813c-.1-.4-.187-.8-.273-1.211-.734-3.781-.25-6.633.984-7.344ZM9.039,54.558c-.328-.094-.648-.2-.969-.3a15.934,15.934,0,0,1-4.922-2.437A3.506,3.506,0,0,1,1.68,49.48c0-1.43,2.469-3.258,6.031-4.5.445-.156.9-.3,1.352-.43a41.542,41.542,0,0,0,1.914,4.969A42.7,42.7,0,0,0,9.039,54.558Zm9.109,7.656a14.3,14.3,0,0,1-4.406,2.758,3.458,3.458,0,0,1-2.758.1C9.742,64.355,9.227,61.6,9.93,57.887c.086-.437.18-.875.289-1.3a39.084,39.084,0,0,0,5.3.766A41.228,41.228,0,0,0,18.9,61.519c-.25.242-.5.477-.75.7Zm1.914-1.9c-.8-.859-1.594-1.812-2.367-2.836.75.031,1.523.047,2.3.047.8,0,1.594-.016,2.375-.055A33.692,33.692,0,0,1,20.063,60.316ZM30.273,62.66a3.472,3.472,0,0,1-1.289,2.445c-1.242.719-3.891-.219-6.75-2.672-.328-.281-.656-.586-.992-.9a38.647,38.647,0,0,0,3.3-4.187,38.513,38.513,0,0,0,5.328-.82c.078.32.148.641.211.953A14.242,14.242,0,0,1,30.273,62.66Zm1.422-8.4c-.219.07-.437.141-.664.2a39.687,39.687,0,0,0-1.992-4.984,39.489,39.489,0,0,0,1.914-4.914c.406.117.8.242,1.172.367,3.641,1.25,6.2,3.109,6.2,4.531C38.32,51,35.594,52.972,31.7,54.262ZM20,53.09a3.578,3.578,0,1,0-3.578-3.578A3.578,3.578,0,0,0,20,53.09Z" transform="translate(0 -32.012)" fill="url(#linear-gradient)"/>
</svg>
