<svg xmlns="http://www.w3.org/2000/svg" xmlns:xlink="http://www.w3.org/1999/xlink" width="40" height="40" viewBox="0 0 40 40">
  <defs>
    <linearGradient id="linear-gradient" y1="1" x2="1.249" y2="1" gradientUnits="objectBoundingBox">
      <stop offset="0" stop-color="#b318f1"/>
      <stop offset="1" stop-color="#ff61df"/>
    </linearGradient>
  </defs>
  <path id="pen-to-square-solid" d="M37.227,6.572a4.417,4.417,0,0,0-6.252,0L28.6,8.94l7.728,7.728L38.7,14.292a4.417,4.417,0,0,0,0-6.252ZM13.609,23.938a4.361,4.361,0,0,0-1.066,1.729l-2.337,7.01a1.9,1.9,0,0,0,.458,1.942,1.88,1.88,0,0,0,1.942.458l7.01-2.337a4.57,4.57,0,0,0,1.729-1.066L34.551,18.46l-7.736-7.736ZM7.578,9.911A7.58,7.58,0,0,0,0,17.489V37.7a7.58,7.58,0,0,0,7.578,7.578H27.786A7.58,7.58,0,0,0,35.364,37.7V30.119a2.526,2.526,0,1,0-5.052,0V37.7a2.523,2.523,0,0,1-2.526,2.526H7.578A2.523,2.523,0,0,1,5.052,37.7V17.489a2.523,2.523,0,0,1,2.526-2.526h7.578a2.526,2.526,0,1,0,0-5.052Z" transform="translate(0 -5.275)" fill="url(#linear-gradient)"/>
</svg>
