<svg xmlns="http://www.w3.org/2000/svg" xmlns:xlink="http://www.w3.org/1999/xlink" width="40" height="40" viewBox="0 0 40 40">
  <defs>
    <linearGradient id="linear-gradient" y1="1" x2="1.249" y2="1" gradientUnits="objectBoundingBox">
      <stop offset="0" stop-color="#b318f1"/>
      <stop offset="1" stop-color="#fc7900"/>
    </linearGradient>
  </defs>
  <path id="python" d="M39.266,47.043C38.578,44.284,37.275,42.2,34.5,42.2h-3.58v4.232a6.124,6.124,0,0,1-5.964,6.053H15.418a4.866,4.866,0,0,0-4.768,4.848v9.089c0,2.589,2.25,4.107,4.768,4.848a16.044,16.044,0,0,0,9.535,0c2.4-.7,4.768-2.1,4.768-4.848V62.792H20.2V61.578H34.5c2.777,0,3.8-1.937,4.768-4.839,1-2.991.955-5.866,0-9.7ZM25.552,65.212a1.817,1.817,0,1,1-1.795,1.812A1.8,1.8,0,0,1,25.552,65.212ZM14.981,51.293h9.535a4.807,4.807,0,0,0,4.768-4.848v-9.1c0-2.589-2.179-4.527-4.768-4.964a29.43,29.43,0,0,0-9.535.009c-4.036.714-4.768,2.205-4.768,4.964V40.99h9.544V42.2H6.633A5.961,5.961,0,0,0,.669,47.043a17.882,17.882,0,0,0,0,9.7c.679,2.821,2.295,4.839,5.071,4.839H9.017V57.221A6.062,6.062,0,0,1,14.981,51.293Zm-.6-12.732a1.817,1.817,0,1,1,1.795-1.812A1.8,1.8,0,0,1,14.383,38.561Z" transform="translate(0.001 -31.999)" fill="url(#linear-gradient)"/>
</svg>
