<svg xmlns="http://www.w3.org/2000/svg" xmlns:xlink="http://www.w3.org/1999/xlink" width="40" height="32" viewBox="0 0 40 32">
  <defs>
    <linearGradient id="linear-gradient" y1="1" x2="1.249" y2="1" gradientUnits="objectBoundingBox">
      <stop offset="0" stop-color="#b318f1"/>
      <stop offset="1" stop-color="#ff61df"/>
    </linearGradient>
  </defs>
  <path id="business-time-solid_1_" data-name="business-time-solid (1)" d="M11.5,3h9a.5.5,0,0,1,.5.5V6H11V3.5A.5.5,0,0,1,11.5,3ZM8,3.5V6H4a4,4,0,0,0-4,4v6H22.513A10.976,10.976,0,0,1,31,12c.337,0,.669.012,1,.044V10a4,4,0,0,0-4-4H24V3.5A3.5,3.5,0,0,0,20.5,0h-9A3.5,3.5,0,0,0,8,3.5ZM20,22H14a2,2,0,0,1-2-2V18H0v8a4,4,0,0,0,4,4H22.513A10.967,10.967,0,0,1,20,23c0-.337.013-.669.044-1Zm20,1a9,9,0,1,0-9,9A9,9,0,0,0,40,23Zm-9-5a1,1,0,0,1,1,1v3h2a1,1,0,0,1,0,2H31a1,1,0,0,1-1-1V19A1,1,0,0,1,31,18Z" fill="url(#linear-gradient)"/>
</svg>
