<svg xmlns="http://www.w3.org/2000/svg" xmlns:xlink="http://www.w3.org/1999/xlink" width="40" height="31.111" viewBox="0 0 40 31.111">
  <defs>
    <linearGradient id="linear-gradient" y1="1" x2="1.249" y2="1" gradientUnits="objectBoundingBox">
      <stop offset="0" stop-color="#b318f1"/>
      <stop offset="1" stop-color="#fc7900"/>
    </linearGradient>
  </defs>
  <path id="sitemap-regular" d="M22.222,32a3.334,3.334,0,0,1,3.333,3.333v4.444a3.334,3.334,0,0,1-3.333,3.333h-.556v2.778H32.222a3.891,3.891,0,0,1,3.889,3.889V52h.556A3.334,3.334,0,0,1,40,55.333v4.444a3.334,3.334,0,0,1-3.333,3.333H32.222a3.334,3.334,0,0,1-3.333-3.333V55.333A3.334,3.334,0,0,1,32.222,52h.556V49.778a.557.557,0,0,0-.556-.556H21.667V52h.556a3.334,3.334,0,0,1,3.333,3.333v4.444a3.334,3.334,0,0,1-3.333,3.333H17.778a3.334,3.334,0,0,1-3.333-3.333V55.333A3.334,3.334,0,0,1,17.778,52h.556V49.222H7.778a.557.557,0,0,0-.556.556V52h.556a3.334,3.334,0,0,1,3.333,3.333v4.444a3.334,3.334,0,0,1-3.333,3.333H3.333A3.334,3.334,0,0,1,0,59.778V55.333A3.334,3.334,0,0,1,3.333,52h.556V49.778a3.89,3.89,0,0,1,3.889-3.889H18.333V43.111h-.556a3.334,3.334,0,0,1-3.333-3.333V35.333A3.334,3.334,0,0,1,17.778,32Zm0,3.333H17.778v4.444h4.444ZM3.333,59.778H7.778V55.333H3.333Zm14.444,0h4.444V55.333H17.778Zm14.444,0h4.444V55.333H32.222Z" transform="translate(0 -32)" fill="url(#linear-gradient)"/>
</svg>
