<svg xmlns="http://www.w3.org/2000/svg" xmlns:xlink="http://www.w3.org/1999/xlink" width="40" height="40" viewBox="0 0 40 40">
  <defs>
    <linearGradient id="linear-gradient" y1="1" x2="1.249" y2="1" gradientUnits="objectBoundingBox">
      <stop offset="0" stop-color="#b318f1"/>
      <stop offset="1" stop-color="#ff61df"/>
    </linearGradient>
  </defs>
  <path id="headset-solid" d="M20,3.75A16.248,16.248,0,0,0,3.75,20v3.125a1.875,1.875,0,0,1-3.75,0V20a20,20,0,0,1,40,0V31.258a6.877,6.877,0,0,1-6.883,6.875L24.5,38.125A3.756,3.756,0,0,1,21.25,40h-2.5a3.75,3.75,0,0,1,0-7.5h2.5a3.756,3.756,0,0,1,3.25,1.875l8.625.008a3.124,3.124,0,0,0,3.125-3.125V20A16.248,16.248,0,0,0,20,3.75Zm-8.75,12.5H12.5a2.5,2.5,0,0,1,2.5,2.5V27.5A2.5,2.5,0,0,1,12.5,30H11.25a5,5,0,0,1-5-5V21.25A5,5,0,0,1,11.25,16.25Zm17.5,0a5,5,0,0,1,5,5V25a5,5,0,0,1-5,5H27.5A2.5,2.5,0,0,1,25,27.5V18.75a2.5,2.5,0,0,1,2.5-2.5Z" fill="url(#linear-gradient)"/>
</svg>
