<svg xmlns="http://www.w3.org/2000/svg" xmlns:xlink="http://www.w3.org/1999/xlink" width="40" height="31.111" viewBox="0 0 40 31.111">
  <defs>
    <linearGradient id="linear-gradient" y1="1" x2="1.249" y2="1" gradientUnits="objectBoundingBox">
      <stop offset="0" stop-color="#b318f1"/>
      <stop offset="1" stop-color="#ff61df"/>
    </linearGradient>
  </defs>
  <path id="megaphone-solid" d="M37.778,32A2.22,2.22,0,0,1,40,34.222V60.889a2.222,2.222,0,1,1-4.444,0V34.222A2.22,2.22,0,0,1,37.778,32ZM4.444,42.993l28.889-8.771V60.889l-9.1-2.764a6.667,6.667,0,1,1-12.75-3.868L4.444,52.118A2.224,2.224,0,0,1,0,52V43.111a2.224,2.224,0,0,1,4.444-.118Zm16.6,14.16-6.361-1.931a3.384,3.384,0,0,0-.229,1.222,3.333,3.333,0,0,0,6.59.708Z" transform="translate(0 -32)" fill="url(#linear-gradient)"/>
</svg>
