<svg xmlns="http://www.w3.org/2000/svg" xmlns:xlink="http://www.w3.org/1999/xlink" width="50" height="25" viewBox="0 0 50 25">
  <defs>
    <linearGradient id="linear-gradient" x1="0.5" x2="0.5" y2="1" gradientUnits="objectBoundingBox">
      <stop offset="0" stop-color="#ff61df"/>
      <stop offset="1" stop-color="#545454"/>
    </linearGradient>
  </defs>
  <path id="language-regular" d="M12.523,104.422h-.039s-.336,1.633-.609,2.578l-.859,2.914h2.961L13.141,107C12.859,106.055,12.523,104.422,12.523,104.422ZM48.125,96H1.875A1.87,1.87,0,0,0,0,97.875v21.25A1.871,1.871,0,0,0,1.875,121h46.25A1.871,1.871,0,0,0,50,119.125V97.875A1.87,1.87,0,0,0,48.125,96ZM18.219,116H16.453a.938.938,0,0,1-.9-.672l-.727-2.477h-4.68l-.711,2.469a.945.945,0,0,1-.9.68H6.781a.943.943,0,0,1-.891-1.242l4.461-13.125a.934.934,0,0,1,.891-.633h2.516a.952.952,0,0,1,.891.633l4.461,13.125A.943.943,0,0,1,18.219,116Zm28.656,1.875H25V99.125H46.875ZM29.063,106.312h8.656A14.616,14.616,0,0,1,35.7,109.32a21.248,21.248,0,0,1-1.43-1.875.932.932,0,0,0-1.258-.281l-1.07.641a.94.94,0,0,0-.3,1.328,24.592,24.592,0,0,0,1.836,2.391,19.54,19.54,0,0,1-2.242,1.656.927.927,0,0,0-.3,1.25l.617,1.086a.934.934,0,0,0,1.313.328,24.082,24.082,0,0,0,2.812-2.094,22.142,22.142,0,0,0,2.7,2.078.943.943,0,0,0,1.328-.32l.625-1.086a.942.942,0,0,0-.3-1.25,18.349,18.349,0,0,1-2.125-1.633c.117-.133.227-.258.336-.391a16.266,16.266,0,0,0,2.875-4.844h1.07a.94.94,0,0,0,.938-.937v-1.25a.94.94,0,0,0-.937-.937h-5v-1.25a.94.94,0,0,0-.937-.938H35a.94.94,0,0,0-.937.938v1.25h-5a.94.94,0,0,0-.937.937v1.25A.942.942,0,0,0,29.063,106.312Z" transform="translate(0 -96)" fill="url(#linear-gradient)"/>
</svg>
