<svg xmlns="http://www.w3.org/2000/svg" width="25.001" height="24.958" viewBox="0 0 25.001 24.958">
  <path id="leaf-maple-solid" d="M24.588,8.135l-1.824-1.09L23.248,2.7A.845.845,0,0,0,23,2a.854.854,0,0,0-.7-.244l-4.346.483L16.868.417A.85.85,0,0,0,15.423.4L11.034,7.3l.815-3.175a.851.851,0,0,0-1.035-1.01l-1.26.68L7.334,1.274a.848.848,0,0,0-1.322,0L3.787,3.79,2.532,3.11A.849.849,0,0,0,1.5,4.121l1.616,7.841L1.3,12.745a.849.849,0,0,0,0,1.561l5.332,2.416L.343,23A1.145,1.145,0,0,0,0,23.789a1.168,1.168,0,0,0,.343.829,1,1,0,0,0,.829.343A1.167,1.167,0,0,0,2,24.617l6.284-6.284L10.7,23.665a.849.849,0,0,0,1.561,0l.784-1.818,7.841,1.616a.849.849,0,0,0,1.01-1.035l-.68-1.255,2.516-2.222a.848.848,0,0,0,0-1.322l-2.516-2.222.68-1.261a.85.85,0,0,0-1.01-1.035l-3.177.814,6.9-4.389a.811.811,0,0,0-.019-1.4Zm-9.194,2.578L10.707,15.4a.74.74,0,0,1-.552.186A.74.74,0,0,1,9.6,15.4a.781.781,0,0,1,0-1.1l4.687-4.687a.781.781,0,1,1,1.1,1.1Z" transform="translate(0 -0.006)" fill="#00f0ff"/>
</svg>
