<svg xmlns="http://www.w3.org/2000/svg" xmlns:xlink="http://www.w3.org/1999/xlink" width="50" height="50" viewBox="0 0 50 50">
  <defs>
    <linearGradient id="linear-gradient" x1="0.5" x2="0.5" y2="1" gradientUnits="objectBoundingBox">
      <stop offset="0" stop-color="#ff61df"/>
      <stop offset="1" stop-color="#545454"/>
    </linearGradient>
  </defs>
  <path id="link-regular" d="M30.686,19.314a13.69,13.69,0,0,1,.952,18.277c-.61.755-.272.377-8.295,8.4A13.672,13.672,0,0,1,4.008,26.657c3.2-3.2,5.062-5.068,6.192-6.2a1.171,1.171,0,0,1,2,.8,16.925,16.925,0,0,0,.463,3.694,1.165,1.165,0,0,1-.313,1.094L7.874,30.524a8.2,8.2,0,0,0,11.6,11.6l7.343-7.344A8.205,8.205,0,0,0,24.591,21.6a1.174,1.174,0,0,1-.641-1.206A5.051,5.051,0,0,1,25.4,17.422l.427-.427a1.165,1.165,0,0,1,1.344-.224,13.6,13.6,0,0,1,3.518,2.544ZM45.992,4.007a13.664,13.664,0,0,0-19.335,0c-8.023,8.023-7.685,7.646-8.295,8.4a13.673,13.673,0,0,0,4.47,20.821,1.165,1.165,0,0,0,1.344-.224l.427-.427a5.05,5.05,0,0,0,1.447-2.969,1.174,1.174,0,0,0-.641-1.206,8.205,8.205,0,0,1-2.228-13.185l7.343-7.344a8.2,8.2,0,1,1,11.6,11.6l-4.477,4.477a1.165,1.165,0,0,0-.313,1.094A16.925,16.925,0,0,1,37.8,28.74a1.171,1.171,0,0,0,2,.8c1.13-1.129,2.992-3,6.192-6.2a13.663,13.663,0,0,0,0-19.335Z" transform="translate(0 0)" fill="url(#linear-gradient)"/>
</svg>
