<svg xmlns="http://www.w3.org/2000/svg" width="25" height="20.968" viewBox="0 0 25 20.968">
  <path id="list-timeline-solid" d="M20.839,50.419A2.419,2.419,0,1,1,18.419,48a2.419,2.419,0,0,1,2.42,2.419ZM16,58.484A2.419,2.419,0,1,1,18.419,60.9,2.419,2.419,0,0,1,16,58.484Zm0,8.065a2.419,2.419,0,1,1,2.419,2.419A2.419,2.419,0,0,1,16,66.549ZM25.814,48H36.565a1.208,1.208,0,0,1,1.21,1.21v2.419a1.207,1.207,0,0,1-1.21,1.21H25.814a1.586,1.586,0,0,1-.968-.323L22.91,51.065a.8.8,0,0,1,0-1.29l1.935-1.452A1.6,1.6,0,0,1,25.814,48Zm-2.9,9.839,1.935-1.452a1.586,1.586,0,0,1,.968-.323H39.79A1.207,1.207,0,0,1,41,57.274v2.419a1.207,1.207,0,0,1-1.21,1.21H25.814a1.586,1.586,0,0,1-.968-.323L22.91,59.129a.8.8,0,0,1,0-1.29Zm0,8.065,1.935-1.452a1.586,1.586,0,0,1,.968-.323H36.565a1.207,1.207,0,0,1,1.21,1.21v2.419a1.207,1.207,0,0,1-1.21,1.21H25.814a1.586,1.586,0,0,1-.968-.323L22.91,67.194a.8.8,0,0,1,0-1.294Z" transform="translate(-16 -48)" fill="#00f0ff"/>
</svg>
