<svg xmlns="http://www.w3.org/2000/svg" xmlns:xlink="http://www.w3.org/1999/xlink" width="50" height="43.745" viewBox="0 0 50 43.745">
  <defs>
    <linearGradient id="linear-gradient" x1="0.5" x2="0.5" y2="1" gradientUnits="objectBoundingBox">
      <stop offset="0" stop-color="#ff61df"/>
      <stop offset="1" stop-color="#545454"/>
    </linearGradient>
  </defs>
  <path id="loveseat-regular" d="M43.761,48.072v-6.7A9.376,9.376,0,0,0,34.388,32H15.64a9.376,9.376,0,0,0-9.374,9.374v6.7a8.66,8.66,0,0,0-6.22,7.46,8.492,8.492,0,0,0,3.1,7.284v9.022a3.9,3.9,0,0,0,3.906,3.906H15.64a3.02,3.02,0,0,0,3.115-3.125H31.282A3.034,3.034,0,0,0,34.4,75.745H42.99A3.9,3.9,0,0,0,46.9,71.839V62.817a8.507,8.507,0,0,0,3.1-7.284,8.683,8.683,0,0,0-6.23-7.46ZM14.077,71.058H7.828V60.249l-1.162-.684a3.872,3.872,0,0,1-1.943-3.671A4.187,4.187,0,0,1,9,52.31h1.172a3.9,3.9,0,0,1,3.906,3.906Zm17.185-12.5v9.374h-12.5V58.559Zm.361-4.687H18.393A8.56,8.56,0,0,0,10.953,47.7V41.374a4.688,4.688,0,0,1,4.687-4.687H34.388a4.688,4.688,0,0,1,4.687,4.687V47.7A8.561,8.561,0,0,0,31.624,53.872Zm11.737,5.7-1.162.684v10.8H35.95V56.216a3.9,3.9,0,0,1,3.906-3.906h1.172A4.2,4.2,0,0,1,45.314,55.9,3.907,3.907,0,0,1,43.361,59.575Z" transform="translate(-0.018 -32)" fill="url(#linear-gradient)"/>
</svg>
