<svg xmlns="http://www.w3.org/2000/svg" viewBox="0 0 448 512"><defs><style>.cls-1,.cls-2{fill:#ef7818;}.cls-1{opacity:0.4;isolation:isolate;}</style></defs><g id="Layer_2" data-name="Layer 2"><g id="Layer_1-2" data-name="Layer 1"><path class="cls-1" d="M304,128H144a32,32,0,0,1,32-32h96A32,32,0,0,1,304,128Z"/><path class="cls-2" d="M325.4,289.2,224,390.6,122.6,289.2C54,295.3,0,352.2,0,422.4V464a48,48,0,0,0,48,48H400a48,48,0,0,0,48-48h0V422.4C448,352.2,394,295.3,325.4,289.2ZM32,192a95.48,95.48,0,0,0,69.2-29.7c15.1,53.9,64,93.7,122.8,93.7A128,128,0,0,0,224,0c-50.4,0-93.6,29.4-114.5,71.8A95.54,95.54,0,0,0,32,32a95.75,95.75,0,0,0,43.1,80A95.75,95.75,0,0,0,32,192ZM176,96h96a32,32,0,0,1,32,32H144A32,32,0,0,1,176,96Z"/></g></g></svg>