<svg xmlns="http://www.w3.org/2000/svg" xmlns:xlink="http://www.w3.org/1999/xlink" width="50" height="50" viewBox="0 0 50 50">
  <defs>
    <linearGradient id="linear-gradient" x1="0.5" x2="0.5" y2="1" gradientUnits="objectBoundingBox">
      <stop offset="0" stop-color="#ff61df"/>
      <stop offset="1" stop-color="#545454"/>
    </linearGradient>
  </defs>
  <path id="magnifying-glass-dollar-solid" d="M48.881,43.31,37.192,31.62a20.325,20.325,0,1,0-5.522,5.522l11.69,11.69a3.9,3.9,0,1,0,5.522-5.522ZM26.752,24.764A5.145,5.145,0,0,1,22.289,28.9v.772a1.953,1.953,0,1,1-3.906,0v-.859a21.351,21.351,0,0,1-2.774-.82l-.469-.166a1.957,1.957,0,0,1,1.3-3.692l.494.177a14.888,14.888,0,0,0,2.53.754c1.585.244,3.269,0,3.435-.958.119-.693.04-1.037-3.106-1.938l-.61-.174c-1.8-.615-6.026-1.768-5.264-6.172A5.146,5.146,0,0,1,18.382,11.7v-.781a1.954,1.954,0,0,1,1.953-1.953,1.9,1.9,0,0,1,1.953,1.953v.849a15.946,15.946,0,0,1,2.1.585A1.955,1.955,0,1,1,23.1,16.043a10.789,10.789,0,0,0-1.9-.518c-1.573-.253-3.26,0-3.426.958-.1.568-.168.977,2.51,1.761l.586.168C23.353,19.12,27.513,20.311,26.752,24.764Z" transform="translate(-0.024 0.024)" fill="url(#linear-gradient)"/>
</svg>
