<svg xmlns="http://www.w3.org/2000/svg" xmlns:xlink="http://www.w3.org/1999/xlink" width="50" height="50" viewBox="0 0 50 50">
  <defs>
    <linearGradient id="linear-gradient" x1="0.5" x2="0.5" y2="1" gradientUnits="objectBoundingBox">
      <stop offset="0" stop-color="#ff61df"/>
      <stop offset="1" stop-color="#545454"/>
    </linearGradient>
  </defs>
  <path id="search-plus-regular" d="M30.467,19.14v2.344A1.175,1.175,0,0,1,29.3,22.655h-6.64V29.3a1.175,1.175,0,0,1-1.172,1.172H19.14A1.175,1.175,0,0,1,17.968,29.3v-6.64h-6.64a1.175,1.175,0,0,1-1.172-1.172V19.14a1.175,1.175,0,0,1,1.172-1.172h6.64v-6.64a1.175,1.175,0,0,1,1.172-1.172h2.344a1.175,1.175,0,0,1,1.172,1.172v6.64H29.3A1.175,1.175,0,0,1,30.467,19.14ZM49.656,47.449l-2.207,2.207a1.173,1.173,0,0,1-1.66,0L33.934,37.8a1.159,1.159,0,0,1-.342-.83V35.682a20.308,20.308,0,1,1,2.09-2.09h1.289a1.2,1.2,0,0,1,.83.342L49.656,45.789A1.173,1.173,0,0,1,49.656,47.449ZM35.936,20.312A15.624,15.624,0,1,0,20.312,35.936,15.62,15.62,0,0,0,35.936,20.312Z" fill="url(#linear-gradient)"/>
</svg>
