<svg xmlns="http://www.w3.org/2000/svg" xmlns:xlink="http://www.w3.org/1999/xlink" width="50" height="44.444" viewBox="0 0 50 44.444">
  <defs>
    <linearGradient id="linear-gradient" x1="0.5" x2="0.5" y2="1" gradientUnits="objectBoundingBox">
      <stop offset="0" stop-color="#ff61df"/>
      <stop offset="1" stop-color="#545454"/>
    </linearGradient>
  </defs>
  <path id="map-marked-alt-regular" d="M29.861,10.938a2.083,2.083,0,1,0-2.083,2.083A2.078,2.078,0,0,0,29.861,10.938ZM27.778,30.556a1.529,1.529,0,0,0,1.172-.53C32.014,26.554,40,17,40,11.745A11.99,11.99,0,0,0,27.778,0,11.99,11.99,0,0,0,15.556,11.745c0,5.243,7.986,14.809,11.05,18.281A1.529,1.529,0,0,0,27.778,30.556Zm0-26.389a7.837,7.837,0,0,1,8.056,7.578c0,1.858-2.76,6.866-8.056,13.247-5.3-6.38-8.056-11.389-8.056-13.247a7.837,7.837,0,0,1,8.056-7.578Zm20.833,9.722a1.393,1.393,0,0,0-.521.1l-6.38,2.361a34.084,34.084,0,0,1-2.969,5.538l7.092-2.622V36.024L34.722,39.887V27.457c-1.189,1.5-2.422,2.977-3.689,4.41a4.579,4.579,0,0,1-.477.443v7.066L19.444,35.451V25.642a54.552,54.552,0,0,1-4.167-6.319V34.965l-.052.017L4.167,39.063V22.309L14.9,18.576a21.921,21.921,0,0,1-1.589-3.863L1.745,18.75A2.775,2.775,0,0,0,0,21.328V43.056A1.383,1.383,0,0,0,1.91,44.34l14.757-5.451L31.6,44.158a5.585,5.585,0,0,0,3.472.017l13.186-4.592A2.771,2.771,0,0,0,50,37.005V15.278A1.387,1.387,0,0,0,48.611,13.889Z" fill="url(#linear-gradient)"/>
</svg>
