<svg xmlns="http://www.w3.org/2000/svg" xmlns:xlink="http://www.w3.org/1999/xlink" width="37.5" height="50" viewBox="0 0 37.5 50">
  <defs>
    <linearGradient id="linear-gradient" x1="0.5" x2="0.5" y2="1" gradientUnits="objectBoundingBox">
      <stop offset="0" stop-color="#ff61df"/>
      <stop offset="1" stop-color="#545454"/>
    </linearGradient>
  </defs>
  <path id="map-marker-smile-regular" d="M18.75,0A18.805,18.805,0,0,0,0,18.75c0,7.5,2.5,9.688,16.875,30.313a2.344,2.344,0,0,0,3.75,0C35,28.438,37.5,26.25,37.5,18.75A18.805,18.805,0,0,0,18.75,0Zm0,43.563c-1.407-2.008-2.687-3.82-3.849-5.468C5.7,25.047,4.688,23.457,4.688,18.75a14.063,14.063,0,0,1,28.125,0c0,4.707-1.011,6.3-10.214,19.345C21.437,39.742,20.157,41.556,18.75,43.563ZM13.281,17.188a2.344,2.344,0,1,0-2.344-2.344A2.344,2.344,0,0,0,13.281,17.188Zm10.937,0a2.344,2.344,0,1,0-2.344-2.344A2.344,2.344,0,0,0,24.219,17.188Zm-.977,5a6.186,6.186,0,0,1-8.984,0,2.345,2.345,0,0,0-3.516,3.1,10.678,10.678,0,0,0,16.016,0,2.344,2.344,0,1,0-3.516-3.1Z" fill="url(#linear-gradient)"/>
</svg>
