<svg xmlns="http://www.w3.org/2000/svg" xmlns:xlink="http://www.w3.org/1999/xlink" width="50" height="40.002" viewBox="0 0 50 40.002">
  <defs>
    <linearGradient id="linear-gradient" x1="0.5" x2="0.5" y2="1" gradientUnits="objectBoundingBox">
      <stop offset="0" stop-color="#ff61df"/>
      <stop offset="1" stop-color="#545454"/>
    </linearGradient>
  </defs>
  <path id="house-leave-regular" d="M28.373,30.378a.578.578,0,0,0,.127-.206l.593-1.434H8.749V13.113l10-9.068,8.188,7.421A9.625,9.625,0,0,1,29.76,9.7l.557-.226L20.633.7a2.844,2.844,0,0,0-3.764,0L.415,15.613a1.25,1.25,0,0,0-.107,1.762l.83.937a1.25,1.25,0,0,0,1.766.1L5,16.517V29.362A3.125,3.125,0,0,0,8.12,32.487H26.273ZM41.244,7.489A3.743,3.743,0,1,0,38.6,6.39,3.75,3.75,0,0,0,41.244,7.489Zm8.671,14.493a1.714,1.714,0,0,0-.062-.2,2,2,0,0,0-.429-.631l-2.287-2.258a.684.684,0,0,1-.156-.25l-1.006-3.031a8.21,8.21,0,0,0-7.8-5.625c-2.721,0-4.14.687-7.479,2.031a7.2,7.2,0,0,0-3.769,3.5L25.8,17.949a1.953,1.953,0,0,0-.174.72c0,.055-.006.11,0,.163a1.687,1.687,0,0,0,.124.619c0,.011.013.02.018.03a1.827,1.827,0,0,0,.337.482c.034.035.067.071.1.1a2.1,2.1,0,0,0,.5.348c.018.009.037.013.056.02a2.066,2.066,0,0,0,.547.15c.048.007.1.014.145.017a1.808,1.808,0,0,0,.614-.055c.02-.006.039-.02.059-.027a1.845,1.845,0,0,0,.635-.391,1.988,1.988,0,0,0,.438-.6L30.3,17.154a3.415,3.415,0,0,1,1.783-1.641c1.694-.68,2.586-1.055,3.463-1.337l-1.548,6.187a4.578,4.578,0,0,0,1.165,4.266l6.172,5.7a3.1,3.1,0,0,1,.921,1.593l1.524,6.625a1.845,1.845,0,0,0,.262.594,1.915,1.915,0,0,0,.138.16,1.894,1.894,0,0,0,.316.316,1.847,1.847,0,0,0,.219.129,1.824,1.824,0,0,0,.391.166,1.78,1.78,0,0,0,.277.05,1.849,1.849,0,0,0,.641-.009,1.875,1.875,0,0,0,1.4-2.25L45.9,31.09a6.887,6.887,0,0,0-2.031-3.507l-4.205-3.876,2.047-8.186c.578.758.586.985,1.7,4.328a4.485,4.485,0,0,0,1.08,1.735l2.288,2.266a1.946,1.946,0,0,0,.659.42,1.594,1.594,0,0,0,.234.046,1.731,1.731,0,0,0,.455.062,1.827,1.827,0,0,0,.184-.028,1.916,1.916,0,0,0,.441-.121c.063-.027.126-.055.187-.087a2.137,2.137,0,0,0,.391-.278c.04-.035.084-.064.121-.1a2.069,2.069,0,0,0,.367-.512c.02-.039.027-.083.044-.123a1.8,1.8,0,0,0,.127-.479,1.624,1.624,0,0,0,.007-.2,1.655,1.655,0,0,0-.076-.462ZM13.753,14.988a1.254,1.254,0,0,0-1.25,1.25v5a1.25,1.25,0,0,0,1.25,1.25h5A1.25,1.25,0,0,0,20,21.238v-5a1.254,1.254,0,0,0-1.25-1.25ZM33.387,26.394l-.068-.073c-.132-.143-.223-.305-.342-.455l-2.165,5.258a3.026,3.026,0,0,1-.7,1.051l-4.565,4.569A1.872,1.872,0,0,0,28.2,39.392l4.562-4.57a6.848,6.848,0,0,0,1.516-2.3l1.519-3.9L33.46,26.464Z" transform="translate(0.004 0.012)" fill="url(#linear-gradient)"/>
</svg>
