<svg xmlns="http://www.w3.org/2000/svg" xmlns:xlink="http://www.w3.org/1999/xlink" width="50" height="43.749" viewBox="0 0 50 43.749">
  <defs>
    <linearGradient id="linear-gradient" x1="0.5" x2="0.5" y2="1" gradientUnits="objectBoundingBox">
      <stop offset="0" stop-color="#ff61df"/>
      <stop offset="1" stop-color="#545454"/>
    </linearGradient>
  </defs>
  <path id="hundred-points-solid" d="M15.9,38.816A7.779,7.779,0,0,1,31.341,40.74l-1.269,9.443a7.735,7.735,0,1,1-15.35-1.924Zm7.714-.566A1.536,1.536,0,0,0,22.1,39.587L20.922,49.03a1.516,1.516,0,0,0,1.435,1.719,1.56,1.56,0,0,0,1.6-1.338l1.182-9.443a1.536,1.536,0,0,0-1.523-1.719Zm-13.5,19.139a3.249,3.249,0,0,1-3.539,2.7,3.1,3.1,0,0,1-2.65-3.574L6.26,40.251l-1.92.85a3.086,3.086,0,0,1-4.1-1.572A3.169,3.169,0,0,1,1.88,35.4l7.031-3.125a3.116,3.116,0,0,1,3.135.341,3.079,3.079,0,0,1,1.191,2.9Zm39.841,2.295A3.176,3.176,0,0,1,47.3,63.218L3.552,69.468a3.127,3.127,0,0,1-.884-6.191l43.749-6.25A3.111,3.111,0,0,1,49.953,59.683Zm0,9.374A3.176,3.176,0,0,1,47.3,72.592L25.423,75.717a3.127,3.127,0,0,1-3.535-2.656,3.065,3.065,0,0,1,2.656-3.535L46.418,66.4A3.111,3.111,0,0,1,49.953,69.058ZM49.5,40.5l-.713,7.851a7.794,7.794,0,1,1-15.516-1.494l.713-7.763A7.79,7.79,0,1,1,49.5,40.5ZM39.495,47.507a1.544,1.544,0,0,0,3.076.273l.713-7.851a1.5,1.5,0,0,0-1.533-1.68,1.549,1.549,0,0,0-1.543,1.406Z" transform="translate(0.016 -32)" fill="url(#linear-gradient)"/>
</svg>
