<svg xmlns="http://www.w3.org/2000/svg" xmlns:xlink="http://www.w3.org/1999/xlink" width="50" height="44.447" viewBox="0 0 50 44.447">
  <defs>
    <linearGradient id="linear-gradient" x1="0.5" x2="0.5" y2="1" gradientUnits="objectBoundingBox">
      <stop offset="0" stop-color="#ff61df"/>
      <stop offset="1" stop-color="#545454"/>
    </linearGradient>
  </defs>
  <path id="pennant-regular" d="M47.077,15.93c-1.9.417-9.089,1.224-21.39-5.452C19.211,6.971,13.751,6.1,9.48,6.311a4.852,4.852,0,1,0-6.7,2.925V43.752a.7.7,0,0,0,.694.694H6.25a.7.7,0,0,0,.694-.694V37.189a28.046,28.046,0,0,1,14.393-4.879,73.648,73.648,0,0,0,11.728-1.649,31.424,31.424,0,0,0,16.4-10.825,2.436,2.436,0,0,0-2.387-3.906ZM32.189,26.59a70.749,70.749,0,0,1-11.06,1.563A31.922,31.922,0,0,0,6.945,32.311V10.764c3.828-.747,9.514-.547,16.754,3.377,8.8,4.766,15.365,6.059,19.61,6.207A27.309,27.309,0,0,1,32.189,26.59Z" fill="url(#linear-gradient)"/>
</svg>
