<svg xmlns="http://www.w3.org/2000/svg" xmlns:xlink="http://www.w3.org/1999/xlink" width="75" height="75.141" viewBox="0 0 75 75.141">
  <defs>
    <linearGradient id="linear-gradient" x1="0.042" y1="0.264" x2="1.086" y2="0.316" gradientUnits="objectBoundingBox">
      <stop offset="0" stop-color="#fc7900"/>
      <stop offset="1" stop-color="#b318f1"/>
    </linearGradient>
  </defs>
  <path id="person-skiing-solid" d="M63.407,14.09a7.045,7.045,0,1,0-7.041-7.045A7.044,7.044,0,0,0,63.407,14.09ZM75,68.837a3.5,3.5,0,0,0-3.506-3.514c-2.772,0-2.822,2.8-6.772,2.8a5.531,5.531,0,0,1-2.329-.5L42.466,57.319l7.212-10.833A7.021,7.021,0,0,0,48.8,37.6l-5.925-5.942L27.3,23.871a9.635,9.635,0,0,0-.1,1.4,9.263,9.263,0,0,0,2.7,6.583l11.01,11.036-6.733,10.09-29.055-15a3.576,3.576,0,0,0-1.62-.4A3.515,3.515,0,0,0,1.9,44.219l57.523,29.73a12.886,12.886,0,0,0,5.441,1.191C70.451,75.132,75,71.419,75,68.837ZM17.477,13.449l-1.555,3.309a5.87,5.87,0,0,0,2.6.616A5.7,5.7,0,0,0,22.2,16.039l6.935,3.45c-.018,0-.018.018-.037.037l16.8,8.329,4.771-1.908.936,2.807a7.026,7.026,0,0,0,3.522,4.074l8.532,4.123a4.694,4.694,0,1,0,4.182-8.4L60.2,24.716,57.691,17.21c-.961-2.728-4.248-6.353-8.811-6.353a9.639,9.639,0,0,0-3.585.724L33.369,16.332,24.2,11.788q0-.076,0-.152a5.639,5.639,0,0,0-3.065-5.067L19.5,9.751l-5.1-1.03a.68.68,0,0,0-.144-.012.772.772,0,0,0-.509,1.355Z" fill="url(#linear-gradient)"/>
</svg>
