<svg xmlns="http://www.w3.org/2000/svg" viewBox="0 0 511.96 512.05"><defs><style>.cls-1,.cls-2{fill:#fc7900;}.cls-1{opacity:0.4;isolation:isolate;}</style></defs><g id="Layer_2" data-name="Layer 2"><g id="Layer_1-2" data-name="Layer 1"><path class="cls-1" d="M208,80a128,128,0,1,1-90.51,37.49A128,128,0,0,1,208,80m0-80C93.12,0,0,93.12,0,208S93.12,416,208,416s208-93.12,208-208S322.88,0,208,0Z"/><path class="cls-2" d="M235.13,199.42l-45-13.5c-5.16-1.55-8.77-6.78-8.77-12.73,0-7.27,5.3-13.19,11.8-13.19h28.11a24,24,0,0,1,12.82,3.72,8.21,8.21,0,0,0,10.13-.73L256,151.78a8,8,0,0,0,.34-11.31,7.17,7.17,0,0,0-.91-.83A57.28,57.28,0,0,0,224,128.29V112a8,8,0,0,0-8-8H200a8,8,0,0,0-8,8v16.12c-23.63.63-42.68,20.55-42.68,45.07,0,20,13,37.81,31.58,43.39l45,13.5c5.16,1.55,8.77,6.78,8.77,12.73,0,7.27-5.3,13.19-11.8,13.19H194.8a24.07,24.07,0,0,1-12.8-3.72,8.21,8.21,0,0,0-10.13.73L160.1,264.22a8,8,0,0,0-.34,11.31,7.17,7.17,0,0,0,.91.83A57.2,57.2,0,0,0,192,287.71V304a8,8,0,0,0,8,8h16a8,8,0,0,0,8-8V287.88c23.63-.63,42.68-20.54,42.68-45.07,0-20-13-37.81-31.55-43.39ZM505,442.7,405.3,343a24,24,0,0,0-17-7H372l-36,36v16.3a24,24,0,0,0,7,17L442.7,505a23.9,23.9,0,0,0,33.8.1l.1-.1,28.3-28.3A24.11,24.11,0,0,0,505,442.7Z"/></g></g></svg>