<svg xmlns="http://www.w3.org/2000/svg" xmlns:xlink="http://www.w3.org/1999/xlink" width="37.5" height="50" viewBox="0 0 37.5 50">
  <defs>
    <linearGradient id="linear-gradient" x1="0.5" x2="0.5" y2="1" gradientUnits="objectBoundingBox">
      <stop offset="0" stop-color="#ff61df"/>
      <stop offset="1" stop-color="#545454"/>
    </linearGradient>
  </defs>
  <path id="file-invoice-dollar-solid" d="M37.5,12.5H25V0ZM25,15.625H37.5V45.313A4.687,4.687,0,0,1,32.813,50H4.688A4.688,4.688,0,0,1,0,45.313V4.688A4.687,4.687,0,0,1,4.688,0H21.875V12.5A3.121,3.121,0,0,0,25,15.625ZM6.25,8.594a.787.787,0,0,0,.781.781h7.813a.785.785,0,0,0,.781-.781V7.031a.785.785,0,0,0-.781-.781H7.031a.787.787,0,0,0-.781.781Zm.781,7.031h7.813a.784.784,0,0,0,.781-.781V13.281a.784.784,0,0,0-.781-.781H7.031a.785.785,0,0,0-.781.781v1.563A.785.785,0,0,0,7.031,15.625ZM19.287,30.937l-.625-.156c-2.227-.684-2.178-1.084-2.1-1.436.134-.763,1.62-.949,2.956-.745a10.1,10.1,0,0,1,1.718.473,1.954,1.954,0,0,0,1.281-3.692,15.932,15.932,0,0,0-1.812-.515v-.648a1.953,1.953,0,1,0-3.906,0V24.8a4.843,4.843,0,0,0-4.084,3.878c-.723,4.184,3.241,5.347,4.934,5.844l.568.165c2.859.818,2.813,1.093,2.727,1.59-.134.763-1.62.952-2.96.745a13.7,13.7,0,0,1-2.311-.687l-.436-.159a1.955,1.955,0,0,0-1.3,3.687l.417.146a20.355,20.355,0,0,0,2.447.734v.66a1.953,1.953,0,0,0,3.906,0V40.8a4.823,4.823,0,0,0,4.085-3.851C25.518,32.715,21.465,31.553,19.287,30.937Z" fill="url(#linear-gradient)"/>
</svg>
