<svg xmlns="http://www.w3.org/2000/svg" xmlns:xlink="http://www.w3.org/1999/xlink" width="50" height="44.442" viewBox="0 0 50 44.442">
  <defs>
    <linearGradient id="linear-gradient" x1="0.5" x2="0.5" y2="1" gradientUnits="objectBoundingBox">
      <stop offset="0" stop-color="#ff61df"/>
      <stop offset="1" stop-color="#00f0ff"/>
    </linearGradient>
  </defs>
  <path id="hand-holding-seedling-solid" d="M41.664,0H36.109a13.794,13.794,0,0,0-9.184,3.541A16.574,16.574,0,0,1,30.537,13.61,13.894,13.894,0,0,0,41.664,0ZM22.221,13.888V23.61A1.393,1.393,0,0,0,23.61,25h2.778a1.393,1.393,0,0,0,1.389-1.389V13.888A13.884,13.884,0,0,0,13.888,0H8.333A13.884,13.884,0,0,0,22.221,13.888ZM49.068,28.479a2.873,2.873,0,0,0-3.7,0l-8.02,6.415a5.526,5.526,0,0,1-3.472,1.215H23.61a1.389,1.389,0,1,1,0-2.778h6.8a2.89,2.89,0,0,0,2.89-2.309,2.781,2.781,0,0,0-2.743-3.246H16.666a10.216,10.216,0,0,0-6.432,2.283L6.2,33.331H1.389A1.393,1.393,0,0,0,0,34.72v8.333a1.393,1.393,0,0,0,1.389,1.389H32.359a5.562,5.562,0,0,0,3.472-1.215l13.124-10.5A2.776,2.776,0,0,0,49.068,28.479Z" fill="url(#linear-gradient)"/>
</svg>
