<svg xmlns="http://www.w3.org/2000/svg" xmlns:xlink="http://www.w3.org/1999/xlink" width="50" height="34.999" viewBox="0 0 50 34.999">
  <defs>
    <linearGradient id="linear-gradient" x1="0.5" x2="0.5" y2="1" gradientUnits="objectBoundingBox">
      <stop offset="0" stop-color="#ff61df"/>
      <stop offset="1" stop-color="#00f0ff"/>
    </linearGradient>
  </defs>
  <path id="gamepad-alt-solid" d="M49.894,58.288,47.287,41.757A10.242,10.242,0,0,0,39.423,33.7h-.005a62.75,62.75,0,0,0-28.828,0,10.239,10.239,0,0,0-7.868,8.057L.114,58.288a7.642,7.642,0,0,0,7.82,8.733,8.989,8.989,0,0,0,8.553-5.831l.588-1.669h15.86l.585,1.669a8.991,8.991,0,0,0,8.554,5.831,7.642,7.642,0,0,0,7.82-8.733ZM21.879,47.958a.938.938,0,0,1-.938.938H16.879v4.063a.938.938,0,0,1-.938.938H14.066a.938.938,0,0,1-.938-.938V48.9H9.066a.938.938,0,0,1-.938-.938V46.083a.938.938,0,0,1,.938-.938h4.063V41.083a.938.938,0,0,1,.938-.937h1.875a.938.938,0,0,1,.938.938v4.063h4.063a.938.938,0,0,1,.938.938ZM33.754,53.9a3.125,3.125,0,1,1,3.125-3.125A3.125,3.125,0,0,1,33.754,53.9Zm5-7.5a3.125,3.125,0,1,1,3.125-3.125A3.125,3.125,0,0,1,38.754,46.4Z" transform="translate(-0.004 -32.022)" fill="url(#linear-gradient)"/>
</svg>
