<svg xmlns="http://www.w3.org/2000/svg" xmlns:xlink="http://www.w3.org/1999/xlink" width="50" height="40" viewBox="0 0 50 40">
  <defs>
    <linearGradient id="linear-gradient" x1="0.5" x2="0.5" y2="1" gradientUnits="objectBoundingBox">
      <stop offset="0" stop-color="#ff61df"/>
      <stop offset="1" stop-color="#545454"/>
    </linearGradient>
  </defs>
  <path id="print-search-solid" d="M10,35V27.5H22.752A12.55,12.55,0,0,1,22.5,25a12.38,12.38,0,0,1,2.563-7.5H10V5H25V8.75A1.25,1.25,0,0,0,26.25,10H30v3.559A12.4,12.4,0,0,1,35,12.5V6.035a2.5,2.5,0,0,0-.732-1.768L30.732.732A2.5,2.5,0,0,0,28.964,0H7.5A2.5,2.5,0,0,0,5,2.5V15a5,5,0,0,0-5,5v8.75A1.25,1.25,0,0,0,1.25,30H5v7.5A2.5,2.5,0,0,0,7.5,40h25A2.5,2.5,0,0,0,35,37.5,12.376,12.376,0,0,1,27.578,35Zm39.634,1.1-6.048-6.048A9.9,9.9,0,0,0,45,25,10,10,0,1,0,35,35a9.9,9.9,0,0,0,5.051-1.415L46.1,39.634a1.25,1.25,0,0,0,1.768,0l1.767-1.767a1.25,1.25,0,0,0,0-1.768ZM35,30a5,5,0,1,1,5-5A5,5,0,0,1,35,30Z" fill="url(#linear-gradient)"/>
</svg>
