<svg xmlns="http://www.w3.org/2000/svg" xmlns:xlink="http://www.w3.org/1999/xlink" width="75" height="75" viewBox="0 0 75 75">
  <defs>
    <linearGradient id="linear-gradient" x1="0.5" x2="0.5" y2="1" gradientUnits="objectBoundingBox">
      <stop offset="0" stop-color="#b318f1"/>
      <stop offset="1" stop-color="#fc7900"/>
    </linearGradient>
  </defs>
  <path id="rocket-regular" d="M53.9,15.234a5.859,5.859,0,1,0,5.86,5.86,5.859,5.859,0,0,0-5.86-5.86Zm20.084-12.4a2.567,2.567,0,0,0-1.808-1.808A53.8,53.8,0,0,0,59.935,0c-15.2,0-24.346,8.07-31.19,18.749H13.89a7.7,7.7,0,0,0-6.281,3.879L.371,37.1A4.12,4.12,0,0,0,0,38.671a3.517,3.517,0,0,0,3.516,3.515H17.085l-1.552,3.138a4.858,4.858,0,0,0,.9,5.365l7.874,7.869a4.655,4.655,0,0,0,5.37.9l3.127-1.549V71.484A3.517,3.517,0,0,0,36.322,75a4.192,4.192,0,0,0,1.57-.368L52.35,67.395a7.679,7.679,0,0,0,3.882-6.278V46.244C66.885,39.394,75,30.212,75,15.087A52.979,52.979,0,0,0,73.985,2.833ZM52.519,40.282c-5.411,2.708-17.74,8.81-24.433,12.119l-5.493-5.493c3.31-6.693,9.412-19.042,12.118-24.446,6.94-10.812,14.5-15.431,25.225-15.431a58.109,58.109,0,0,1,7.7.343,57.058,57.058,0,0,1,.33,7.711C67.965,25.746,63.341,33.3,52.519,40.282Z" fill="url(#linear-gradient)"/>
</svg>
