<svg xmlns="http://www.w3.org/2000/svg" xmlns:xlink="http://www.w3.org/1999/xlink" width="93.75" height="75" viewBox="0 0 93.75 75">
  <defs>
    <linearGradient id="linear-gradient" x1="0.5" x2="0.5" y2="1" gradientUnits="objectBoundingBox">
      <stop offset="0" stop-color="#fc7900"/>
      <stop offset="1" stop-color="#b318f1"/>
    </linearGradient>
  </defs>
  <path id="waveform-lines-solid" d="M32.813,14.063a4.656,4.656,0,0,0-4.687,4.556v37.5a4.689,4.689,0,0,0,4.556,4.819A4.885,4.885,0,0,0,37.5,56.25V18.618A4.656,4.656,0,0,0,32.813,14.063ZM4.688,32.813A4.659,4.659,0,0,0,0,37.368a4.869,4.869,0,0,0,4.556,4.819A4.888,4.888,0,0,0,9.375,37.5,4.685,4.685,0,0,0,4.688,32.813ZM46.875,0a4.659,4.659,0,0,0-4.687,4.556V70.313A4.656,4.656,0,0,0,46.743,75a4.885,4.885,0,0,0,4.819-4.687V4.556A4.659,4.659,0,0,0,46.875,0ZM18.75,28.125a4.656,4.656,0,0,0-4.687,4.556v9.507a4.656,4.656,0,0,0,4.556,4.688,4.885,4.885,0,0,0,4.819-4.687V32.681A4.656,4.656,0,0,0,18.75,28.125Zm70.313,4.688a4.662,4.662,0,0,0-4.687,4.556,4.888,4.888,0,0,0,4.688,4.819,4.659,4.659,0,0,0,4.688-4.556A4.888,4.888,0,0,0,89.063,32.813ZM60.938,18.75a4.656,4.656,0,0,0-4.687,4.556V51.431a4.689,4.689,0,0,0,4.556,4.819,4.885,4.885,0,0,0,4.819-4.687V23.306A4.656,4.656,0,0,0,60.938,18.75ZM75,9.375a4.662,4.662,0,0,0-4.687,4.556V60.938a4.656,4.656,0,0,0,4.556,4.688,4.713,4.713,0,0,0,4.819-4.687V13.931A4.659,4.659,0,0,0,75,9.375Z" fill="url(#linear-gradient)"/>
</svg>
