<svg xmlns="http://www.w3.org/2000/svg" xmlns:xlink="http://www.w3.org/1999/xlink" width="75" height="75" viewBox="0 0 75 75">
  <defs>
    <linearGradient id="linear-gradient" x1="0.5" x2="0.5" y2="1" gradientUnits="objectBoundingBox">
      <stop offset="0" stop-color="#b318f1"/>
      <stop offset="1" stop-color="#fc7900"/>
    </linearGradient>
  </defs>
  <path id="radar-regular_1_" data-name="radar-regular (1)" d="M83,45.5A37.565,37.565,0,1,1,66.54,14.489l4.571-4.571a2.419,2.419,0,0,1,3.421,0l1.71,1.71a2.419,2.419,0,0,1,0,3.421L45.794,45.5h9.384a9.677,9.677,0,1,1-10-9.645L50.4,30.632a15.123,15.123,0,0,0-4.9-.858A15.726,15.726,0,1,0,61.226,45.5h7.258a22.976,22.976,0,0,1-18.57,22.539,5.921,5.921,0,0,0-8.827,0A22.978,22.978,0,0,1,22.961,49.914a5.921,5.921,0,0,0,0-8.827A22.976,22.976,0,0,1,45.5,22.516a22.424,22.424,0,0,1,10.382,2.631l5.389-5.389a29.935,29.935,0,0,0-15.771-4.5A30.266,30.266,0,0,0,15.71,40.481a5.821,5.821,0,0,0,0,10.037A30.271,30.271,0,0,0,40.482,75.29a5.821,5.821,0,0,0,10.037,0A30.266,30.266,0,0,0,75.742,45.5Z" transform="translate(-8 -8)" fill="url(#linear-gradient)"/>
</svg>
