<svg xmlns="http://www.w3.org/2000/svg" xmlns:xlink="http://www.w3.org/1999/xlink" width="25" height="21.875" viewBox="0 0 25 21.875">
  <defs>
    <linearGradient id="linear-gradient" x1="0.5" x2="0.5" y2="1" gradientUnits="objectBoundingBox">
      <stop offset="0" stop-color="#ff61df"/>
      <stop offset="1" stop-color="#00f0ff"/>
    </linearGradient>
  </defs>
  <path id="list-ol-regular" d="M3.016,50.018l.854-.984a.973.973,0,0,0,.248-.693v-.162a.5.5,0,0,0-.554-.554H.781a.391.391,0,0,0-.391.391V48.8a.391.391,0,0,0,.391.391H1.9a7.56,7.56,0,0,0-.537.6l-.274.342a.649.649,0,0,0-.137.727L1,50.951a.6.6,0,0,0,.6.385h.231c.5,0,.778.119.778.444,0,.23-.205.4-.7.4a2.028,2.028,0,0,1-.755-.152c-.317-.189-.573-.171-.762.152l-.273.455a.525.525,0,0,0,.128.778,3.507,3.507,0,0,0,1.807.461,2.14,2.14,0,0,0,2.368-2.154A1.765,1.765,0,0,0,3.016,50.018Zm21.2-.439H8.594a.781.781,0,0,0-.781.781v.781a.781.781,0,0,0,.781.781H24.219A.781.781,0,0,0,25,51.141v-.781A.781.781,0,0,0,24.219,49.578Zm0-15.625H8.594a.781.781,0,0,0-.781.781v.781a.781.781,0,0,0,.781.781H24.219A.781.781,0,0,0,25,35.516v-.781A.781.781,0,0,0,24.219,33.953Zm0,7.813H8.594a.781.781,0,0,0-.781.781v.781a.781.781,0,0,0,.781.781H24.219A.781.781,0,0,0,25,43.328v-.781A.781.781,0,0,0,24.219,41.766ZM.781,38.25H3.906a.391.391,0,0,0,.391-.391v-.781a.391.391,0,0,0-.391-.391H3.125v-4.3A.391.391,0,0,0,2.734,32H1.563a.391.391,0,0,0-.349.216L.823,33a.391.391,0,0,0,.349.565h.391v3.125H.781a.391.391,0,0,0-.391.391v.781A.391.391,0,0,0,.781,38.25Zm-.19,7.813H3.906a.391.391,0,0,0,.391-.391v-.781a.391.391,0,0,0-.391-.391H2.018c.16-.5,2.36-.912,2.36-2.756a1.977,1.977,0,0,0-2.171-1.932,2.366,2.366,0,0,0-1.975.916.483.483,0,0,0,.136.75l.419.336c.274.223.537.121.788-.119a.654.654,0,0,1,.461-.187.416.416,0,0,1,.453.427C2.49,42.556,0,43,0,45.31v.2A.535.535,0,0,0,.591,46.063Z" transform="translate(0 -32)" fill="url(#linear-gradient)"/>
</svg>
