<svg xmlns="http://www.w3.org/2000/svg" xmlns:xlink="http://www.w3.org/1999/xlink" width="21.875" height="25" viewBox="0 0 21.875 25">
  <defs>
    <linearGradient id="linear-gradient" x1="0.5" x2="0.5" y2="1" gradientUnits="objectBoundingBox">
      <stop offset="0" stop-color="#ff61df"/>
      <stop offset="1" stop-color="#00f0ff"/>
    </linearGradient>
  </defs>
  <path id="user-ninja-solid" d="M15.889,14.121l-4.951,4.951L5.986,14.121A6.541,6.541,0,0,0,0,20.625v2.031A2.344,2.344,0,0,0,2.344,25H19.531a2.344,2.344,0,0,0,2.344-2.344V20.625A6.541,6.541,0,0,0,15.889,14.121ZM1.563,9.375a4.661,4.661,0,0,0,3.379-1.45,6.249,6.249,0,1,0,.405-4.419A4.664,4.664,0,0,0,1.563,1.563a4.675,4.675,0,0,0,2.1,3.906A4.675,4.675,0,0,0,1.563,9.375ZM8.594,4.688h4.688A1.561,1.561,0,0,1,14.844,6.25H7.031A1.561,1.561,0,0,1,8.594,4.688Z" fill="url(#linear-gradient)"/>
</svg>
