<svg xmlns="http://www.w3.org/2000/svg" xmlns:xlink="http://www.w3.org/1999/xlink" width="50" height="40" viewBox="0 0 50 40">
  <defs>
    <linearGradient id="linear-gradient" x1="0.5" x2="0.5" y2="1" gradientUnits="objectBoundingBox">
      <stop offset="0" stop-color="#ff61df"/>
      <stop offset="1" stop-color="#545454"/>
    </linearGradient>
  </defs>
  <path id="project-diagram-regular" d="M47.5,0h-10A2.5,2.5,0,0,0,35,2.5V5H15V2.5A2.5,2.5,0,0,0,12.5,0H2.5A2.5,2.5,0,0,0,0,2.5v10A2.5,2.5,0,0,0,2.5,15H9.978L17.5,28.134V37.5A2.5,2.5,0,0,0,20,40H30a2.5,2.5,0,0,0,2.5-2.5v-10A2.5,2.5,0,0,0,30,25H21.466L15,13.711V10H35v2.5A2.5,2.5,0,0,0,37.5,15h10A2.5,2.5,0,0,0,50,12.5V2.5A2.5,2.5,0,0,0,47.5,0ZM11.25,11.25H3.75V3.75h7.5Zm10,17.5h7.5v7.5h-7.5Zm25-17.5h-7.5V3.75h7.5Z" fill="url(#linear-gradient)"/>
</svg>
