<svg xmlns="http://www.w3.org/2000/svg" viewBox="0 0 512 512.06"><defs><style>.cls-1,.cls-2{fill:#ef7818;}.cls-1{opacity:0.4;isolation:isolate;}</style></defs><g id="Layer_2" data-name="Layer 2"><g id="Layer_1-2" data-name="Layer 1"><path class="cls-1" d="M506.11,203.59a24,24,0,0,0-47,9.81l.12.53c4.71,21.41,4.91,37.41,4.7,61.6a24,24,0,0,0,23.8,24.2h.2a24,24,0,0,0,24-23.8c.18-22.18.4-44.11-5.83-72.34ZM256.12,246a24,24,0,0,0-24,24,731.08,731.08,0,0,1-27.7,211.55c-2.73,9.72,2.15,30.49,23.12,30.49a24,24,0,0,0,23.09-17.52A774.14,774.14,0,0,0,280.11,270a24,24,0,0,0-24-24ZM144.57,144.47A24,24,0,0,0,110.81,148,173.43,173.43,0,0,0,72.06,260,580.79,580.79,0,0,1,63,372a24,24,0,0,0,19.36,27.87c20.11,3.5,27.07-14.81,27.89-19.36a629.41,629.41,0,0,0,9.86-121.33,123.55,123.55,0,0,1,28-81A24,24,0,0,0,144.57,144.47Z"/><path class="cls-2" d="M466,112.87A266,266,0,0,0,252.81,0C183-.8,118.47,24.93,70.46,73A238.52,238.52,0,0,0,.14,246.67L0,268.14a24,24,0,0,0,23.28,24.69H24a24,24,0,0,0,24-23.3l.16-23.64a190.77,190.77,0,0,1,56.28-139C143.19,68.11,195.77,47.24,252.11,48a217.85,217.85,0,0,1,174.62,92.39,24,24,0,1,0,40.21-26.21C466.65,113.74,466.34,113.3,466,112.87ZM254,82.14a178.67,178.67,0,0,0-45.78,5,24,24,0,1,0,11.06,46.72,143.56,143.56,0,0,1,34-3.69c75.43,1.13,137.73,61.5,138.88,134.58a880.34,880.34,0,0,1-5.58,113.63A24,24,0,0,0,407.7,405h0c16.72,2,25.51-11.88,26.58-21.11A929.74,929.74,0,0,0,440.2,264C438.64,165.22,355.13,83.64,254,82.14Zm1.22,82.11c-61.26-.07-104,47.07-103.16,101.09A656.15,656.15,0,0,1,138.7,407.89a24,24,0,1,0,46.85,10.43c.06-.24.11-.47.15-.71a703.74,703.74,0,0,0,14.37-153c-.41-26,19.92-52.49,54.45-52.34,31.31.47,57.15,25.34,57.62,55.47a804.39,804.39,0,0,1-10.61,143.55,24,24,0,0,0,19.76,27.58c20,3.33,26.81-15.1,27.58-19.77A853.14,853.14,0,0,0,360.17,267c-.88-55.85-47.94-101.93-104.91-102.77Z"/></g></g></svg>