<svg xmlns="http://www.w3.org/2000/svg" xmlns:xlink="http://www.w3.org/1999/xlink" width="50" height="36.114" viewBox="0 0 50 36.114">
  <defs>
    <linearGradient id="linear-gradient" x1="0.5" x2="0.5" y2="1" gradientUnits="objectBoundingBox">
      <stop offset="0" stop-color="#ff61df"/>
      <stop offset="1" stop-color="#545454"/>
    </linearGradient>
  </defs>
  <path id="rabbit-fast-solid" d="M11.778,94.259a1.388,1.388,0,0,0-.653,1.178v3.276a1.389,1.389,0,0,0,2.125,1.178l5.789-3.461-4.154-4.154ZM47.956,77.3l-4.9-3.005a17,17,0,0,0-.614-4.225c-.983-3.667-2.77-6.374-3.992-6.047s-1.417,3.566-.434,7.233c.056.212.125.408.187.613a19.735,19.735,0,0,0-1.416-1.59c-2.685-2.684-5.586-4.136-6.481-3.241s.556,3.8,3.241,6.481A17.151,17.151,0,0,0,36.8,76.1a5.215,5.215,0,0,0-.6,1.677,5.506,5.506,0,0,0-.065.808c-4.474-3.211-13.412-9.037-19.453-9.037a11.108,11.108,0,0,0-9.091,4.7,3.951,3.951,0,0,0-.463-.7,4.167,4.167,0,0,0-5.893,5.893,4.109,4.109,0,0,0,5.2.459L23.052,96.513a2.778,2.778,0,0,0,1.964.813h12.5a1.389,1.389,0,0,0,1.389-1.389V94.548a2.778,2.778,0,0,0-2.778-2.778H27.794V86.945a6.972,6.972,0,0,0-5.037-6.676l-3.679-1.051a1.389,1.389,0,1,1,.762-2.672L23.52,77.6a9.764,9.764,0,0,1,7.051,9.348v2.048l5.556-2.778H45.1A4.918,4.918,0,0,0,47.956,77.3ZM43.07,80.659a1.389,1.389,0,1,1,1.389-1.389A1.389,1.389,0,0,1,43.07,80.659Z" transform="translate(-0.015 -63.991)" fill="url(#linear-gradient)"/>
</svg>
