<svg xmlns="http://www.w3.org/2000/svg" width="416.06" height="512" viewBox="0 0 416.06 512">
  <g id="stopwatch-duotone" transform="translate(-16)">
    <path id="Path_748" data-name="Path 748" d="M224,96C109.12,96,16,189.12,16,304s93.12,208,208,208,208-93.12,208-208S338.88,96,224,96Zm32,240a16,16,0,0,1-16,16H208a16,16,0,0,1-16-16V208.5a16,16,0,0,1,16-16h32a16,16,0,0,1,16,16Z" fill="#fc7900" opacity="0.4"/>
    <path id="Path_749" data-name="Path 749" d="M240,192.5H208a16,16,0,0,0-16,16V336a16,16,0,0,0,16,16h32a16,16,0,0,0,16-16V208.5A16,16,0,0,0,240,192.5Zm188.53-48.57-28.3-28.3a12,12,0,0,0-17,0l-27.45,27.45a209.141,209.141,0,0,1,42.8,47.8l.55-.55,29.4-29.4a12,12,0,0,0,0-17ZM280,0H168a16,16,0,0,0-16,16V48a16,16,0,0,0,16,16h24V98.45a210,210,0,0,1,64,0V64h24a16,16,0,0,0,16-16V16A16,16,0,0,0,280,0Z" fill="#fc7900"/>
  </g>
</svg>
