<svg xmlns="http://www.w3.org/2000/svg" xmlns:xlink="http://www.w3.org/1999/xlink" width="40.625" height="50" viewBox="0 0 40.625 50">
  <defs>
    <linearGradient id="linear-gradient" x1="0.5" x2="0.5" y2="1" gradientUnits="objectBoundingBox">
      <stop offset="0" stop-color="#ff61df"/>
      <stop offset="1" stop-color="#545454"/>
    </linearGradient>
  </defs>
  <path id="stopwatch-regular" d="M52.9,17.969l2.207-2.207a1.173,1.173,0,0,0,0-1.66l-1.66-1.66a1.173,1.173,0,0,0-1.66,0L49.77,14.463A20.176,20.176,0,0,0,38.656,9.5V4.688h2.734a1.175,1.175,0,0,0,1.172-1.172V1.172A1.175,1.175,0,0,0,41.391,0H31.234a1.175,1.175,0,0,0-1.172,1.172V3.516a1.175,1.175,0,0,0,1.172,1.172h2.734V9.512A20.31,20.31,0,1,0,52.9,17.969ZM36.313,45.313A15.625,15.625,0,1,1,51.938,29.687,15.621,15.621,0,0,1,36.313,45.313Zm1.172-10.938H35.141A1.175,1.175,0,0,1,33.969,33.2V19.922a1.175,1.175,0,0,1,1.172-1.172h2.344a1.175,1.175,0,0,1,1.172,1.172V33.2A1.175,1.175,0,0,1,37.484,34.375Z" transform="translate(-16)" fill="url(#linear-gradient)"/>
</svg>
