<svg xmlns="http://www.w3.org/2000/svg" xmlns:xlink="http://www.w3.org/1999/xlink" width="37.5" height="50" viewBox="0 0 37.5 50">
  <defs>
    <linearGradient id="linear-gradient" x1="0.5" x2="0.5" y2="1" gradientUnits="objectBoundingBox">
      <stop offset="0" stop-color="#ff61df"/>
      <stop offset="1" stop-color="#545454"/>
    </linearGradient>
  </defs>
  <path id="file-plus-minus-solid" d="M25,0V12.5H37.5ZM21.875,12.5V0H4.688A4.687,4.687,0,0,0,0,4.688V45.313A4.688,4.688,0,0,0,4.688,50H32.813A4.687,4.687,0,0,0,37.5,45.313V15.625H25.088A3.142,3.142,0,0,1,21.875,12.5ZM25,42.187H12.5a1.562,1.562,0,1,1,0-3.125H25a1.562,1.562,0,1,1,0,3.125Zm1.562-15.625A1.567,1.567,0,0,1,25,28.125H20.313v4.688a1.563,1.563,0,0,1-3.125,0V28.125H12.5A1.562,1.562,0,1,1,12.5,25h4.688V20.313a1.563,1.563,0,0,1,3.125,0V25H25A1.567,1.567,0,0,1,26.562,26.562Z" fill="url(#linear-gradient)"/>
</svg>
