<svg xmlns="http://www.w3.org/2000/svg" xmlns:xlink="http://www.w3.org/1999/xlink" width="25" height="24.994" viewBox="0 0 25 24.994">
  <defs>
    <linearGradient id="linear-gradient" x1="0.5" x2="0.5" y2="1" gradientUnits="objectBoundingBox">
      <stop offset="0" stop-color="#ff61df"/>
      <stop offset="1" stop-color="#00f0ff"/>
    </linearGradient>
  </defs>
  <path id="blog-regular" d="M10.193,4.672a.782.782,0,0,0-.82.791v.781a.779.779,0,0,0,.752.771,8.548,8.548,0,0,1,7.83,7.845.784.784,0,0,0,.771.742h.791a.788.788,0,0,0,.791-.82A10.985,10.985,0,0,0,10.193,4.672Zm0-4.686a.794.794,0,0,0-.815.8v.781a.779.779,0,0,0,.752.771A13.261,13.261,0,0,1,22.651,14.85a.78.78,0,0,0,.771.757H24.2a.794.794,0,0,0,.8-.815A15.68,15.68,0,0,0,10.188-.014Zm-3.5,10.935H6.249a.783.783,0,0,0-.781.781v1.562a.783.783,0,0,0,.781.781h.532a4.063,4.063,0,0,1,4.145,4.164,3.91,3.91,0,0,1-3.632,3.637A4.059,4.059,0,0,1,3.124,17.7V5.453a.783.783,0,0,0-.781-.781H.781A.783.783,0,0,0,0,5.453V17.609a7.251,7.251,0,0,0,7.274,7.367,7.041,7.041,0,0,0,6.781-6.781A7.248,7.248,0,0,0,6.688,10.921Z" transform="translate(0 0.015)" fill="url(#linear-gradient)"/>
</svg>
