<svg xmlns="http://www.w3.org/2000/svg" xmlns:xlink="http://www.w3.org/1999/xlink" width="43.746" height="50" viewBox="0 0 43.746 50">
  <defs>
    <linearGradient id="linear-gradient" x1="0.5" x2="0.5" y2="1" gradientUnits="objectBoundingBox">
      <stop offset="0" stop-color="#ff61df"/>
      <stop offset="1" stop-color="#545454"/>
    </linearGradient>
  </defs>
  <path id="ribbon-regular" d="M42.772,39.488,32.206,28l3.662-3.935a10.886,10.886,0,0,0,1.055-13.408L33.915,5.749A11.291,11.291,0,0,0,27.821.817a21.142,21.142,0,0,0-11.816,0A11.222,11.222,0,0,0,9.911,5.749l-3.252,5.3a10.834,10.834,0,0,0,1.3,13.007L11.62,28,1.044,39.5a3.8,3.8,0,0,0,.732,5.781l6.181,4.033a3.935,3.935,0,0,0,5.019-.605l8.935-9.619L30.839,48.7a3.949,3.949,0,0,0,5.019.615l6.181-4.033a3.826,3.826,0,0,0,.732-5.791ZM32.079,11.715l.85,1.387a6.228,6.228,0,0,1-.5,7.763l-3.408,3.672L25.087,20.26l4.443-4.834a12.678,12.678,0,0,0,2.549-3.711ZM17.431,5.28a16.412,16.412,0,0,1,8.955,0,6.1,6.1,0,0,1,2.422,1.543,10.858,10.858,0,0,1-2.637,5.351L21.9,16.8l-4.336-4.717A10.687,10.687,0,0,1,15.009,6.8,5.985,5.985,0,0,1,17.431,5.28ZM9.98,45.045,5.185,41.91,14.8,31.441l3.906,4.2-8.73,9.4Zm23.857,0L11.386,20.875a6.139,6.139,0,0,1-.732-7.373l1.064-1.748a12.365,12.365,0,0,0,2.48,3.594L38.631,41.92Z" transform="translate(-0.032 0.025)" fill="url(#linear-gradient)"/>
</svg>
