<svg xmlns="http://www.w3.org/2000/svg" xmlns:xlink="http://www.w3.org/1999/xlink" width="50" height="50" viewBox="0 0 50 50">
  <defs>
    <linearGradient id="linear-gradient" x1="0.5" x2="0.5" y2="1" gradientUnits="objectBoundingBox">
      <stop offset="0" stop-color="#ff61df"/>
      <stop offset="1" stop-color="#545454"/>
    </linearGradient>
  </defs>
  <path id="ruler-combined-regular" d="M46.875,28.125h-25v-25A3.125,3.125,0,0,0,18.75,0H3.125A3.125,3.125,0,0,0,0,3.125v43.75A3.125,3.125,0,0,0,3.125,50h43.75A3.125,3.125,0,0,0,50,46.875V31.25A3.125,3.125,0,0,0,46.875,28.125ZM4.688,4.688h12.5V9.375H10.156a.781.781,0,0,0-.781.781v1.563a.781.781,0,0,0,.781.781h7.031v4.688H10.156a.781.781,0,0,0-.781.781v1.563a.781.781,0,0,0,.781.781h7.031V25H10.156a.781.781,0,0,0-.781.781v1.563a.781.781,0,0,0,.781.781h7.031V30.6L4.688,43.1ZM45.313,45.313H6.9l12.5-12.5h2.479v7.031a.781.781,0,0,0,.781.781h1.563A.781.781,0,0,0,25,39.844V32.813h4.688v7.031a.781.781,0,0,0,.781.781h1.563a.781.781,0,0,0,.781-.781V32.813H37.5v7.031a.781.781,0,0,0,.781.781h1.563a.781.781,0,0,0,.781-.781V32.813h4.688Z" fill="url(#linear-gradient)"/>
</svg>
