<svg xmlns="http://www.w3.org/2000/svg" width="25.002" height="25" viewBox="0 0 25.002 25">
  <path id="sack-dollar-solid" d="M9.373,4.688h6.25l2.314-3.473A.781.781,0,0,0,17.288,0H7.71a.781.781,0,0,0-.65,1.215Zm6.25,1.563H9.373C-.509,11.885,0,19.367,0,20.313,0,22.9,2.4,25,5.358,25H19.639c2.958,0,5.355-2.1,5.355-4.688,0-.927.457-8.458-9.371-14.062ZM13.349,19.824v.847a.424.424,0,0,1-.425.421h-.85a.424.424,0,0,1-.425-.421v-.855a3.085,3.085,0,0,1-1.668-.594.417.417,0,0,1-.032-.635L10.575,18a.436.436,0,0,1,.537-.037,1.3,1.3,0,0,0,.68.2h1.493a.663.663,0,0,0,.627-.694.679.679,0,0,0-.468-.667l-2.393-.71A2.382,2.382,0,0,1,9.373,13.8a2.356,2.356,0,0,1,2.269-2.372v-.854a.424.424,0,0,1,.427-.421h.85a.424.424,0,0,1,.425.421v.857a3.082,3.082,0,0,1,1.668.594.417.417,0,0,1,.032.635l-.622.6a.436.436,0,0,1-.537.037,1.308,1.308,0,0,0-.68-.2H11.712a.663.663,0,0,0-.627.694.68.68,0,0,0,.467.668l2.393.71a2.38,2.38,0,0,1-.6,4.652Z" transform="translate(0.004)" fill="#00f0ff"/>
</svg>
