<svg xmlns="http://www.w3.org/2000/svg" xmlns:xlink="http://www.w3.org/1999/xlink" width="50" height="44.444" viewBox="0 0 50 44.444">
  <defs>
    <linearGradient id="linear-gradient" x1="0.5" x2="0.5" y2="1" gradientUnits="objectBoundingBox">
      <stop offset="0" stop-color="#ff61df"/>
      <stop offset="1" stop-color="#545454"/>
    </linearGradient>
  </defs>
  <path id="arrow-up-right-dots-solid" d="M24.922,0a2.794,2.794,0,0,1,2.856,2.778V13.889a2.793,2.793,0,0,1-2.856,2.778,2.826,2.826,0,0,1-2.778-2.778v-4.4L4.742,26.962A2.776,2.776,0,0,1,.814,23.038L18.29,5.556H13.811a2.828,2.828,0,0,1-2.778-2.778A2.828,2.828,0,0,1,13.811,0ZM50,6.944a4.167,4.167,0,1,1-4.167-4.167A4.168,4.168,0,0,1,50,6.944ZM38.889,18.056a4.167,4.167,0,1,1-4.167-4.167A4.168,4.168,0,0,1,38.889,18.056ZM30.556,29.167a4.167,4.167,0,1,1,4.167,4.167A4.168,4.168,0,0,1,30.556,29.167Zm8.333,11.111a4.167,4.167,0,1,1-4.167-4.167A4.168,4.168,0,0,1,38.889,40.278Zm11.111,0a4.167,4.167,0,1,1-4.167-4.167A4.168,4.168,0,0,1,50,40.278ZM19.366,29.167a4.206,4.206,0,1,1,4.167,4.167A4.219,4.219,0,0,1,19.366,29.167Zm8.411,11.111a4.206,4.206,0,1,1-4.245-4.167A4.185,4.185,0,0,1,27.778,40.278Zm-19.523,0a4.219,4.219,0,0,1,4.167-4.167,4.167,4.167,0,1,1,0,8.333A4.219,4.219,0,0,1,8.255,40.278ZM50,29.167A4.167,4.167,0,1,1,45.833,25,4.168,4.168,0,0,1,50,29.167ZM41.667,18.056a4.167,4.167,0,1,1,4.167,4.167A4.168,4.168,0,0,1,41.667,18.056Z" fill="url(#linear-gradient)"/>
</svg>
