<svg xmlns="http://www.w3.org/2000/svg" width="155.436" height="57" viewBox="0 0 155.436 57"><defs><style>.a{fill:#fff;}</style></defs><g transform="translate(-0.312 -0.676)"><path class="a" d="M5.863,43.689l24.1-6.453-1.9-7.09L42.045,26.4l1.9,7.09A14.47,14.47,0,0,1,33.714,51.214L9.6,57.676ZM.805,24.858A14.468,14.468,0,0,1,11.037,7.135L35.144.676,38.89,14.653,14.783,21.1,17,29.41,3.03,33.162Z" transform="translate(0)"/><path class="a" d="M65.9,33.023c0-3.109-1.8-5.087-5.353-5.968l-3.162-.79q-2.172-.593-2.5-1.579a2.08,2.08,0,0,1,.175-1.85,3.588,3.588,0,0,1,2.887-1.141,2.685,2.685,0,0,1,2.987,2.192h4.3c-.222-4.079-3.424-6.055-7.461-6.055a8.278,8.278,0,0,0-5,1.579,5.02,5.02,0,0,0-2.327,3.817c-.309,3.382,1.53,5.622,5.773,6.806,0,0,5.551.941,5.493,2.938,0,1.539-1.537,2.458-3.641,2.458-2.327,0-3.819-1.139-4.037-2.942H49.88A6.033,6.033,0,0,0,52.292,37.4a8.819,8.819,0,0,0,5.442,1.8C62.519,39.2,65.9,36.877,65.9,33.023Z" transform="translate(1.737 0.601)"/><path class="a" d="M95.161,12.254,90.791,14.7l-.155,24.711h4.507Z" transform="translate(3.165 0.406)"/><path class="a" d="M77.781,39.205A10.194,10.194,0,0,0,87.236,33.9l-3.861-1.87a6.217,6.217,0,0,1-5.391,3.237,5.895,5.895,0,0,1-6.3-5.107l16.28-.073A14.846,14.846,0,0,0,88,28.418a10.351,10.351,0,0,0-2.931-7.667,9.843,9.843,0,0,0-7.387-2.906,10.258,10.258,0,0,0-7.492,2.962A10.112,10.112,0,0,0,67.2,28.5a10.287,10.287,0,0,0,10.58,10.7Zm-.122-16.862a5.576,5.576,0,0,1,5.893,4.336l-11.682-.053a5.89,5.89,0,0,1,5.791-4.283Z" transform="translate(2.343 0.601)"/><path class="a" d="M148.087,20.831a11.324,11.324,0,0,0-15.223,0,10.128,10.128,0,0,0-3.075,7.687,10.384,10.384,0,0,0,3.071,7.771,11.154,11.154,0,0,0,15.186,0,10.288,10.288,0,0,0,3.159-7.771,10.154,10.154,0,0,0-3.118-7.687Zm-3.2,12.288a6.308,6.308,0,0,1-8.835,0,6.244,6.244,0,0,1-1.8-4.61,5.932,5.932,0,0,1,1.8-4.474,6.125,6.125,0,0,1,4.394-1.712,5.994,5.994,0,0,1,6.233,6.186,6.254,6.254,0,0,1-1.792,4.607Z" transform="translate(4.536 0.603)"/><path class="a" d="M99.026,10.807V39.531h4.507l.016-31.1Z" transform="translate(3.459 0.272)"/><path class="a" d="M127.829,35.754v-17.9l-4.44,2.289v1.177a8.042,8.042,0,0,0-6.937-3.468,10.149,10.149,0,0,0-7.327,2.986,10.37,10.37,0,0,0-3.026,7.771,10.25,10.25,0,0,0,3.026,7.68,10.1,10.1,0,0,0,7.327,2.94,7.867,7.867,0,0,0,6.939-3.553v1.055c0,5.4-2.28,8.073-6.846,8.073A6.579,6.579,0,0,1,110.8,41.38l-1.887.926-1.85.964a10.578,10.578,0,0,0,9.481,5.749Q127.812,49,127.829,35.754Zm-6.452-2.587a6.425,6.425,0,0,1-4.394,1.712,6.014,6.014,0,0,1-4.441-1.756,6.633,6.633,0,0,1,0-9.084,6.349,6.349,0,0,1,8.827,9.128Z" transform="translate(3.706 0.601)"/></g></svg>