<svg xmlns="http://www.w3.org/2000/svg" viewBox="0 0 512 512.01"><defs><style>.cls-1,.cls-2{fill:#ef7818;}.cls-1{opacity:0.4;isolation:isolate;}</style></defs><g id="Layer_2" data-name="Layer 2"><g id="Layer_1-2" data-name="Layer 1"><path class="cls-1" d="M80,0,53.34,53.33,0,80l53.34,26.67L80,160l26.66-53.33L160,80,106.66,53.33ZM272,48,240,32,224,0,208,32,176,48l32,16,16,32,16-32ZM458.66,341.33,432,288l-26.66,53.33L352,368l53.34,26.67L432,448l26.66-53.33L512,368ZM399,243.07l86.6-86.55,17-17a32,32,0,0,0,0-45.25h0l-17-17L434.74,26.4l-17-17a32,32,0,0,0-45.25,0l-17,17L269,112.94l-39.62,39.6L269,192.15l50.91,50.91,39.59,39.58Zm-90.5-90.52L395.14,66l50.91,50.91-86.6,86.55Z"/><path class="cls-2" d="M359.44,282.64l-220,220a32,32,0,0,1-45.25,0L9.38,417.77a32,32,0,0,1,0-45.25l220-220Z"/></g></g></svg>