<svg id="share-alt-duotone" xmlns="http://www.w3.org/2000/svg" width="448" height="512" viewBox="0 0 448 512">
  <path id="Path_752" data-name="Path 752" d="M155.79,180.9l102.49-64.06a95.93,95.93,0,0,0,33.93,54.26L189.72,235.16a95.93,95.93,0,0,0-33.93-54.26Zm136.42,160L189.72,276.84a95.93,95.93,0,0,1-33.93,54.26l102.49,64.06a95.93,95.93,0,0,1,33.93-54.26Z" fill="#fc7900" opacity="0.4"/>
  <path id="Path_753" data-name="Path 753" d="M96,160a96,96,0,1,0,96,96,96,96,0,0,0-96-96Zm256,32a96,96,0,1,0-96-96,96,96,0,0,0,96,96Zm0,128a96,96,0,1,0,96,96A96,96,0,0,0,352,320Z" fill="#fc7900"/>
</svg>
