<svg xmlns="http://www.w3.org/2000/svg" xmlns:xlink="http://www.w3.org/1999/xlink" width="46.88" height="50" viewBox="0 0 46.88 50">
  <defs>
    <linearGradient id="linear-gradient" x1="0.5" x2="0.5" y2="1" gradientUnits="objectBoundingBox">
      <stop offset="0" stop-color="#ff61df"/>
      <stop offset="1" stop-color="#545454"/>
    </linearGradient>
  </defs>
  <path id="shield-check-regular" d="M30.376,22.534a1.182,1.182,0,0,0-1.66-.01l-2.217,2.2a1.182,1.182,0,0,0-.01,1.66l8.868,8.936a1.182,1.182,0,0,0,1.66.01l16.857-16.72a1.182,1.182,0,0,0,.01-1.66l-2.2-2.217a1.182,1.182,0,0,0-1.66-.01L36.217,28.414ZM60,8.2,41.247.384a4.7,4.7,0,0,0-3.6,0L18.891,8.2A4.683,4.683,0,0,0,16,12.524C16,31.91,27.183,45.31,37.633,49.666a4.7,4.7,0,0,0,3.6,0c8.37-3.487,21.643-15.529,21.643-37.142A4.689,4.689,0,0,0,60,8.2ZM39.44,45.339c-9.522-3.965-18.752-16.281-18.752-32.816L39.44,4.71l18.752,7.813C58.192,29.5,48.581,41.53,39.44,45.339Z" transform="translate(-16 -0.025)" fill="url(#linear-gradient)"/>
</svg>
