<svg xmlns="http://www.w3.org/2000/svg" viewBox="0 0 384 512"><defs><style>.cls-1,.cls-2{fill:#ef7818;}.cls-1{opacity:0.4;isolation:isolate;}</style></defs><g id="Layer_2" data-name="Layer 2"><g id="Layer_1-2" data-name="Layer 1"><path class="cls-1" d="M336,64H256a64,64,0,0,1,64,64H64a64,64,0,0,1,64-64H48A48,48,0,0,0,0,112V464a48,48,0,0,0,48,48H336a48,48,0,0,0,48-48h0V112A48,48,0,0,0,336,64ZM96,424a23.94,23.94,0,1,1,.12,0Zm0-96a23.94,23.94,0,1,1,.12,0Zm0-96a23.94,23.94,0,1,1,.12,0ZM320,408a8,8,0,0,1-8,8H168a8,8,0,0,1-8-8V392a8,8,0,0,1,8-8H312a8,8,0,0,1,8,8Zm0-96a8,8,0,0,1-8,8H168a8,8,0,0,1-8-8V296a8,8,0,0,1,8-8H312a8,8,0,0,1,8,8Zm0-96a8,8,0,0,1-8,8H168a8,8,0,0,1-8-8V200a8,8,0,0,1,8-8H312a8,8,0,0,1,8,8Z"/><path class="cls-2" d="M96,376a23.94,23.94,0,1,0,.12,0Zm0-96a23.94,23.94,0,1,0,.12,0Zm0-96a23.94,23.94,0,1,0,.12,0ZM256,64a64,64,0,0,0-128,0,64,64,0,0,0-64,64H320A64,64,0,0,0,256,64ZM192,88a23.94,23.94,0,1,1,.12,0Z"/></g></g></svg>