<svg xmlns="http://www.w3.org/2000/svg" xmlns:xlink="http://www.w3.org/1999/xlink" width="50" height="45.162" viewBox="0 0 50 45.162">
  <defs>
    <linearGradient id="linear-gradient" x1="0.5" x2="0.5" y2="1" gradientUnits="objectBoundingBox">
      <stop offset="0" stop-color="#ff61df"/>
      <stop offset="1" stop-color="#545454"/>
    </linearGradient>
  </defs>
  <path id="sort-amount-up-regular" d="M45.045,66.682H38.593a1.613,1.613,0,0,0-1.613,1.613v1.613a1.613,1.613,0,0,0,1.613,1.613h6.452a1.613,1.613,0,0,0,1.613-1.613V68.295A1.613,1.613,0,0,0,45.045,66.682Zm-27.823-25h4.436V75.553a1.613,1.613,0,0,0,1.613,1.613h1.613A1.613,1.613,0,0,0,26.5,75.553V41.681h4.436a1.21,1.21,0,0,0,.88-2.04l-6.855-7.258a1.21,1.21,0,0,0-1.758,0l-6.855,7.258a1.21,1.21,0,0,0,.878,2.04Zm40.727,5.645H38.593a1.613,1.613,0,0,0-1.613,1.613v1.613a1.613,1.613,0,0,0,1.613,1.613H57.949a1.613,1.613,0,0,0,1.613-1.613V48.939A1.613,1.613,0,0,0,57.949,47.326ZM64.4,37.649H38.593a1.613,1.613,0,0,0-1.613,1.613v1.613a1.613,1.613,0,0,0,1.613,1.613H64.4a1.613,1.613,0,0,0,1.613-1.613V39.262A1.613,1.613,0,0,0,64.4,37.649ZM51.5,57h-12.9a1.613,1.613,0,0,0-1.613,1.613V60.23a1.613,1.613,0,0,0,1.613,1.613H51.5A1.613,1.613,0,0,0,53.11,60.23V58.617A1.613,1.613,0,0,0,51.5,57Z" transform="translate(-16.013 -32.004)" fill="url(#linear-gradient)"/>
</svg>
