<svg xmlns="http://www.w3.org/2000/svg" xmlns:xlink="http://www.w3.org/1999/xlink" width="50" height="47.761" viewBox="0 0 50 47.761">
  <defs>
    <linearGradient id="linear-gradient" x1="0.5" x2="0.5" y2="1" gradientUnits="objectBoundingBox">
      <stop offset="0" stop-color="#ff61df"/>
      <stop offset="1" stop-color="#545454"/>
    </linearGradient>
  </defs>
  <path id="star-half-alt-regular" d="M36.446,41.008l-.741.549-2.089,3.965,3.607,1.892a2.965,2.965,0,0,0,1.383.345,3.058,3.058,0,0,0,2.308-1.081,2.892,2.892,0,0,0,.691-1.884l-.738-4.542-4.423.757ZM26.033,36.53a2.208,2.208,0,0,0-2.069-.037L13.393,42.037l2.223-12.9-9.4-9.144L19.206,18.1l5.8-11.743.935,1.893,4.025-1.979L27.691,1.661A2.985,2.985,0,0,0,25,0a2.927,2.927,0,0,0-2.675,1.661l-6.1,12.349L2.568,16A2.985,2.985,0,0,0,.916,21.09L10.794,30.7,8.458,44.271a2.916,2.916,0,0,0,.647,2.41,3.047,3.047,0,0,0,2.3,1.081,2.942,2.942,0,0,0,1.386-.35L25.01,41l4.252,2.23,2.089-3.965-5.3-2.778-.021.037ZM30.812,18.1,37.9,19.132l.648-4.431-4.754-.691-2.124-4.3-4.025,1.979,3.17,6.41Zm19.05-.058A2.971,2.971,0,0,0,47.447,16l-4.041-.589-.648,4.431.3.879,3.132,3.207,2.923-2.843a2.941,2.941,0,0,0,.9-2.114l-.147-.926ZM34.4,29.135l1.214,7.045,4.423-.757L39.224,30.7l3.438-3.345L39.53,24.146Z" transform="translate(-0.01)" fill="url(#linear-gradient)"/>
</svg>
