<svg xmlns="http://www.w3.org/2000/svg" width="39.375" height="35" viewBox="0 0 39.375 35"><defs><style>.a{fill:#fff;}</style></defs><path class="a" d="M7.656,3.281H27.344V6.563h3.281V3.281A3.281,3.281,0,0,0,27.344,0H7.656A3.281,3.281,0,0,0,4.375,3.281v9.844H7.656ZM22.969,15.313H3.281A3.281,3.281,0,0,0,0,18.594V31.719A3.281,3.281,0,0,0,3.281,35H22.969a3.281,3.281,0,0,0,3.281-3.281V18.594A3.281,3.281,0,0,0,22.969,15.313Zm0,16.406H3.281V23.513c.991.753,5.469,3.973,5.469,3.973.987.766,2.64,2.045,4.375,2.045s3.388-1.28,4.375-2.045c0,0,4.478-3.22,5.469-3.973Zm0-12.21c-.162.126-7.643,5.6-8,5.848a4.162,4.162,0,0,1-1.84.893,4.7,4.7,0,0,1-2.153-1.2c-.233-.186-7.528-5.635-7.69-5.761v-.7H22.969ZM36.094,8.75H16.406a3.281,3.281,0,0,0-3.281,3.281v1.094h3.281V12.031H36.094V25.156H28.438v3.281h7.656a3.281,3.281,0,0,0,3.281-3.281V12.031A3.281,3.281,0,0,0,36.094,8.75Zm-6.562,5.469v4.375h4.375V14.219Z"/></svg>