<svg xmlns="http://www.w3.org/2000/svg" xmlns:xlink="http://www.w3.org/1999/xlink" width="39.375" height="35" viewBox="0 0 39.375 35">
  <defs>
    <linearGradient id="linear-gradient" x1="0.5" x2="0.5" y2="1" gradientUnits="objectBoundingBox">
      <stop offset="0" stop-color="#ff61df"/>
      <stop offset="1" stop-color="#00f0ff"/>
    </linearGradient>
  </defs>
  <path id="shopping-cart-regular" d="M37.734,4.375H9.863l-.6-3.049A1.641,1.641,0,0,0,7.656,0H.82A.82.82,0,0,0,0,.82V2.461a.82.82,0,0,0,.82.82H6.305L11.063,27.6a4.375,4.375,0,1,0,6.944.841h9.924a4.375,4.375,0,1,0,6.818-.967l.071-.325a1.641,1.641,0,0,0-1.6-1.989H13.929l-.642-3.281H34.643a1.641,1.641,0,0,0,1.6-1.292L39.337,6.364A1.641,1.641,0,0,0,37.734,4.375ZM14.219,32.266a1.641,1.641,0,1,1,1.641-1.641A1.642,1.642,0,0,1,14.219,32.266Zm17.5,0a1.641,1.641,0,1,1,1.641-1.641A1.642,1.642,0,0,1,31.719,32.266Zm1.6-13.672H12.645L10.5,7.656H35.7Z" fill="url(#linear-gradient)"/>
</svg>
