<svg xmlns="http://www.w3.org/2000/svg" xmlns:xlink="http://www.w3.org/1999/xlink" width="35.007" height="35" viewBox="0 0 35.007 35">
  <defs>
    <linearGradient id="linear-gradient" x1="0.5" x2="0.5" y2="1" gradientUnits="objectBoundingBox">
      <stop offset="0" stop-color="#ff61df"/>
      <stop offset="1" stop-color="#00f0ff"/>
    </linearGradient>
  </defs>
  <path id="flag-usa-regular" d="M32.3,0a3.553,3.553,0,0,0-1.449.314,19.729,19.729,0,0,1-8.142,2.071C18.19,2.386,15.565.027,10.35.027a24.116,24.116,0,0,0-7.144,1.23A1.617,1.617,0,0,0,1.641,0,1.637,1.637,0,0,0,0,1.641V34.18A.823.823,0,0,0,.82,35H2.461a.823.823,0,0,0,.82-.82V27.214a22.176,22.176,0,0,1,6.733-1.128c5.551,0,9.42,2.352,14.978,2.352a23.388,23.388,0,0,0,8.456-1.709A2.334,2.334,0,0,0,35.007,24.6V2.283A2.478,2.478,0,0,0,32.3,0ZM12.031,2.734a1.094,1.094,0,1,1-1.094,1.094A1.1,1.1,0,0,1,12.031,2.734Zm0,3.828a1.094,1.094,0,1,1-1.094,1.094A1.1,1.1,0,0,1,12.031,6.563ZM7.109,2.734A1.094,1.094,0,1,1,6.016,3.828,1.1,1.1,0,0,1,7.109,2.734Zm0,3.828A1.094,1.094,0,1,1,6.016,7.656,1.1,1.1,0,0,1,7.109,6.563Zm24.609,17.3c-5.4,1.941-8.6,1.415-13.426.212-4.99-1.244-9.037-1.969-15.012-.3V20c6.33-2.222,9.98-1.326,13.822-.355,3.705.937,7.766,2.058,14.615-.089Zm0-7.766c-6.323,2.215-9.98,1.326-13.815.355-3.931-.991-8.025-1.982-14.622.089V12.332c6.33-2.222,9.98-1.326,13.822-.355,3.705.943,7.766,2.064,14.615-.082Zm0-7.656C25.122,10.753,21.4,9.68,17.5,8.7V4.854a18.3,18.3,0,0,0,5.209.813,22.4,22.4,0,0,0,9.01-2.153Z" fill="url(#linear-gradient)"/>
</svg>
