<svg xmlns="http://www.w3.org/2000/svg" xmlns:xlink="http://www.w3.org/1999/xlink" width="43.75" height="35" viewBox="0 0 43.75 35">
  <defs>
    <linearGradient id="linear-gradient" x1="0.5" x2="0.5" y2="1" gradientUnits="objectBoundingBox">
      <stop offset="0" stop-color="#ff61df"/>
      <stop offset="1" stop-color="#00f0ff"/>
    </linearGradient>
  </defs>
  <path id="boxes-regular" d="M40.469,15.313H32.813V3.281A3.282,3.282,0,0,0,29.531,0H14.219a3.282,3.282,0,0,0-3.281,3.281V15.313H3.281A3.282,3.282,0,0,0,0,18.594V31.719A3.282,3.282,0,0,0,3.281,35H40.469a3.282,3.282,0,0,0,3.281-3.281V18.594A3.282,3.282,0,0,0,40.469,15.313ZM14.219,3.281h4.375v6.2l3.281-1.456,3.281,1.456v-6.2h4.375V15.313H14.219Zm6.016,28.438H3.281V18.594H8.75v6.2l3.281-1.456,3.281,1.456v-6.2h4.922Zm20.234,0H23.516V18.594h4.922v6.2l3.281-1.456L35,24.794v-6.2h5.469Z" fill="url(#linear-gradient)"/>
</svg>
