<svg xmlns="http://www.w3.org/2000/svg" xmlns:xlink="http://www.w3.org/1999/xlink" width="43.75" height="35" viewBox="0 0 43.75 35">
  <defs>
    <linearGradient id="linear-gradient" x1="0.5" x2="0.5" y2="1" gradientUnits="objectBoundingBox">
      <stop offset="0" stop-color="#ff61df"/>
      <stop offset="1" stop-color="#00f0ff"/>
    </linearGradient>
  </defs>
  <path id="tags-regular" d="M42.789,20.086,28.836,34.039a3.281,3.281,0,0,1-4.64,0l-.025-.025,16.3-16.249L22.654,0h3.331A3.281,3.281,0,0,1,28.3.961L42.789,15.445a3.281,3.281,0,0,1,0,4.64Zm-8.75,0L20.086,34.039a3.281,3.281,0,0,1-4.64,0L.961,19.555A3.281,3.281,0,0,1,0,17.235V3.281A3.281,3.281,0,0,1,3.281,0H17.235a3.281,3.281,0,0,1,2.32.961L34.039,15.445A3.281,3.281,0,0,1,34.039,20.086Zm-2.32-2.32L17.235,3.281H3.281V17.235L17.766,31.718ZM9.844,6.562a3.281,3.281,0,1,0,3.281,3.281A3.281,3.281,0,0,0,9.844,6.562Z" fill="url(#linear-gradient)"/>
</svg>
