<svg xmlns="http://www.w3.org/2000/svg" width="35" height="35" viewBox="0 0 35 35"><defs><style>.a{fill:#fff;}</style></defs><path class="a" d="M17.5,8A17.5,17.5,0,1,0,35,25.5,17.5,17.5,0,0,0,17.5,8Zm-2.258,3.585v.8A1.13,1.13,0,0,1,13.6,13.391l-1.694-.847a14.246,14.246,0,0,1,3.331-.96ZM17.5,37.679v1.933A14.093,14.093,0,0,1,4.629,19.735c.7,1.037,1.778,2.639,2.442,3.606A7.874,7.874,0,0,0,8.348,24.8l.056.049a10.29,10.29,0,0,0,2.23,1.538c.988.494,2.427,1.284,3.444,1.842a2.248,2.248,0,0,1,1.164,1.976v2.258a2.254,2.254,0,0,0,.663,1.595A5.3,5.3,0,0,1,17.5,37.679Zm3.013,1.6,1.228-3.309c.141-.388.233-.79.339-1.193a1.705,1.705,0,0,1,.438-.755l.8-.8a3.272,3.272,0,0,0,.967-2.329,2.158,2.158,0,0,0-.628-1.524l-.967-.967a2.254,2.254,0,0,0-1.595-.663H16.371c-.663-.332-1.517-2.258-2.258-2.258a4.79,4.79,0,0,1-2.138-.508l-.783-.388a.851.851,0,0,1-.466-.755.841.841,0,0,1,.579-.8l2.2-.734a1.119,1.119,0,0,1,1.094.219l.656.572a.556.556,0,0,0,.367.141h.4a.568.568,0,0,0,.508-.819l-1.1-2.2a.559.559,0,0,1,.113-.656l.7-.677a.555.555,0,0,1,.4-.162h.635a.571.571,0,0,0,.4-.162l.565-.565a.566.566,0,0,0,0-.8l-.332-.332a.566.566,0,0,1,0-.8l.727-.727.332-.332a1.133,1.133,0,0,0,0-1.595l-2-2c.176-.007.353-.028.536-.028A14.118,14.118,0,0,1,30.11,19.2l-.917.459a1.75,1.75,0,0,0-.649.572L27.16,22.3a1.684,1.684,0,0,0,0,1.877l1.27,1.905a1.712,1.712,0,0,0,.995.706l2.06.515A14.139,14.139,0,0,1,20.513,39.281Z" transform="translate(0 -8)"/></svg>