<svg xmlns="http://www.w3.org/2000/svg" width="39.375" height="35" viewBox="0 0 39.375 35"><defs><style>.a{fill:#fff;}</style></defs><path class="a" d="M18.594,16.406A1.094,1.094,0,0,0,19.688,17.5h1.094a1.094,1.094,0,0,0,1.094-1.094V14.219h5.469V17.5h3.281V13.125a2.188,2.188,0,0,0-2.187-2.187H21.875V6.563a6.562,6.562,0,1,0-13.125,0v4.375H2.188A2.187,2.187,0,0,0,0,13.125v17.5a2.187,2.187,0,0,0,2.188,2.188h8.75V29.531H3.281V14.219H8.75v2.188A1.094,1.094,0,0,0,9.844,17.5h1.094a1.094,1.094,0,0,0,1.094-1.094V14.219h6.563Zm-6.562-5.469V6.563a3.281,3.281,0,1,1,6.563,0v4.375Zm25.156,8.75H15.313a2.188,2.188,0,0,0-2.187,2.188V32.813A2.188,2.188,0,0,0,15.313,35H37.188a2.188,2.188,0,0,0,2.188-2.187V21.875A2.187,2.187,0,0,0,37.188,19.688Zm-7.656,3.281a3.281,3.281,0,0,1-6.562,0Zm6.563,8.75H16.406v-8.75h3.3a6.693,6.693,0,0,0,5.679,6.507,6.571,6.571,0,0,0,7.426-6.507h3.281Z"/></svg>