<svg xmlns="http://www.w3.org/2000/svg" xmlns:xlink="http://www.w3.org/1999/xlink" width="50" height="43.75" viewBox="0 0 50 43.75">
  <defs>
    <linearGradient id="linear-gradient" x1="0.5" x2="0.5" y2="1" gradientUnits="objectBoundingBox">
      <stop offset="0" stop-color="#ff61df"/>
      <stop offset="1" stop-color="#545454"/>
    </linearGradient>
  </defs>
  <path id="strikethrough-regular" d="M14.687,49.188H25.738l-4.522-2.262a4.458,4.458,0,0,1,0-7.977,6.634,6.634,0,0,1,2.96-.7h6.1a4.452,4.452,0,0,1,3.564,1.783L35.311,42a1.562,1.562,0,0,0,2.188.313L40,40.438a1.562,1.562,0,0,0,.313-2.187l-1.476-1.969A10.687,10.687,0,0,0,30.283,32H24.176a12.938,12.938,0,0,0-5.756,1.358,10.66,10.66,0,0,0-5.877,10.547A10.225,10.225,0,0,0,14.687,49.188Zm33.751,3.125H1.563A1.562,1.562,0,0,0,0,53.875v1.563A1.562,1.562,0,0,0,1.562,57H48.438A1.562,1.562,0,0,0,50,55.438V53.875A1.562,1.562,0,0,0,48.438,52.313ZM39.4,60.125H30.511l1.4.7a4.458,4.458,0,0,1,0,7.977,6.634,6.634,0,0,1-2.96.7h-6.1a4.453,4.453,0,0,1-3.564-1.783l-1.473-1.965a1.563,1.563,0,0,0-2.187-.313l-2.5,1.874a1.562,1.562,0,0,0-.313,2.188l1.476,1.97a10.687,10.687,0,0,0,8.555,4.28h6.107A12.932,12.932,0,0,0,34.7,74.392a10.66,10.66,0,0,0,5.878-10.547A9.879,9.879,0,0,0,39.4,60.125Z" transform="translate(0 -32)" fill="url(#linear-gradient)"/>
</svg>
