<svg xmlns="http://www.w3.org/2000/svg" xmlns:xlink="http://www.w3.org/1999/xlink" width="50" height="40" viewBox="0 0 50 40">
  <defs>
    <linearGradient id="linear-gradient" x1="0.5" x2="0.5" y2="1" gradientUnits="objectBoundingBox">
      <stop offset="0" stop-color="#ff61df"/>
      <stop offset="1" stop-color="#545454"/>
    </linearGradient>
  </defs>
  <path id="tags-regular_1_" data-name="tags-regular (1)" d="M48.9,22.955,32.955,38.9a3.75,3.75,0,0,1-5.3,0l-.028-.028L46.25,20.3,25.89,0H29.7a3.75,3.75,0,0,1,2.652,1.1L48.9,17.652a3.75,3.75,0,0,1,0,5.3Zm-10,0L22.955,38.9a3.75,3.75,0,0,1-5.3,0L1.1,22.348A3.75,3.75,0,0,1,0,19.7V3.75A3.75,3.75,0,0,1,3.75,0H19.7a3.75,3.75,0,0,1,2.652,1.1L38.9,17.652A3.75,3.75,0,0,1,38.9,22.955ZM36.25,20.3,19.7,3.75H3.75V19.7L20.3,36.25Zm-25-12.8A3.75,3.75,0,1,0,15,11.25,3.75,3.75,0,0,0,11.25,7.5Z" fill="url(#linear-gradient)"/>
</svg>
