<svg xmlns="http://www.w3.org/2000/svg" xmlns:xlink="http://www.w3.org/1999/xlink" width="50" height="35" viewBox="0 0 50 35">
  <defs>
    <linearGradient id="linear-gradient" x1="0.5" x2="0.5" y2="1" gradientUnits="objectBoundingBox">
      <stop offset="0" stop-color="#ff61df"/>
      <stop offset="1" stop-color="#545454"/>
    </linearGradient>
  </defs>
  <path id="tally-solid" d="M49.936,42.741l-.773-2.377a1.25,1.25,0,0,0-1.575-.8L42.5,41.209V33.25A1.25,1.25,0,0,0,41.248,32h-2.5a1.25,1.25,0,0,0-1.25,1.25v9.577l-5,1.618V33.25A1.25,1.25,0,0,0,31.248,32h-2.5a1.25,1.25,0,0,0-1.25,1.25V46.063l-5,1.618V33.25A1.25,1.25,0,0,0,21.248,32h-2.5a1.25,1.25,0,0,0-1.25,1.25V49.3l-5,1.618V33.25A1.25,1.25,0,0,0,11.248,32h-2.5A1.25,1.25,0,0,0,7.5,33.25V52.536L.862,54.684a1.249,1.249,0,0,0-.8,1.575l.773,2.377a1.25,1.25,0,0,0,1.575.8L7.5,57.791V65.75A1.25,1.25,0,0,0,8.748,67h2.5a1.25,1.25,0,0,0,1.25-1.25V56.173l5-1.618v11.2A1.25,1.25,0,0,0,18.748,67h2.5a1.25,1.25,0,0,0,1.25-1.25V52.937l5-1.618V65.75A1.25,1.25,0,0,0,28.748,67h2.5a1.25,1.25,0,0,0,1.25-1.25V49.7l5-1.618V65.75A1.25,1.25,0,0,0,38.748,67h2.5a1.25,1.25,0,0,0,1.25-1.25V46.464l6.636-2.148A1.249,1.249,0,0,0,49.936,42.741Z" transform="translate(0.002 -32)" fill="url(#linear-gradient)"/>
</svg>
