<svg xmlns="http://www.w3.org/2000/svg" xmlns:xlink="http://www.w3.org/1999/xlink" width="50" height="43.75" viewBox="0 0 50 43.75">
  <defs>
    <linearGradient id="linear-gradient" x1="0.5" x2="0.5" y2="1" gradientUnits="objectBoundingBox">
      <stop offset="0" stop-color="#ff61df"/>
      <stop offset="1" stop-color="#545454"/>
    </linearGradient>
  </defs>
  <path id="tasks-alt-regular" d="M47.656,31H2.344A2.5,2.5,0,0,0,0,33.637v7.227A2.5,2.5,0,0,0,2.344,43.5H47.656A2.5,2.5,0,0,0,50,40.863V33.637A2.5,2.5,0,0,0,47.656,31ZM29.688,38.813h-25V35.688h25Zm15.625,0H34.375V35.688H45.313ZM47.656,62.25H2.344A2.5,2.5,0,0,0,0,64.887v7.227A2.5,2.5,0,0,0,2.344,74.75H47.656A2.5,2.5,0,0,0,50,72.113V64.887A2.5,2.5,0,0,0,47.656,62.25ZM23.438,70.063H4.688V66.938h18.75Zm21.875,0H28.125V66.938H45.313Zm2.344-23.437H2.344A2.5,2.5,0,0,0,0,49.262v7.227a2.5,2.5,0,0,0,2.344,2.637H47.656A2.5,2.5,0,0,0,50,56.488V49.262A2.5,2.5,0,0,0,47.656,46.625ZM10.938,54.438H4.688V51.313h6.25Zm34.375,0H15.625V51.313H45.313Z" transform="translate(0 -31)" fill="url(#linear-gradient)"/>
</svg>
