<svg width="24" height="24" viewBox="0 0 24 24" fill="none" xmlns="http://www.w3.org/2000/svg">
<path d="M24 2.84126C23.117 3.32363 22.168 3.64848 21.172 3.79491C22.189 3.04553 22.97 1.85808 23.337 0.442986C22.386 1.137 21.332 1.64151 20.21 1.91345C19.313 0.735849 18.032 0 16.616 0C13.437 0 11.101 3.64971 11.819 7.43847C7.728 7.18622 4.1 4.7744 1.671 1.1087C0.381 3.83183 1.002 7.39417 3.194 9.19811C2.388 9.16612 1.628 8.89417 0.965 8.44011C0.911 11.2469 2.546 13.8728 4.914 14.4573C4.221 14.6887 3.462 14.7428 2.69 14.5607C3.316 16.9676 5.134 18.7186 7.29 18.7678C5.22 20.765 2.612 21.6571 0 21.2781C2.179 22.9971 4.768 24 7.548 24C16.69 24 21.855 14.4992 21.543 5.97785C22.505 5.12264 23.34 4.05578 24 2.84126V2.84126Z" fill="#FDF9F9"/>
</svg>
