<svg width="40" height="40" viewBox="0 0 40 40" fill="none" xmlns="http://www.w3.org/2000/svg">
<path d="M40 4.73544C38.5283 5.53938 36.9467 6.0808 35.2867 6.32486C36.9817 5.07588 38.2833 3.0968 38.895 0.73831C37.31 1.895 35.5533 2.73585 33.6833 3.18909C32.1883 1.22642 30.0533 0 27.6933 0C22.395 0 18.5017 6.08285 19.6983 12.3975C12.88 11.977 6.83333 7.95734 2.785 1.84783C0.635 6.38638 1.67 12.3236 5.32333 15.3302C3.98 15.2769 2.71333 14.8236 1.60833 14.0669C1.51833 18.7449 4.24333 23.1214 8.19 24.0956C7.035 24.4811 5.77 24.5714 4.48333 24.2678C5.52667 28.2793 8.55667 31.1977 12.15 31.2797C8.7 34.6083 4.35333 36.0952 0 35.4635C3.63167 38.3285 7.94667 40 12.58 40C27.8167 40 36.425 24.1653 35.905 9.96308C37.5083 8.53773 38.9 6.75964 40 4.73544V4.73544Z" fill="#349AF8"/>
</svg>
