<svg xmlns="http://www.w3.org/2000/svg" xmlns:xlink="http://www.w3.org/1999/xlink" width="37.5" height="50" viewBox="0 0 37.5 50">
  <defs>
    <linearGradient id="linear-gradient" x1="0.5" x2="0.5" y2="1" gradientUnits="objectBoundingBox">
      <stop offset="0" stop-color="#ff61df"/>
      <stop offset="1" stop-color="#545454"/>
    </linearGradient>
  </defs>
  <path id="file-upload-regular" d="M36.116,9.568,27.924,1.377A4.687,4.687,0,0,0,24.614,0H4.687A4.7,4.7,0,0,0,0,4.7V45.313A4.688,4.688,0,0,0,4.687,50H32.806A4.694,4.694,0,0,0,37.5,45.313V12.888a4.716,4.716,0,0,0-1.384-3.319ZM25,5.077l7.431,7.43H25Zm7.817,40.236H4.687V4.7H20.309V14.851a2.337,2.337,0,0,0,2.344,2.343h10.16ZM17.869,22.245l-7.062,7.009a1.172,1.172,0,0,0,.825,2h4.773v8.2a1.172,1.172,0,0,0,1.172,1.172h2.344a1.172,1.172,0,0,0,1.172-1.172v-8.2h4.773a1.172,1.172,0,0,0,.825-2l-7.062-7.009a1.251,1.251,0,0,0-1.762,0Z" fill="url(#linear-gradient)"/>
</svg>
