<svg xmlns="http://www.w3.org/2000/svg" xmlns:xlink="http://www.w3.org/1999/xlink" width="75" height="60" viewBox="0 0 75 60">
  <defs>
    <linearGradient id="linear-gradient" y1="0.5" x2="1" y2="0.5" gradientUnits="objectBoundingBox">
      <stop offset="0" stop-color="#fc7900"/>
      <stop offset="1" stop-color="#b318f1"/>
    </linearGradient>
  </defs>
  <path id="users-medical-solid" d="M73.594,44.531H67.969V38.906A1.406,1.406,0,0,0,66.563,37.5H60.938a1.406,1.406,0,0,0-1.406,1.406v5.625H53.906A1.406,1.406,0,0,0,52.5,45.938v5.625a1.406,1.406,0,0,0,1.406,1.406h5.625v5.625A1.406,1.406,0,0,0,60.938,60h5.625a1.406,1.406,0,0,0,1.406-1.406V52.969h5.625A1.406,1.406,0,0,0,75,51.563V45.938A1.41,1.41,0,0,0,73.594,44.531ZM57.434,22.5a9.772,9.772,0,0,0-4.2.966,17.168,17.168,0,0,1,.183,1.847,15.8,15.8,0,0,1-3.886,10.313h7.465a5.114,5.114,0,0,1,3.945-1.875h5.625a5.123,5.123,0,0,1,3.943,1.875h2.429A2.134,2.134,0,0,0,75,33.434C75,27.4,70.383,22.5,64.676,22.5Zm-19.945,15A12.188,12.188,0,1,0,25.406,25.313,12.1,12.1,0,0,0,37.488,37.5ZM60,18.75a9.375,9.375,0,1,0-9.375-9.375A9.375,9.375,0,0,0,60,18.75ZM55.781,56.719H53.906a5.162,5.162,0,0,1-5.156-5.156V45.938a5.327,5.327,0,0,1,1.276-3.359,17.406,17.406,0,0,0-6.679-1.329h-11.7c-9.2,0-16.652,7-16.652,15.621A3.228,3.228,0,0,0,18.328,60H56a5.043,5.043,0,0,1-.223-1.406ZM21.551,25.313a15.612,15.612,0,0,1,.189-1.864,8.487,8.487,0,0,0-4.173-.948H10.322C4.622,22.5,0,27.4,0,33.434a2.133,2.133,0,0,0,2.065,2.191H25.444A15.785,15.785,0,0,1,21.551,25.313ZM15,18.75A9.375,9.375,0,1,0,5.625,9.375,9.375,9.375,0,0,0,15,18.75Z" fill="url(#linear-gradient)"/>
</svg>
