<svg xmlns="http://www.w3.org/2000/svg" xmlns:xlink="http://www.w3.org/1999/xlink" width="50" height="40" viewBox="0 0 50 40">
  <defs>
    <linearGradient id="linear-gradient" x1="0.5" x2="0.5" y2="1" gradientUnits="objectBoundingBox">
      <stop offset="0" stop-color="#ff61df"/>
      <stop offset="1" stop-color="#545454"/>
    </linearGradient>
  </defs>
  <path id="user-check-regular" d="M49.766,12.586l-1.492-1.5a.8.8,0,0,0-1.141,0l-8.055,8.1-3.7-3.727a.8.8,0,0,0-1.141,0l-1.5,1.5a.821.821,0,0,0,0,1.148l5.766,5.8a.8.8,0,0,0,1.141,0l10.125-10.18A.821.821,0,0,0,49.766,12.586ZM17.5,22.5A11.25,11.25,0,1,0,6.25,11.25,11.253,11.253,0,0,0,17.5,22.5Zm0-18.75a7.5,7.5,0,1,1-7.5,7.5A7.512,7.512,0,0,1,17.5,3.75Zm7,20c-2.25,0-3.312,1.25-7,1.25s-4.75-1.25-7-1.25A10.5,10.5,0,0,0,0,34.25v2A3.751,3.751,0,0,0,3.75,40h27.5A3.751,3.751,0,0,0,35,36.25v-2A10.5,10.5,0,0,0,24.5,23.75Zm6.75,12.5H3.75v-2A6.762,6.762,0,0,1,10.5,27.5c1.141,0,2.992,1.25,7,1.25,4.039,0,5.852-1.25,7-1.25a6.762,6.762,0,0,1,6.75,6.75Z" fill="url(#linear-gradient)"/>
</svg>
