<svg xmlns="http://www.w3.org/2000/svg" xmlns:xlink="http://www.w3.org/1999/xlink" width="50" height="40" viewBox="0 0 50 40">
  <defs>
    <linearGradient id="linear-gradient" x1="0.5" x2="0.5" y2="1" gradientUnits="objectBoundingBox">
      <stop offset="0" stop-color="#ff61df"/>
      <stop offset="1" stop-color="#545454"/>
    </linearGradient>
  </defs>
  <path id="user-tag-regular" d="M49.269,28.509l-7.055-7.047A5,5,0,0,0,38.674,20h-6.2a2.5,2.5,0,0,0-2.5,2.5v6.188a4.984,4.984,0,0,0,1.461,3.531l7.055,7.047a2.5,2.5,0,0,0,3.539,0l7.227-7.227a2.488,2.488,0,0,0,.008-3.531ZM34.986,26.869a1.875,1.875,0,1,1,1.875-1.875A1.871,1.871,0,0,1,34.986,26.869ZM3.75,36.236v-2a6.762,6.762,0,0,1,6.75-6.75c1.141,0,2.992,1.25,7,1.25,4.039,0,5.852-1.25,7-1.25a6.378,6.378,0,0,1,1.734.258V23.915a10.609,10.609,0,0,0-1.734-.172c-2.242,0-3.321,1.25-7,1.25s-4.75-1.25-7-1.25A10.5,10.5,0,0,0,0,34.244v2a3.751,3.751,0,0,0,3.75,3.75h27.5a3.72,3.72,0,0,0,2.055-.617l-3.133-3.133H3.75ZM17.5,22.494A11.247,11.247,0,1,0,6.25,11.251,11.254,11.254,0,0,0,17.5,22.494Zm0-18.743a7.5,7.5,0,1,1-7.5,7.5A7.507,7.507,0,0,1,17.5,3.75Z" fill="url(#linear-gradient)"/>
</svg>
