<svg xmlns="http://www.w3.org/2000/svg" xmlns:xlink="http://www.w3.org/1999/xlink" width="50" height="35" viewBox="0 0 50 35">
  <defs>
    <linearGradient id="linear-gradient" x1="0.5" x2="0.5" y2="1" gradientUnits="objectBoundingBox">
      <stop offset="0" stop-color="#ff61df"/>
      <stop offset="1" stop-color="#00f0ff"/>
    </linearGradient>
  </defs>
  <path id="user-friends-regular" d="M37.5,49.5A7.5,7.5,0,1,0,30,42a7.5,7.5,0,0,0,7.5,7.5Zm0-11.25A3.75,3.75,0,1,1,33.75,42a3.75,3.75,0,0,1,3.75-3.75ZM21.258,51.063a9.36,9.36,0,0,0-2.773.414,11.911,11.911,0,0,1-6.984,0,9.621,9.621,0,0,0-2.773-.414,8.61,8.61,0,0,0-7.211,3.664A9.064,9.064,0,0,0,0,59.75v3.5A3.751,3.751,0,0,0,3.75,67h22.5A3.751,3.751,0,0,0,30,63.25v-3.5a8.953,8.953,0,0,0-1.531-5.023A8.61,8.61,0,0,0,21.258,51.063ZM26.25,63.25H3.75v-3.5A5.267,5.267,0,0,1,7.2,54.82a3.643,3.643,0,0,1,2.492,0,15.666,15.666,0,0,0,10.633,0,3.643,3.643,0,0,1,2.492,0,5.259,5.259,0,0,1,3.445,4.93v3.5ZM15,49.5a8.75,8.75,0,1,0-8.75-8.75A8.75,8.75,0,0,0,15,49.5Zm0-13.75a5,5,0,1,1-5,5,5,5,0,0,1,5-5ZM48.727,54.273a7.181,7.181,0,0,0-6.008-3.055C40.547,51.219,40,52,37.5,52s-3.047-.781-5.219-.781a7.628,7.628,0,0,0-2.984.633,10.77,10.77,0,0,1,1.25,1.477,11.469,11.469,0,0,1,.938,1.719,3.831,3.831,0,0,1,.8-.086c1.344,0,2.313.781,5.219.781,2.922,0,3.867-.781,5.219-.781a3.441,3.441,0,0,1,2.9,1.4,3.724,3.724,0,0,1,.633,2.086v2.3H32.5v2.5a6.584,6.584,0,0,1-.125,1.25h14.5A3.124,3.124,0,0,0,50,61.375V58.461a7.464,7.464,0,0,0-1.273-4.188Z" transform="translate(0 -32)" fill="url(#linear-gradient)"/>
</svg>
