<svg xmlns="http://www.w3.org/2000/svg" xmlns:xlink="http://www.w3.org/1999/xlink" width="107" height="95" viewBox="0 0 107 95">
  <defs>
    <linearGradient id="linear-gradient" x1="0.5" x2="0.5" y2="1" gradientUnits="objectBoundingBox">
      <stop offset="0" stop-color="#ff61df"/>
      <stop offset="1" stop-color="#00f0ff"/>
    </linearGradient>
  </defs>
  <g id="Group_6873" data-name="Group 6873" transform="translate(22026 -15313)">
    <path id="user-tie-solid_1_" data-name="user-tie-solid (1)" d="M35,40A20,20,0,1,1,55,20,20,20,0,0,1,35,40ZM32.672,56.125l-2.906-4.844A2.5,2.5,0,0,1,31.906,47.5h6.172a2.5,2.5,0,0,1,2.141,3.781l-2.906,4.844,5.219,19.359,5.625-22.953a2.312,2.312,0,0,1,2.8-1.766A25.208,25.208,0,0,1,70,75.2,4.8,4.8,0,0,1,65.2,80H44.609a2.462,2.462,0,0,1-.906-.172L43.75,80H26.25l.047-.172a2.525,2.525,0,0,1-.906.172H4.8A4.808,4.808,0,0,1,0,75.2,25.2,25.2,0,0,1,19.047,50.766a2.336,2.336,0,0,1,2.8,1.766l5.625,22.953,5.219-19.359Z" transform="translate(-22026 15313)" fill="url(#linear-gradient)"/>
    <path id="badge-check-solid_1_" data-name="badge-check-solid (1)" d="M15,0a5.625,5.625,0,0,1,4.975,2.994,5.627,5.627,0,0,1,7.031,7.031,5.63,5.63,0,0,1,0,9.949,5.627,5.627,0,0,1-7.031,7.031,5.63,5.63,0,0,1-9.949,0,5.627,5.627,0,0,1-7.031-7.031,5.63,5.63,0,0,1,0-9.949,5.627,5.627,0,0,1,7.031-7.031A5.625,5.625,0,0,1,15,0Zm6.621,12.246a1.4,1.4,0,0,0-1.986-1.986l-6.5,6.5L10.377,14.01A1.4,1.4,0,1,0,8.391,16l3.75,3.75a1.4,1.4,0,0,0,1.986,0Z" transform="translate(-21949 15378)" fill="#3cf7af"/>
  </g>
</svg>
