<svg xmlns="http://www.w3.org/2000/svg" xmlns:xlink="http://www.w3.org/1999/xlink" width="84" height="58" viewBox="0 0 84 58">
  <defs>
    <linearGradient id="linear-gradient" x1="0.5" x2="0.5" y2="1" gradientUnits="objectBoundingBox">
      <stop offset="0" stop-color="#ff61df"/>
      <stop offset="1" stop-color="#00f0ff"/>
    </linearGradient>
  </defs>
  <g id="Group_6872" data-name="Group 6872" transform="translate(21734 -15419)">
    <g id="Group_6869" data-name="Group 6869">
      <path id="boxes-stacked-solid" d="M21.528,0H18.056a4.168,4.168,0,0,0-4.167,4.167v9.722a5.561,5.561,0,0,0,5.556,5.556H30.556a5.561,5.561,0,0,0,5.556-5.556V4.167A4.168,4.168,0,0,0,31.944,0H28.472V6.944a1.393,1.393,0,0,1-1.389,1.389H22.917a1.393,1.393,0,0,1-1.389-1.389ZM5.556,22.222A5.561,5.561,0,0,0,0,27.778V38.889a5.561,5.561,0,0,0,5.556,5.556H19.444A5.561,5.561,0,0,0,25,38.889V27.778a5.561,5.561,0,0,0-5.556-5.556H15.972v6.944a1.393,1.393,0,0,1-1.389,1.389H10.417a1.393,1.393,0,0,1-1.389-1.389V22.222Zm25,22.222H44.444A5.561,5.561,0,0,0,50,38.889V27.778a5.561,5.561,0,0,0-5.556-5.556H40.972v6.944a1.393,1.393,0,0,1-1.389,1.389H35.417a1.393,1.393,0,0,1-1.389-1.389V22.222H30.556a5.5,5.5,0,0,0-3.446,1.2,6.953,6.953,0,0,1,.668,2.969V40.278a6.953,6.953,0,0,1-.668,2.969A5.5,5.5,0,0,0,30.556,44.444Z" transform="translate(-21734 15419)" fill="url(#linear-gradient)"/>
      <path id="badge-check-solid_1_" data-name="badge-check-solid (1)" d="M15,0a5.625,5.625,0,0,1,4.975,2.994,5.627,5.627,0,0,1,7.031,7.031,5.63,5.63,0,0,1,0,9.949,5.627,5.627,0,0,1-7.031,7.031,5.63,5.63,0,0,1-9.949,0,5.627,5.627,0,0,1-7.031-7.031,5.63,5.63,0,0,1,0-9.949,5.627,5.627,0,0,1,7.031-7.031A5.625,5.625,0,0,1,15,0Zm6.621,12.246a1.4,1.4,0,0,0-1.986-1.986l-6.5,6.5L10.377,14.01A1.4,1.4,0,1,0,8.391,16l3.75,3.75a1.4,1.4,0,0,0,1.986,0Z" transform="translate(-21680 15447)" fill="#3cf7af"/>
    </g>
  </g>
</svg>
