<svg xmlns="http://www.w3.org/2000/svg" xmlns:xlink="http://www.w3.org/1999/xlink" width="70" height="55" viewBox="0 0 70 55">
  <defs>
    <linearGradient id="linear-gradient" x1="0.5" x2="0.5" y2="1" gradientUnits="objectBoundingBox">
      <stop offset="0" stop-color="#ff61df"/>
      <stop offset="1" stop-color="#00f0ff"/>
    </linearGradient>
  </defs>
  <g id="Group_6868" data-name="Group 6868" transform="translate(21826 -15419)">
    <path id="hashtag-solid_1_" data-name="hashtag-solid (1)" d="M16.181,32a2.857,2.857,0,0,1,2.347,3.284l-.875,5.248h8.488l1.026-6.185a2.855,2.855,0,1,1,5.632.937l-.866,5.248h5.194a2.856,2.856,0,1,1,0,5.712H30.979l-1.9,11.424h5.194a2.856,2.856,0,1,1,0,5.712H28.123L27.1,69.566a2.855,2.855,0,0,1-5.632-.937l.875-5.239h-8.5l-1.026,6.185a2.855,2.855,0,1,1-5.632-.937l.866-5.257H2.856a2.856,2.856,0,1,1,0-5.712H9.005l1.9-11.424H5.712a2.856,2.856,0,1,1,0-5.712h6.149l1.026-6.185A2.857,2.857,0,0,1,16.172,32ZM16.7,46.245,14.8,57.669h8.488l1.9-11.424Z" transform="translate(-21826 15387.038)" fill="url(#linear-gradient)"/>
    <path id="badge-check-solid_1_" data-name="badge-check-solid (1)" d="M15,0a5.625,5.625,0,0,1,4.975,2.994,5.627,5.627,0,0,1,7.031,7.031,5.63,5.63,0,0,1,0,9.949,5.627,5.627,0,0,1-7.031,7.031,5.63,5.63,0,0,1-9.949,0,5.627,5.627,0,0,1-7.031-7.031,5.63,5.63,0,0,1,0-9.949,5.627,5.627,0,0,1,7.031-7.031A5.625,5.625,0,0,1,15,0Zm6.621,12.246a1.4,1.4,0,0,0-1.986-1.986l-6.5,6.5L10.377,14.01A1.4,1.4,0,1,0,8.391,16l3.75,3.75a1.4,1.4,0,0,0,1.986,0Z" transform="translate(-21786 15444)" fill="#3cf7af"/>
  </g>
</svg>
