<svg xmlns="http://www.w3.org/2000/svg" xmlns:xlink="http://www.w3.org/1999/xlink" width="85" height="56" viewBox="0 0 85 56">
  <defs>
    <linearGradient id="linear-gradient" x1="0.5" x2="0.5" y2="1" gradientUnits="objectBoundingBox">
      <stop offset="0" stop-color="#ff61df"/>
      <stop offset="1" stop-color="#00f0ff"/>
    </linearGradient>
  </defs>
  <g id="Group_6871" data-name="Group 6871" transform="translate(21518 -15418)">
    <path id="sitemap-solid_1_" data-name="sitemap-solid (1)" d="M18.056,36.167A4.168,4.168,0,0,1,22.222,32h5.556a4.168,4.168,0,0,1,4.167,4.167v5.556a4.168,4.168,0,0,1-4.167,4.167h-.694v3.472H40.278a4.864,4.864,0,0,1,4.861,4.861V57h.694A4.168,4.168,0,0,1,50,61.167v5.556a4.168,4.168,0,0,1-4.167,4.167H40.278a4.168,4.168,0,0,1-4.167-4.167V61.167A4.168,4.168,0,0,1,40.278,57h.694V54.222a.7.7,0,0,0-.694-.694H27.083V57h.694a4.168,4.168,0,0,1,4.167,4.167v5.556a4.168,4.168,0,0,1-4.167,4.167H22.222a4.168,4.168,0,0,1-4.167-4.167V61.167A4.168,4.168,0,0,1,22.222,57h.694V53.528H9.722a.7.7,0,0,0-.694.694V57h.694a4.168,4.168,0,0,1,4.167,4.167v5.556a4.168,4.168,0,0,1-4.167,4.167H4.167A4.168,4.168,0,0,1,0,66.722V61.167A4.168,4.168,0,0,1,4.167,57h.694V54.222a4.864,4.864,0,0,1,4.861-4.861H22.917V45.889h-.694a4.168,4.168,0,0,1-4.167-4.167Z" transform="translate(-21518 15386)" fill="url(#linear-gradient)"/>
    <path id="badge-check-solid_1_" data-name="badge-check-solid (1)" d="M15,0a5.625,5.625,0,0,1,4.975,2.994,5.627,5.627,0,0,1,7.031,7.031,5.63,5.63,0,0,1,0,9.949,5.627,5.627,0,0,1-7.031,7.031,5.63,5.63,0,0,1-9.949,0,5.627,5.627,0,0,1-7.031-7.031,5.63,5.63,0,0,1,0-9.949,5.627,5.627,0,0,1,7.031-7.031A5.625,5.625,0,0,1,15,0Zm6.621,12.246a1.4,1.4,0,0,0-1.986-1.986l-6.5,6.5L10.377,14.01A1.4,1.4,0,1,0,8.391,16l3.75,3.75a1.4,1.4,0,0,0,1.986,0Z" transform="translate(-21463 15444)" fill="#3cf7af"/>
  </g>
</svg>
