<svg xmlns="http://www.w3.org/2000/svg" width="50" height="50" viewBox="0 0 50 50">
  <g id="zapier" transform="translate(231 231)" opacity="0.5">
    <circle id="Ellipse_185" data-name="Ellipse 185" cx="25" cy="25" r="25" transform="translate(-231 -231)" fill="#ff4a00"/>
    <path id="Path_300" data-name="Path 300" d="M287.25,281.011a14.954,14.954,0,0,1-.961,5.276,14.96,14.96,0,0,1-5.278.963h-.021a14.96,14.96,0,0,1-5.274-.96,14.957,14.957,0,0,1-.965-5.279v-.021a14.971,14.971,0,0,1,.959-5.272,14.954,14.954,0,0,1,5.28-.967h.021a14.949,14.949,0,0,1,5.279.961,14.949,14.949,0,0,1,.96,5.273v.021Zm18.4-4.178H291.059l10.319-10.318a25.2,25.2,0,0,0-5.893-5.889l-10.318,10.315V256.348a25.16,25.16,0,0,0-4.153-.348h-.026a25.16,25.16,0,0,0-4.153.348v14.594l-10.319-10.319a25.211,25.211,0,0,0-5.888,5.891l10.314,10.32H256.348s-.348,2.741-.348,4.158v.018a25.165,25.165,0,0,0,.348,4.158h14.594l-10.319,10.318a25.143,25.143,0,0,0,5.893,5.893l10.318-10.319v14.594a25.169,25.169,0,0,0,4.149.348h.036a25.181,25.181,0,0,0,4.148-.348V291.059l10.318,10.319a25.227,25.227,0,0,0,5.89-5.893l-10.316-10.318h14.594a25.169,25.169,0,0,0,.348-4.149v-.036A25.181,25.181,0,0,0,305.652,276.833Z" transform="translate(-487 -487)" fill="#fff"/>
  </g>
</svg>
